<svg width="75" height="59" viewBox="0 0 75 59" fill="none" xmlns="http://www.w3.org/2000/svg">
<path d="M73.6611 0.313413L73.6612 0.313614L73.6697 0.308824C74.1635 0.0284211 74.7914 0.358196 74.7914 0.904296V0.919216V0.934134V0.949051V0.963968V0.978883V0.993797V1.00871V1.02362V1.03853V1.05345V1.06835V1.08326V1.09817V1.11308V1.12798V1.14289V1.15779V1.1727V1.1876V1.2025V1.2174V1.2323V1.2472V1.26209V1.27699V1.29189V1.30678V1.32168V1.33657V1.35146V1.36635V1.38124V1.39613V1.41102V1.42591V1.4408V1.45568V1.47057V1.48545V1.50034V1.51522V1.5301V1.54498V1.55986V1.57474V1.58962V1.6045V1.61938V1.63425V1.64913V1.664V1.67888V1.69375V1.70862V1.7235V1.73837V1.75324V1.76811V1.78297V1.79784V1.81271V1.82757V1.84244V1.85731V1.87217V1.88703V1.9019V1.91676V1.93162V1.94648V1.96134V1.9762V1.99106V2.00591V2.02077V2.03563V2.05048V2.06534V2.08019V2.09504V2.1099V2.12475V2.1396V2.15445V2.1693V2.18415V2.199V2.21385V2.22869V2.24354V2.25839V2.27323V2.28808V2.30292V2.31777V2.33261V2.34745V2.36229V2.37713V2.39197V2.40681V2.42165V2.43649V2.45133V2.46617V2.48101V2.49584V2.51068V2.52551V2.54035V2.55518V2.57002V2.58485V2.59968V2.61451V2.62934V2.64417V2.65901V2.67384V2.68866V2.70349V2.71832V2.73315V2.74798V2.7628V2.77763V2.79245V2.80728V2.8221V2.83693V2.85175V2.86658V2.8814V2.89622V2.91104V2.92586V2.94068V2.9555V2.97032V2.98514V2.99996V3.01478V3.0296V3.04442V3.05923V3.07405V3.08887V3.10368V3.1185V3.13331V3.14813V3.16294V3.17776V3.19257V3.20738V3.2222V3.23701V3.25182V3.26663V3.28145V3.29626V3.31107V3.32588V3.34069V3.3555V3.3703V3.38511V3.39992V3.41473V3.42954V3.44435V3.45915V3.47396V3.48877V3.50357V3.51838V3.53318V3.54799V3.56279V3.5776V3.5924V3.60721V3.62201V3.63681V3.65162V3.66642V3.68122V3.69602V3.71083V3.72563V3.74043V3.75523V3.77003V3.78483V3.79963V3.81443V3.82923V3.84403V3.85883V3.87363V3.88843V3.90323V3.91803V3.93283V3.94763V3.96243V3.97722V3.99202V4.00682V4.02162V4.03641V4.05121V4.06601V4.0808V4.0956V4.1104V4.12519V4.13999V4.15479V4.16958V4.18438V4.19917V4.21397V4.22876V4.24356V4.25835V4.27315V4.28794V4.30274V4.31753V4.33233V4.34712V4.36192V4.37671V4.39151V4.4063V4.42109V4.43589V4.45068V4.46548V4.48027V4.49506V4.50986V4.52465V4.53944V4.55424V4.56903V4.58382V4.59862V4.61341V4.6282V4.643V4.65779V4.67258V4.68738V4.70217V4.71696V4.73176V4.74655V4.76134V4.77614V4.79093V4.80572V4.82052V4.83531V4.8501V4.8649V4.87969V4.89448V4.90928V4.92407V4.93887V4.95366V4.96845V4.98325V4.99804V5.01284V5.02763V5.04242V5.05722V5.07201V5.08681V5.1016V5.1164V5.13119V5.14599V5.16078V5.17558V5.19037V5.20517V5.21996V5.23476V5.24956V5.26435V5.27915V5.29394V5.30874V5.32354V5.33833V5.35313V5.36793V5.38273V5.39752V5.41232V5.42712V5.44192V5.45671V5.47151V5.48631V5.50111V5.51591V5.53071V5.54551V5.56031V5.57511V5.58991V5.60471V5.61951V5.63431V5.64911V5.66391V5.67871V5.69352V5.70832V5.72312V5.73792V5.75273V5.76753V5.78233V5.79714V5.81194V5.82674V5.84155V5.85635V5.87116V5.88596V5.90077V5.91558V5.93038V5.94519V5.96V5.9748V5.98961V6.00442V6.01923V6.03404V6.04885V6.06365V6.07846V6.09328V6.10809V6.1229V6.13771V6.15252V6.16733V6.18214V6.19696V6.21177V6.22658V6.2414V6.25621V6.27103V6.28584V6.30066V6.31547V6.33029V6.34511V6.35992V6.37474V6.38956V6.40438V6.4192V6.43402V6.44884V6.46366V6.47848V6.4933V6.50812V6.52294V6.53777V6.55259V6.56741V6.58224V6.59706V6.61189V6.62671V6.64154V6.65637V6.67119V6.68602V6.70085V6.71568V6.73051V6.74534V6.76017V6.775V6.78983V6.80466V6.81949V6.83433V6.84916V6.86399V6.87883V6.89366V6.9085V6.92334V6.93817V6.95301V6.96785V6.98269V6.99753V7.01237V7.02721V7.04205V7.05689V7.07173V7.08658V7.10142V7.11626V7.13111V7.14595V7.1608V7.17565V7.19049V7.20534V7.22019V7.23504V7.24989V7.26474V7.27959V7.29444V7.3093V7.32415V7.339V7.35386V7.36872V7.38357V7.39843V7.41329V7.42814V7.443V7.45786V7.47272V7.48758V7.50245V7.51731V7.53217V7.54704V7.5619V7.57677V7.59163V7.6065V7.62137V7.63624V7.65111V7.66598V7.68085V7.69572V7.71059V7.72546V7.74034V7.75521V7.77009V7.78496V7.79984V7.81472V7.8296V7.84448V7.85936V7.87424V7.88912V7.904V7.91889V7.93377V7.94866V7.96354V7.97843V7.99332V8.00821V8.0231V8.03799V8.05288V8.06777V8.08267V8.09756V8.11245V8.12735V8.14225V8.15714V8.17204V8.18694V8.20184V8.21674V8.23165V8.24655V8.26145V8.27636V8.29126V8.30617V8.32108V8.33599V8.3509V8.36581V8.38072V8.39563V8.41054V8.42546V8.44037V8.45529V8.47021V8.48513V8.50004C74.7914 8.75467 74.6294 8.99485 74.3863 9.13349C74.1452 9.27101 73.8615 9.28781 73.6369 9.14514C72.8501 8.62403 72.0207 8.1469 71.198 7.67363L71.195 7.6719L71.0272 7.57537L70.9184 7.73552C63.6246 18.4773 55.8968 28.9601 47.7351 39.0975L47.735 39.0975L47.7326 39.1006C47.5824 39.2947 47.312 39.3574 47.0356 39.2809C46.7586 39.2041 46.5419 39.0046 46.4954 38.758L46.495 38.7561C45.2347 32.4081 43.8006 26.1035 42.1927 19.799L42.0532 19.2521L41.8035 19.7583C38.5875 26.2791 35.5887 32.8863 32.8072 39.5798L32.8064 39.582C32.7053 39.8331 32.4307 40.0511 32.1364 40.1141C31.9934 40.1447 31.858 40.1358 31.7442 40.0872C31.6335 40.0398 31.5283 39.9486 31.4508 39.7859C30.9296 38.6854 30.4084 37.5958 29.8874 36.5065L29.887 36.5057C29.3658 35.4159 28.8448 34.3265 28.3238 33.2264L28.1117 32.7787L27.9397 33.2433C24.8553 41.5744 21.9013 49.9052 18.9911 58.2352L18.9903 58.2377C18.7444 58.9705 17.756 58.9804 17.519 58.2404C14.6485 49.2516 10.9954 40.609 6.60329 32.2263L6.43584 31.9067L6.24247 32.2113C5.64742 33.1487 5.05794 34.0897 4.46885 35.0301C3.29295 36.9073 2.1186 38.782 0.904652 40.6202C0.756623 40.8232 0.542354 40.8342 0.386105 40.746C0.306214 40.7009 0.248724 40.633 0.223519 40.5575C0.199628 40.4859 0.199277 40.3917 0.260742 40.2769C1.58137 37.8399 2.96967 35.4494 4.36207 33.0518C4.89124 32.1406 5.42099 31.2285 5.94784 30.3123L5.9479 30.3124L5.95041 30.3077C6.06016 30.1052 6.27575 29.9961 6.50541 29.9961C6.73508 29.9961 6.95067 30.1052 7.06041 30.3077L7.06039 30.3077L7.06207 30.3107C11.5289 38.2396 15.1721 46.557 18.0783 55.1769L18.2733 55.7555L18.473 55.1785C21.2954 47.0238 24.2483 38.8686 27.2449 30.756C27.3473 30.4855 27.6203 30.2709 27.9099 30.2133C28.0514 30.1852 28.1868 30.1967 28.3017 30.2483C28.4142 30.2987 28.5205 30.3934 28.5985 30.557L28.599 30.5581C29.1417 31.6798 29.6736 32.7907 30.2057 33.9021L30.2058 33.9022C30.7378 35.0134 31.27 36.125 31.8131 37.2476L32.0131 37.661L32.1928 37.2383C35.1453 30.2923 38.227 23.4351 41.6117 16.7947L41.6122 16.7937C41.7597 16.5007 42.053 16.388 42.3513 16.4316C42.6542 16.4759 42.9224 16.6765 43.0054 16.9702C44.6982 23.4397 46.2173 29.9524 47.5629 36.5081L47.6528 36.946L47.9306 36.5958C55.5348 27.0107 62.7478 17.1666 69.613 7.06359L69.7302 6.89113L69.5578 6.77389C68.7319 6.21238 67.9122 5.65501 67.1364 5.05554C66.9687 4.92373 66.9056 4.78719 66.8942 4.66751C66.8823 4.5435 66.9234 4.40974 67.0139 4.28553C67.2005 4.02953 67.5519 3.87193 67.8676 3.95448L67.9739 3.98227L68.0569 3.91034C69.7321 2.45921 71.7127 1.30295 73.6611 0.313413Z" fill="white" stroke="white" stroke-width="0.417124"/>
</svg>
