<svg width="75" height="59" viewBox="0 0 75 59" fill="none" xmlns="http://www.w3.org/2000/svg">
<path d="M73.5667 0.127459C71.6122 1.12008 69.6143 2.28534 67.9203 3.7527C67.0951 3.53691 66.183 4.5727 67.0082 5.22006C67.79 5.82427 68.6153 6.38532 69.4405 6.94637C62.578 17.0453 55.3681 26.8852 47.7672 36.4662C46.4208 29.9062 44.9006 23.3894 43.2067 16.9158C42.9895 16.139 41.8168 15.9232 41.4259 16.7C38.0381 23.3463 34.9543 30.2083 32.0009 37.1567C30.915 34.9125 29.8726 32.7115 28.7868 30.4673C28.3959 29.6473 27.31 29.9926 27.0494 30.6831C24.0525 38.7967 21.0991 46.9535 18.2759 55.1103C15.3658 46.4788 11.7174 38.1494 7.24378 30.2083C6.93975 29.6473 6.07108 29.6473 5.76705 30.2083C3.85597 33.5315 1.90147 36.8115 0.0772598 40.1778C-0.270208 40.8251 0.641895 41.343 1.07623 40.7388C2.90044 37.9767 4.63777 35.1283 6.41855 32.3231C10.8053 40.6957 14.4537 49.3272 17.3204 58.304C17.6244 59.2535 18.884 59.2103 19.188 58.304C22.098 49.9746 25.0515 41.6451 28.1353 33.3157C29.1777 35.5167 30.2201 37.6746 31.2625 39.8757C31.6534 40.6957 32.7392 40.3072 32.9998 39.6599C35.7796 32.9704 38.7765 26.3673 41.9906 19.8505C43.5976 26.1515 45.0309 32.4525 46.2905 38.7967C46.4208 39.4872 47.4632 39.7893 47.8975 39.2283C56.063 29.0862 63.7942 18.5989 71.091 7.85268C71.9162 8.32741 72.7415 8.80215 73.5233 9.32004C74.1313 9.70846 75 9.19057 75 8.50004C75 5.95374 75 3.4506 75 0.904296C75 0.170616 74.1748 -0.217803 73.5667 0.127459Z" fill="#1C1B20"/>
</svg>
