<svg width="241" height="218" viewBox="0 0 241 218" fill="none" xmlns="http://www.w3.org/2000/svg">
<g filter="url(#filter0_d_2_12882)">
<rect x="15.7383" y="13" width="210.262" height="186.805" rx="5.71793" fill="white"/>
<path d="M46.6396 46.9898V51.8398H45.8355V47.7301H43.4105V51.8398H42.6064V46.9898H46.6396ZM49.6262 51.9037C48.452 51.9037 47.6862 51.1251 47.6862 49.9254C47.6862 48.7511 48.4775 47.9471 49.6262 47.9471C50.8004 47.9471 51.5662 48.7256 51.5662 49.9254C51.5662 51.0996 50.7749 51.9037 49.6262 51.9037ZM49.6262 51.2527C50.3282 51.2527 50.7876 50.7294 50.7876 49.9254C50.7876 49.1213 50.3282 48.598 49.6262 48.598C48.9242 48.598 48.4647 49.1213 48.4647 49.9254C48.4647 50.7294 48.9242 51.2527 49.6262 51.2527ZM55.0888 51.8398L53.7998 50.0658L53.2509 50.589V51.8398H52.4851V48.0109H53.2509V49.7211L54.974 48.0109H55.944L54.3486 49.5425L56.0206 51.8398H55.0888ZM58.6625 47.9471C59.6708 47.9471 60.3345 48.7256 60.3345 49.9254C60.3345 51.0996 59.6453 51.9037 58.6625 51.9037C58.1393 51.9037 57.6925 51.6994 57.399 51.3293V53.1162H56.6332V48.0109H57.2969L57.3479 48.6107C57.6543 48.1896 58.1137 47.9471 58.6625 47.9471ZM58.4583 51.2527C59.1348 51.2527 59.556 50.7294 59.556 49.9254C59.556 49.1213 59.1348 48.598 58.4583 48.598C57.7819 48.598 57.3479 49.1213 57.3479 49.9254C57.3479 50.7294 57.7819 51.2527 58.4583 51.2527ZM63.8699 48.0109H64.6613V51.8398H63.9082V49.0575L62.0448 51.8398H61.2535V48.0109H62.0065V50.7677L63.8699 48.0109ZM68.9114 48.0109V48.6873H67.533V51.8398H66.7672V48.6873H65.3888V48.0109H68.9114ZM72.6893 48.0109V48.6873H71.3109V51.8398H70.5451V48.6873H69.1667V48.0109H72.6893ZM76.212 48.0109V51.8398H75.4462V50.3976H74.6038L73.6721 51.8398H72.817L73.838 50.2955C73.353 50.1168 73.0722 49.7467 73.0722 49.2361C73.0722 48.4959 73.621 48.0109 74.4889 48.0109H76.212ZM74.5655 49.8233H75.4462V48.649H74.5655C74.1061 48.649 73.838 48.866 73.838 49.2234C73.838 49.6063 74.1061 49.8233 74.5655 49.8233ZM81.5853 49.8615C82.0193 50.0019 82.249 50.321 82.249 50.755C82.249 51.4314 81.5981 51.9037 80.6281 51.9037C79.8367 51.9037 79.2369 51.5208 78.9816 50.8826L79.6198 50.6018C79.824 51.0358 80.1813 51.2655 80.6408 51.2655C81.1514 51.2655 81.4704 51.0613 81.4704 50.7167C81.4704 50.3976 81.1896 50.1934 80.7174 50.1934H80.2324V49.5935H80.6919C81.1003 49.5935 81.33 49.4021 81.33 49.0958C81.33 48.7639 81.0748 48.5725 80.6536 48.5725C80.2196 48.5725 79.9006 48.7894 79.7346 49.1851L79.1092 48.8532C79.3773 48.2917 79.9516 47.9471 80.6791 47.9471C81.5215 47.9471 82.0703 48.381 82.0831 49.0575C82.0831 49.4276 81.9171 49.6956 81.5853 49.8615ZM86.1418 51.1762H86.2822V51.8398C86.2439 51.8526 86.1418 51.8654 86.0141 51.8654C85.5419 51.8654 85.3249 51.6994 85.2739 51.2527C85.0058 51.6484 84.4953 51.9037 83.9337 51.9037C83.1807 51.9037 82.6829 51.4442 82.6829 50.7805C82.6829 49.836 83.5891 49.6318 84.3294 49.5169C84.9037 49.4404 85.1845 49.3893 85.1845 49.0958C85.1845 48.7894 84.8655 48.5852 84.3805 48.5852C83.9465 48.5852 83.5381 48.7767 83.2318 49.0958L82.7595 48.598C83.2062 48.1768 83.7551 47.9471 84.4187 47.9471C85.3377 47.9471 85.8993 48.4193 85.8993 49.2106V50.9337C85.8993 51.0996 85.9759 51.1762 86.1418 51.1762ZM84.0614 51.2783C84.6485 51.2783 85.159 50.8698 85.159 50.3848V49.8871C85.0186 49.9764 84.7889 50.0147 84.4187 50.0785C83.9337 50.1551 83.436 50.2317 83.436 50.7294C83.436 51.0868 83.6657 51.2783 84.0614 51.2783ZM92.5744 48.0109V51.8398H91.8086V48.6873H89.9452V51.8398H89.1794V48.0109H92.5744ZM95.8035 47.9471C96.8118 47.9471 97.4755 48.7256 97.4755 49.9254C97.4755 51.0996 96.7863 51.9037 95.8035 51.9037C95.2802 51.9037 94.8335 51.6994 94.54 51.3293V53.1162H93.7742V48.0109H94.4379L94.4889 48.6107C94.7952 48.1896 95.2547 47.9471 95.8035 47.9471ZM95.5993 51.2527C96.2758 51.2527 96.697 50.7294 96.697 49.9254C96.697 49.1213 96.2758 48.598 95.5993 48.598C94.9229 48.598 94.4889 49.1213 94.4889 49.9254C94.4889 50.7294 94.9229 51.2527 95.5993 51.2527ZM100.054 51.9037C98.8795 51.9037 98.1137 51.1251 98.1137 49.9254C98.1137 48.7511 98.905 47.9471 100.054 47.9471C101.228 47.9471 101.994 48.7256 101.994 49.9254C101.994 51.0996 101.202 51.9037 100.054 51.9037ZM100.054 51.2527C100.756 51.2527 101.215 50.7294 101.215 49.9254C101.215 49.1213 100.756 48.598 100.054 48.598C99.3517 48.598 98.8922 49.1213 98.8922 49.9254C98.8922 50.7294 99.3517 51.2527 100.054 51.2527ZM105.44 49.8743C105.861 50.0275 106.091 50.3338 106.091 50.7933C106.091 51.4825 105.593 51.8398 104.763 51.8398H102.913V48.0109H104.623C105.465 48.0109 105.989 48.3172 105.989 49.0064C105.989 49.4276 105.784 49.7211 105.44 49.8743ZM103.653 48.6235V49.5935H104.623C105.057 49.5935 105.236 49.4531 105.236 49.0958C105.236 48.7894 105.019 48.6235 104.661 48.6235H103.653ZM104.687 51.2272C105.095 51.2272 105.325 51.0358 105.325 50.7039C105.325 50.3721 105.07 50.1679 104.636 50.1679H103.653V51.2272H104.687ZM107.495 50.1679C107.584 50.8315 108.005 51.2527 108.682 51.2527C109.243 51.2527 109.601 51.0358 109.818 50.755L110.341 51.2144C110.022 51.5973 109.486 51.9037 108.682 51.9037C107.418 51.9037 106.729 51.0613 106.729 49.9254C106.729 48.7511 107.495 47.9471 108.618 47.9471C109.741 47.9471 110.468 48.7256 110.468 49.9254C110.468 50.0147 110.468 50.0785 110.443 50.1679H107.495ZM108.618 48.5852C108.018 48.5852 107.622 48.9681 107.507 49.5808H109.69C109.588 48.9554 109.192 48.5852 108.618 48.5852ZM114.578 51.1634H115.089V52.7333H114.361V51.8398H111.604V52.7333H110.877V51.1634H111.324C111.4 50.8571 111.438 50.3593 111.438 49.6063V48.0109H114.578V51.1634ZM112.064 51.1634H113.825V48.6873H112.179V49.6446C112.179 50.2572 112.14 50.7805 112.064 51.1634ZM116.314 50.1679C116.403 50.8315 116.825 51.2527 117.501 51.2527C118.063 51.2527 118.42 51.0358 118.637 50.755L119.16 51.2144C118.841 51.5973 118.305 51.9037 117.501 51.9037C116.237 51.9037 115.548 51.0613 115.548 49.9254C115.548 48.7511 116.314 47.9471 117.437 47.9471C118.56 47.9471 119.288 48.7256 119.288 49.9254C119.288 50.0147 119.288 50.0785 119.262 50.1679H116.314ZM117.437 48.5852C116.837 48.5852 116.442 48.9681 116.327 49.5808H118.509C118.407 48.9554 118.012 48.5852 117.437 48.5852ZM122.811 48.0109H123.576V51.8398H122.811V50.2317H120.947V51.8398H120.181V48.0109H120.947V49.5425H122.811V48.0109ZM124.802 47.4748V46.709H125.644V47.4748H124.802ZM124.84 51.8398V48.0109H125.606V51.8398H124.84ZM131.962 48.0109V48.6873H130.583V51.8398H129.818V48.6873H128.439V48.0109H131.962ZM134.719 47.9471C135.727 47.9471 136.391 48.7256 136.391 49.9254C136.391 51.0996 135.701 51.9037 134.719 51.9037C134.195 51.9037 133.749 51.6994 133.455 51.3293V53.1162H132.689V48.0109H133.353L133.404 48.6107C133.71 48.1896 134.17 47.9471 134.719 47.9471ZM134.514 51.2527C135.191 51.2527 135.612 50.7294 135.612 49.9254C135.612 49.1213 135.191 48.598 134.514 48.598C133.838 48.598 133.404 49.1213 133.404 49.9254C133.404 50.7294 133.838 51.2527 134.514 51.2527ZM140.347 51.1762H140.488V51.8398C140.449 51.8526 140.347 51.8654 140.22 51.8654C139.747 51.8654 139.53 51.6994 139.479 51.2527C139.211 51.6484 138.701 51.9037 138.139 51.9037C137.386 51.9037 136.888 51.4442 136.888 50.7805C136.888 49.836 137.795 49.6318 138.535 49.5169C139.109 49.4404 139.39 49.3893 139.39 49.0958C139.39 48.7894 139.071 48.5852 138.586 48.5852C138.152 48.5852 137.744 48.7767 137.437 49.0958L136.965 48.598C137.412 48.1768 137.96 47.9471 138.624 47.9471C139.543 47.9471 140.105 48.4193 140.105 49.2106V50.9337C140.105 51.0996 140.181 51.1762 140.347 51.1762ZM138.267 51.2783C138.854 51.2783 139.364 50.8698 139.364 50.3848V49.8871C139.224 49.9764 138.994 50.0147 138.624 50.0785C138.139 50.1551 137.641 50.2317 137.641 50.7294C137.641 51.0868 137.871 51.2783 138.267 51.2783ZM143.972 48.0109H144.738V51.8398H143.972V50.2317H142.109V51.8398H141.343V48.0109H142.109V49.5425H143.972V48.0109ZM145.861 51.8398V50.8443H146.856V51.8398H145.861ZM147.903 51.8398V50.8443H148.899V51.8398H147.903ZM149.945 51.8398V50.8443H150.941V51.8398H149.945Z" fill="#1C1B20"/>
<path d="M43.9439 62.8957C42.9276 62.8957 42.2687 62.0358 42.2687 60.718C42.2687 59.4002 42.9276 58.5402 43.9439 58.5402C44.9601 58.5402 45.619 59.4002 45.619 60.718C45.619 62.0358 44.9601 62.8957 43.9439 62.8957ZM43.9439 62.3931C44.6139 62.3931 45.0495 61.7342 45.0495 60.718C45.0495 59.7017 44.6139 59.0428 43.9439 59.0428C43.2738 59.0428 42.8382 59.7017 42.8382 60.718C42.8382 61.7342 43.2738 62.3931 43.9439 62.3931ZM48.0201 60.1372C48.8242 60.1372 49.4496 60.6398 49.4496 61.4774C49.4496 62.315 48.7349 62.8957 47.9308 62.8957C46.747 62.8957 46.2891 61.8571 46.2891 60.7738C46.2891 59.6347 46.7805 58.5402 48.0313 58.5402C48.5338 58.5402 49.0252 58.7301 49.3379 59.1321L48.9582 59.4895C48.7349 59.1768 48.411 59.0204 48.0313 59.0204C47.082 59.0204 46.7917 59.9139 46.8028 60.718V60.785C47.0485 60.3718 47.4952 60.1372 48.0201 60.1372ZM47.9308 62.4155C48.4557 62.4155 48.9135 62.0581 48.9135 61.5109C48.9135 60.9525 48.5003 60.6063 47.9643 60.6063C47.4282 60.6063 46.9815 60.9525 46.9815 61.4885C46.9815 62.0469 47.3724 62.4155 47.9308 62.4155ZM49.9298 62.8398V62.0581H50.7116V62.8398H49.9298ZM52.1187 62.8398V59.7464H51.1136V59.3108H51.2811C52.0294 59.3108 52.2304 59.1545 52.2862 58.5961H52.6771V62.8398H52.1187ZM55.4691 62.8957C54.4528 62.8957 53.7939 62.0358 53.7939 60.718C53.7939 59.4002 54.4528 58.5402 55.4691 58.5402C56.4853 58.5402 57.1442 59.4002 57.1442 60.718C57.1442 62.0358 56.4853 62.8957 55.4691 62.8957ZM55.4691 62.3931C56.1391 62.3931 56.5747 61.7342 56.5747 60.718C56.5747 59.7017 56.1391 59.0428 55.4691 59.0428C54.799 59.0428 54.3634 59.7017 54.3634 60.718C54.3634 61.7342 54.799 62.3931 55.4691 62.3931ZM57.8143 62.8398V62.0581H58.596V62.8398H57.8143ZM60.0479 62.315H62.1809V62.8398H59.2103V62.4825L60.6733 61.1423C61.254 60.6063 61.4997 60.2154 61.4997 59.8022C61.4997 59.3443 61.1758 59.0316 60.7068 59.0316C60.1484 59.0316 59.791 59.3778 59.7463 60.0032L59.2214 59.8915C59.2996 59.054 59.8915 58.5402 60.7291 58.5402C61.522 58.5402 62.0692 59.0428 62.0692 59.7687C62.0692 60.3159 61.7119 60.8185 60.9301 61.522L60.0479 62.315ZM65.7211 61.2763V61.7566H65.0175V62.8398H64.4592V61.7566H62.3708V61.321L64.3475 58.5961H65.0175V61.2763H65.7211ZM62.9627 61.2763H64.4592V59.2103L62.9627 61.2763ZM67.9547 61.2205V60.6621H69.8532V61.2205H67.9547ZM73.6949 58.5402C74.8787 58.5402 75.3366 59.5788 75.3366 60.6621C75.3366 61.8012 74.8452 62.8957 73.5944 62.8957C73.0919 62.8957 72.6005 62.7058 72.2878 62.3038L72.6675 61.9464C72.8909 62.2591 73.2147 62.4155 73.5944 62.4155C74.5437 62.4155 74.8341 61.522 74.8229 60.718V60.651C74.5772 61.0642 74.1305 61.2987 73.6056 61.2987C72.8015 61.2987 72.1761 60.7961 72.1761 59.9585C72.1761 59.121 72.8909 58.5402 73.6949 58.5402ZM73.6614 60.8296C74.1975 60.8296 74.6442 60.4834 74.6442 59.9474C74.6442 59.389 74.2533 59.0204 73.6949 59.0204C73.1701 59.0204 72.7122 59.3778 72.7122 59.925C72.7122 60.4834 73.1254 60.8296 73.6614 60.8296ZM76.1184 60.2712V59.4895H76.9001V60.2712H76.1184ZM76.1184 62.8398V62.0581H76.9001V62.8398H76.1184ZM79.2342 60.2377C79.9489 60.2377 80.4738 60.7626 80.4738 61.4885C80.4738 62.2926 79.8149 62.8957 78.9326 62.8957C78.2179 62.8957 77.6595 62.5718 77.4027 62.0023L77.8382 61.7342C78.0504 62.1921 78.3966 62.4043 78.888 62.4043C79.5245 62.4043 79.9042 62.0581 79.9042 61.4885C79.9042 60.986 79.5804 60.651 79.1002 60.651C78.9103 60.651 78.7428 60.6956 78.6088 60.785L78.3072 60.4723L79.6027 59.1098H77.5813V58.5961H80.351V58.9981L79.156 60.2377H79.2342ZM80.7642 58.5961H83.8242V58.9981C82.8637 59.8804 82.2495 61.3099 82.2495 62.8398H81.6688C81.6688 61.3434 82.35 59.9139 83.1764 59.1098H80.7642V58.5961Z" fill="#738392"/>
<mask id="mask0_2_12882" style="mask-type:alpha" maskUnits="userSpaceOnUse" x="25" y="50" width="11" height="10">
<rect x="35.75" y="59.9941" width="9.80216" height="9.80216" transform="rotate(-180 35.75 59.9941)" fill="#D9D9D9"/>
</mask>
<g mask="url(#mask0_2_12882)">
<path d="M32.1155 53.2546L30.0325 55.3376L30.0325 54.4186L29.2157 54.4186L29.2157 56.7262L31.5233 56.7262L31.5233 55.9094L30.6145 55.9094L32.6873 53.8366L32.1155 53.2546ZM30.8494 51.0083C31.4143 51.0083 31.9453 51.1155 32.4422 51.3299C32.9391 51.5443 33.3714 51.8353 33.739 52.2029C34.1065 52.5705 34.3975 53.0028 34.612 53.4997C34.8264 53.9966 34.9336 54.5275 34.9336 55.0925C34.9336 55.6575 34.8264 56.1885 34.612 56.6854C34.3975 57.1823 34.1065 57.6145 33.739 57.9821C33.3714 58.3497 32.9391 58.6407 32.4422 58.8551C31.9453 59.0695 31.4143 59.1768 30.8494 59.1768C30.2844 59.1768 29.7534 59.0695 29.2565 58.8551C28.7596 58.6407 28.3273 58.3497 27.9598 57.9821C27.5922 57.6145 27.3012 57.1823 27.0868 56.6854C26.8723 56.1885 26.7651 55.6575 26.7651 55.0925C26.7651 54.5275 26.8723 53.9966 27.0868 53.4997C27.3012 53.0028 27.5922 52.5705 27.9598 52.2029C28.3273 51.8353 28.7596 51.5443 29.2565 51.3299C29.7534 51.1155 30.2844 51.0083 30.8494 51.0083Z" fill="#17B573"/>
</g>
<path d="M178.744 54.2459V54.9638H177.165V56.5576H176.418V54.9638H174.839V54.2459H176.418V52.6521H177.165V54.2459H178.744ZM180.898 57.333V53.4849H179.62V52.81H179.85C180.798 52.81 181.056 52.609 181.128 51.8767H181.76V57.333H180.898ZM186.512 56.5576H189.169V57.333H185.263V56.773L187.159 55.0787C187.891 54.4182 188.164 53.9444 188.164 53.4562C188.164 52.9106 187.776 52.5372 187.216 52.5372C186.555 52.5372 186.125 52.9536 186.082 53.7434L185.278 53.5854C185.364 52.4798 186.139 51.8049 187.259 51.8049C188.322 51.8049 189.039 52.4511 189.039 53.3844C189.039 54.1454 188.566 54.7628 187.517 55.6818L186.512 56.5576ZM191.997 57.4048C190.662 57.4048 189.815 56.3135 189.815 54.6049C189.815 52.8962 190.662 51.8049 191.997 51.8049C193.333 51.8049 194.18 52.8962 194.18 54.6049C194.18 56.3135 193.333 57.4048 191.997 57.4048ZM191.997 56.6582C192.801 56.6582 193.304 55.8684 193.304 54.6049C193.304 53.3413 192.801 52.5516 191.997 52.5516C191.193 52.5516 190.691 53.3413 190.691 54.6049C190.691 55.8684 191.193 56.6582 191.997 56.6582ZM197.166 57.4048C195.831 57.4048 194.984 56.3135 194.984 54.6049C194.984 52.8962 195.831 51.8049 197.166 51.8049C198.502 51.8049 199.349 52.8962 199.349 54.6049C199.349 56.3135 198.502 57.4048 197.166 57.4048ZM197.166 56.6582C197.971 56.6582 198.473 55.8684 198.473 54.6049C198.473 53.3413 197.971 52.5516 197.166 52.5516C196.362 52.5516 195.86 53.3413 195.86 54.6049C195.86 55.8684 196.362 56.6582 197.166 56.6582ZM200.196 57.333V56.213H201.316V57.333H200.196ZM204.346 57.4048C203.01 57.4048 202.163 56.3135 202.163 54.6049C202.163 52.8962 203.01 51.8049 204.346 51.8049C205.681 51.8049 206.528 52.8962 206.528 54.6049C206.528 56.3135 205.681 57.4048 204.346 57.4048ZM204.346 56.6582C205.15 56.6582 205.652 55.8684 205.652 54.6049C205.652 53.3413 205.15 52.5516 204.346 52.5516C203.542 52.5516 203.039 53.3413 203.039 54.6049C203.039 55.8684 203.542 56.6582 204.346 56.6582ZM209.515 57.4048C208.18 57.4048 207.332 56.3135 207.332 54.6049C207.332 52.8962 208.18 51.8049 209.515 51.8049C210.85 51.8049 211.697 52.8962 211.697 54.6049C211.697 56.3135 210.85 57.4048 209.515 57.4048ZM209.515 56.6582C210.319 56.6582 210.822 55.8684 210.822 54.6049C210.822 53.3413 210.319 52.5516 209.515 52.5516C208.711 52.5516 208.208 53.3413 208.208 54.6049C208.208 55.8684 208.711 56.6582 209.515 56.6582Z" fill="#17B573"/>
<path d="M46.6396 78.1588V83.0088H45.8355V78.899H43.4105V83.0088H42.6064V78.1588H46.6396ZM49.6262 83.0726C48.452 83.0726 47.6862 82.294 47.6862 81.0943C47.6862 79.9201 48.4775 79.116 49.6262 79.116C50.8004 79.116 51.5662 79.8946 51.5662 81.0943C51.5662 82.2685 50.7749 83.0726 49.6262 83.0726ZM49.6262 82.4217C50.3282 82.4217 50.7876 81.8984 50.7876 81.0943C50.7876 80.2902 50.3282 79.7669 49.6262 79.7669C48.9242 79.7669 48.4647 80.2902 48.4647 81.0943C48.4647 81.8984 48.9242 82.4217 49.6262 82.4217ZM55.0888 83.0088L53.7998 81.2347L53.2509 81.758V83.0088H52.4851V79.1798H53.2509V80.8901L54.974 79.1798H55.944L54.3486 80.7114L56.0206 83.0088H55.0888ZM58.6625 79.116C59.6708 79.116 60.3345 79.8946 60.3345 81.0943C60.3345 82.2685 59.6453 83.0726 58.6625 83.0726C58.1393 83.0726 57.6925 82.8684 57.399 82.4983V84.2851H56.6332V79.1798H57.2969L57.3479 79.7797C57.6543 79.3585 58.1137 79.116 58.6625 79.116ZM58.4583 82.4217C59.1348 82.4217 59.556 81.8984 59.556 81.0943C59.556 80.2902 59.1348 79.7669 58.4583 79.7669C57.7819 79.7669 57.3479 80.2902 57.3479 81.0943C57.3479 81.8984 57.7819 82.4217 58.4583 82.4217ZM63.8699 79.1798H64.6613V83.0088H63.9082V80.2264L62.0448 83.0088H61.2535V79.1798H62.0065V81.9367L63.8699 79.1798ZM68.9114 79.1798V79.8563H67.533V83.0088H66.7672V79.8563H65.3888V79.1798H68.9114ZM72.6893 79.1798V79.8563H71.3109V83.0088H70.5451V79.8563H69.1667V79.1798H72.6893ZM76.212 79.1798V83.0088H75.4462V81.5665H74.6038L73.6721 83.0088H72.817L73.838 81.4644C73.353 81.2858 73.0722 80.9156 73.0722 80.4051C73.0722 79.6648 73.621 79.1798 74.4889 79.1798H76.212ZM74.5655 80.9922H75.4462V79.818H74.5655C74.1061 79.818 73.838 80.035 73.838 80.3923C73.838 80.7752 74.1061 80.9922 74.5655 80.9922ZM81.5853 81.0305C82.0193 81.1709 82.249 81.49 82.249 81.9239C82.249 82.6004 81.5981 83.0726 80.6281 83.0726C79.8367 83.0726 79.2369 82.6897 78.9816 82.0515L79.6198 81.7708C79.824 82.2047 80.1813 82.4344 80.6408 82.4344C81.1514 82.4344 81.4704 82.2302 81.4704 81.8856C81.4704 81.5665 81.1896 81.3623 80.7174 81.3623H80.2324V80.7625H80.6919C81.1003 80.7625 81.33 80.571 81.33 80.2647C81.33 79.9329 81.0748 79.7414 80.6536 79.7414C80.2196 79.7414 79.9006 79.9584 79.7346 80.354L79.1092 80.0222C79.3773 79.4606 79.9516 79.116 80.6791 79.116C81.5215 79.116 82.0703 79.55 82.0831 80.2264C82.0831 80.5965 81.9171 80.8646 81.5853 81.0305ZM86.1418 82.3451H86.2822V83.0088C86.2439 83.0216 86.1418 83.0343 86.0141 83.0343C85.5419 83.0343 85.3249 82.8684 85.2739 82.4217C85.0058 82.8173 84.4953 83.0726 83.9337 83.0726C83.1807 83.0726 82.6829 82.6131 82.6829 81.9494C82.6829 81.005 83.5891 80.8008 84.3294 80.6859C84.9037 80.6093 85.1845 80.5582 85.1845 80.2647C85.1845 79.9584 84.8655 79.7542 84.3805 79.7542C83.9465 79.7542 83.5381 79.9456 83.2318 80.2647L82.7595 79.7669C83.2062 79.3457 83.7551 79.116 84.4187 79.116C85.3377 79.116 85.8993 79.5882 85.8993 80.3796V82.1026C85.8993 82.2685 85.9759 82.3451 86.1418 82.3451ZM84.0614 82.4472C84.6485 82.4472 85.159 82.0388 85.159 81.5538V81.056C85.0186 81.1454 84.7889 81.1836 84.4187 81.2475C83.9337 81.324 83.436 81.4006 83.436 81.8984C83.436 82.2558 83.6657 82.4472 84.0614 82.4472ZM92.5744 79.1798V83.0088H91.8086V79.8563H89.9452V83.0088H89.1794V79.1798H92.5744ZM95.8035 79.116C96.8118 79.116 97.4755 79.8946 97.4755 81.0943C97.4755 82.2685 96.7863 83.0726 95.8035 83.0726C95.2802 83.0726 94.8335 82.8684 94.54 82.4983V84.2851H93.7742V79.1798H94.4379L94.4889 79.7797C94.7952 79.3585 95.2547 79.116 95.8035 79.116ZM95.5993 82.4217C96.2758 82.4217 96.697 81.8984 96.697 81.0943C96.697 80.2902 96.2758 79.7669 95.5993 79.7669C94.9229 79.7669 94.4889 80.2902 94.4889 81.0943C94.4889 81.8984 94.9229 82.4217 95.5993 82.4217ZM100.054 83.0726C98.8795 83.0726 98.1137 82.294 98.1137 81.0943C98.1137 79.9201 98.905 79.116 100.054 79.116C101.228 79.116 101.994 79.8946 101.994 81.0943C101.994 82.2685 101.202 83.0726 100.054 83.0726ZM100.054 82.4217C100.756 82.4217 101.215 81.8984 101.215 81.0943C101.215 80.2902 100.756 79.7669 100.054 79.7669C99.3517 79.7669 98.8922 80.2902 98.8922 81.0943C98.8922 81.8984 99.3517 82.4217 100.054 82.4217ZM105.44 81.0433C105.861 81.1964 106.091 81.5027 106.091 81.9622C106.091 82.6514 105.593 83.0088 104.763 83.0088H102.913V79.1798H104.623C105.465 79.1798 105.989 79.4861 105.989 80.1754C105.989 80.5965 105.784 80.8901 105.44 81.0433ZM103.653 79.7925V80.7625H104.623C105.057 80.7625 105.236 80.6221 105.236 80.2647C105.236 79.9584 105.019 79.7925 104.661 79.7925H103.653ZM104.687 82.3962C105.095 82.3962 105.325 82.2047 105.325 81.8729C105.325 81.541 105.07 81.3368 104.636 81.3368H103.653V82.3962H104.687ZM107.495 81.3368C107.584 82.0005 108.005 82.4217 108.682 82.4217C109.243 82.4217 109.601 82.2047 109.818 81.9239L110.341 82.3834C110.022 82.7663 109.486 83.0726 108.682 83.0726C107.418 83.0726 106.729 82.2302 106.729 81.0943C106.729 79.9201 107.495 79.116 108.618 79.116C109.741 79.116 110.468 79.8946 110.468 81.0943C110.468 81.1836 110.468 81.2475 110.443 81.3368H107.495ZM108.618 79.7542C108.018 79.7542 107.622 80.1371 107.507 80.7497H109.69C109.588 80.1243 109.192 79.7542 108.618 79.7542ZM114.578 82.3323H115.089V83.9022H114.361V83.0088H111.604V83.9022H110.877V82.3323H111.324C111.4 82.026 111.438 81.5283 111.438 80.7752V79.1798H114.578V82.3323ZM112.064 82.3323H113.825V79.8563H112.179V80.8135C112.179 81.4261 112.14 81.9494 112.064 82.3323ZM116.314 81.3368C116.403 82.0005 116.825 82.4217 117.501 82.4217C118.063 82.4217 118.42 82.2047 118.637 81.9239L119.16 82.3834C118.841 82.7663 118.305 83.0726 117.501 83.0726C116.237 83.0726 115.548 82.2302 115.548 81.0943C115.548 79.9201 116.314 79.116 117.437 79.116C118.56 79.116 119.288 79.8946 119.288 81.0943C119.288 81.1836 119.288 81.2475 119.262 81.3368H116.314ZM117.437 79.7542C116.837 79.7542 116.442 80.1371 116.327 80.7497H118.509C118.407 80.1243 118.012 79.7542 117.437 79.7542ZM122.811 79.1798H123.576V83.0088H122.811V81.4006H120.947V83.0088H120.181V79.1798H120.947V80.7114H122.811V79.1798ZM124.802 78.6438V77.878H125.644V78.6438H124.802ZM124.84 83.0088V79.1798H125.606V83.0088H124.84ZM131.962 79.1798V79.8563H130.583V83.0088H129.818V79.8563H128.439V79.1798H131.962ZM134.719 79.116C135.727 79.116 136.391 79.8946 136.391 81.0943C136.391 82.2685 135.701 83.0726 134.719 83.0726C134.195 83.0726 133.749 82.8684 133.455 82.4983V84.2851H132.689V79.1798H133.353L133.404 79.7797C133.71 79.3585 134.17 79.116 134.719 79.116ZM134.514 82.4217C135.191 82.4217 135.612 81.8984 135.612 81.0943C135.612 80.2902 135.191 79.7669 134.514 79.7669C133.838 79.7669 133.404 80.2902 133.404 81.0943C133.404 81.8984 133.838 82.4217 134.514 82.4217ZM140.347 82.3451H140.488V83.0088C140.449 83.0216 140.347 83.0343 140.22 83.0343C139.747 83.0343 139.53 82.8684 139.479 82.4217C139.211 82.8173 138.701 83.0726 138.139 83.0726C137.386 83.0726 136.888 82.6131 136.888 81.9494C136.888 81.005 137.795 80.8008 138.535 80.6859C139.109 80.6093 139.39 80.5582 139.39 80.2647C139.39 79.9584 139.071 79.7542 138.586 79.7542C138.152 79.7542 137.744 79.9456 137.437 80.2647L136.965 79.7669C137.412 79.3457 137.96 79.116 138.624 79.116C139.543 79.116 140.105 79.5882 140.105 80.3796V82.1026C140.105 82.2685 140.181 82.3451 140.347 82.3451ZM138.267 82.4472C138.854 82.4472 139.364 82.0388 139.364 81.5538V81.056C139.224 81.1454 138.994 81.1836 138.624 81.2475C138.139 81.324 137.641 81.4006 137.641 81.8984C137.641 82.2558 137.871 82.4472 138.267 82.4472ZM143.972 79.1798H144.738V83.0088H143.972V81.4006H142.109V83.0088H141.343V79.1798H142.109V80.7114H143.972V79.1798ZM145.861 83.0088V82.0133H146.856V83.0088H145.861ZM147.903 83.0088V82.0133H148.899V83.0088H147.903ZM149.945 83.0088V82.0133H150.941V83.0088H149.945Z" fill="#1C1B20"/>
<path d="M43.9271 94.0646C42.9108 94.0646 42.2519 93.2047 42.2519 91.8869C42.2519 90.5691 42.9108 89.7092 43.9271 89.7092C44.9434 89.7092 45.6023 90.5691 45.6023 91.8869C45.6023 93.2047 44.9434 94.0646 43.9271 94.0646ZM43.9271 93.5621C44.5972 93.5621 45.0327 92.9032 45.0327 91.8869C45.0327 90.8706 44.5972 90.2117 43.9271 90.2117C43.257 90.2117 42.8215 90.8706 42.8215 91.8869C42.8215 92.9032 43.257 93.5621 43.9271 93.5621ZM48.0034 91.3062C48.8074 91.3062 49.4328 91.8087 49.4328 92.6463C49.4328 93.4839 48.7181 94.0646 47.914 94.0646C46.7302 94.0646 46.2724 93.026 46.2724 91.9427C46.2724 90.8036 46.7637 89.7092 48.0145 89.7092C48.5171 89.7092 49.0085 89.899 49.3212 90.3011L48.9415 90.6584C48.7181 90.3457 48.3942 90.1894 48.0145 90.1894C47.0653 90.1894 46.7749 91.0828 46.7861 91.8869V91.9539C47.0318 91.5407 47.4785 91.3062 48.0034 91.3062ZM47.914 93.5844C48.4389 93.5844 48.8968 93.227 48.8968 92.6798C48.8968 92.1214 48.4836 91.7752 47.9475 91.7752C47.4115 91.7752 46.9648 92.1214 46.9648 92.6575C46.9648 93.2159 47.3556 93.5844 47.914 93.5844ZM49.9131 94.0088V93.227H50.6948V94.0088H49.9131ZM52.102 94.0088V90.9153H51.0969V90.4798H51.2644C52.0126 90.4798 52.2136 90.3234 52.2695 89.765H52.6603V94.0088H52.102ZM55.4523 94.0646C54.436 94.0646 53.7771 93.2047 53.7771 91.8869C53.7771 90.5691 54.436 89.7092 55.4523 89.7092C56.4686 89.7092 57.1275 90.5691 57.1275 91.8869C57.1275 93.2047 56.4686 94.0646 55.4523 94.0646ZM55.4523 93.5621C56.1224 93.5621 56.5579 92.9032 56.5579 91.8869C56.5579 90.8706 56.1224 90.2117 55.4523 90.2117C54.7822 90.2117 54.3467 90.8706 54.3467 91.8869C54.3467 92.9032 54.7822 93.5621 55.4523 93.5621ZM57.7975 94.0088V93.227H58.5793V94.0088H57.7975ZM60.0311 93.4839H62.1642V94.0088H59.1935V93.6514L60.6565 92.3113C61.2372 91.7752 61.4829 91.3844 61.4829 90.9711C61.4829 90.5133 61.1591 90.2006 60.69 90.2006C60.1316 90.2006 59.7743 90.5468 59.7296 91.1722L59.2047 91.0605C59.2829 90.2229 59.8748 89.7092 60.7123 89.7092C61.5053 89.7092 62.0525 90.2117 62.0525 90.9376C62.0525 91.4849 61.6951 91.9874 60.9134 92.691L60.0311 93.4839ZM64.2749 91.4067C64.9896 91.4067 65.5145 91.9316 65.5145 92.6575C65.5145 93.4616 64.8556 94.0646 63.9734 94.0646C63.2586 94.0646 62.7002 93.7408 62.4434 93.1712L62.8789 92.9032C63.0911 93.3611 63.4373 93.5732 63.9287 93.5732C64.5652 93.5732 64.945 93.227 64.945 92.6575C64.945 92.1549 64.6211 91.8199 64.1409 91.8199C63.951 91.8199 63.7835 91.8646 63.6495 91.9539L63.348 91.6412L64.6434 90.2787H62.622V89.765H65.3917V90.1671L64.1967 91.4067H64.2749ZM67.9714 92.3895V91.8311H69.87V92.3895H67.9714ZM73.7117 89.7092C74.8955 89.7092 75.3534 90.7478 75.3534 91.8311C75.3534 92.9702 74.862 94.0646 73.6112 94.0646C73.1086 94.0646 72.6172 93.8748 72.3045 93.4727L72.6843 93.1154C72.9076 93.4281 73.2315 93.5844 73.6112 93.5844C74.5604 93.5844 74.8508 92.691 74.8396 91.8869V91.8199C74.594 92.2331 74.1472 92.4676 73.6224 92.4676C72.8183 92.4676 72.1929 91.9651 72.1929 91.1275C72.1929 90.2899 72.9076 89.7092 73.7117 89.7092ZM73.6782 91.9986C74.2142 91.9986 74.661 91.6524 74.661 91.1163C74.661 90.5579 74.2701 90.1894 73.7117 90.1894C73.1868 90.1894 72.7289 90.5468 72.7289 91.094C72.7289 91.6524 73.1421 91.9986 73.6782 91.9986ZM76.1351 91.4402V90.6584H76.9169V91.4402H76.1351ZM76.1351 94.0088V93.227H76.9169V94.0088H76.1351ZM79.2509 91.4067C79.9657 91.4067 80.4906 91.9316 80.4906 92.6575C80.4906 93.4616 79.8317 94.0646 78.9494 94.0646C78.2347 94.0646 77.6763 93.7408 77.4194 93.1712L77.855 92.9032C78.0671 93.3611 78.4133 93.5732 78.9047 93.5732C79.5413 93.5732 79.921 93.227 79.921 92.6575C79.921 92.1549 79.5971 91.8199 79.1169 91.8199C78.9271 91.8199 78.7595 91.8646 78.6255 91.9539L78.324 91.6412L79.6195 90.2787H77.5981V89.765H80.3677V90.1671L79.1728 91.4067H79.2509ZM80.7809 89.765H83.8409V90.1671C82.8805 91.0493 82.2662 92.4788 82.2662 94.0088H81.6855C81.6855 92.5123 82.3668 91.0828 83.1932 90.2787H80.7809V89.765Z" fill="#738392"/>
<mask id="mask1_2_12882" style="mask-type:alpha" maskUnits="userSpaceOnUse" x="25" y="81" width="11" height="11">
<rect x="25.9492" y="81.3604" width="9.80216" height="9.80216" fill="#D9D9D9"/>
</mask>
<g mask="url(#mask1_2_12882)">
<path d="M29.5837 88.0999L31.6667 86.0169L31.6667 86.9359L32.4836 86.9359L32.4836 84.6283L30.176 84.6283L30.176 85.4451L31.0847 85.4451L29.012 87.5179L29.5837 88.0999ZM30.8499 90.3462C30.2849 90.3462 29.7539 90.239 29.257 90.0246C28.7601 89.8101 28.3278 89.5191 27.9603 89.1516C27.5927 88.784 27.3017 88.3517 27.0873 87.8548C26.8728 87.3579 26.7656 86.827 26.7656 86.262C26.7656 85.697 26.8728 85.166 27.0873 84.6691C27.3017 84.1722 27.5927 83.74 27.9603 83.3724C28.3278 83.0048 28.7601 82.7138 29.257 82.4994C29.7539 82.2849 30.2849 82.1777 30.8499 82.1777C31.4148 82.1777 31.9458 82.2849 32.4427 82.4994C32.9396 82.7138 33.3719 83.0048 33.7395 83.3724C34.107 83.74 34.398 84.1722 34.6125 84.6691C34.8269 85.166 34.9341 85.697 34.9341 86.262C34.9341 86.827 34.8269 87.3579 34.6125 87.8548C34.398 88.3517 34.107 88.784 33.7395 89.1516C33.3719 89.5191 32.9396 89.8101 32.4427 90.0246C31.9458 90.239 31.4148 90.3462 30.8499 90.3462Z" fill="#738392" fill-opacity="0.7"/>
</g>
<path d="M175.936 86.4764V85.6436H178.435V86.4764H175.936ZM181.278 84.8539C182.34 84.8539 183.13 85.6293 183.13 86.6918C183.13 87.7974 182.283 88.5728 181.062 88.5728C180.201 88.5728 179.511 88.1851 179.181 87.5677L179.756 87.1082C180 87.5389 180.488 87.8405 181.048 87.8405C181.78 87.8405 182.268 87.381 182.268 86.6918C182.268 86.0026 181.809 85.5431 181.12 85.5431C180.674 85.5431 180.301 85.7298 180.071 86.1031L179.425 85.8877L179.669 83.0447H182.728V83.8344H180.344L180.229 85.1985C180.502 84.9688 180.847 84.8539 181.278 84.8539ZM190.395 86.419V87.1513H189.519V88.501H188.687V87.1513H186.002V86.4621L188.486 83.0447H189.519V86.419H190.395ZM186.892 86.419H188.687V83.9493L186.892 86.419ZM193.913 85.7154C194.531 85.9595 194.89 86.4333 194.89 87.0508C194.89 87.9697 194.1 88.5728 192.879 88.5728C191.644 88.5728 190.869 87.9697 190.869 87.0508C190.869 86.4333 191.228 85.9595 191.831 85.7154C191.329 85.4857 191.027 85.0405 191.027 84.4949C191.027 83.576 191.745 82.9729 192.879 82.9729C194.014 82.9729 194.732 83.576 194.732 84.4949C194.732 85.0405 194.43 85.4857 193.913 85.7154ZM192.879 83.6478C192.233 83.6478 191.831 83.9924 191.831 84.538C191.831 85.0836 192.233 85.4282 192.879 85.4282C193.511 85.4282 193.913 85.0836 193.913 84.538C193.913 83.9924 193.511 83.6478 192.879 83.6478ZM192.879 87.8979C193.583 87.8979 194.042 87.5389 194.042 86.979C194.042 86.4333 193.583 86.0887 192.879 86.0887C192.161 86.0887 191.702 86.4333 191.702 86.979C191.702 87.5389 192.161 87.8979 192.879 87.8979ZM197.718 85.1554C198.666 85.1554 199.341 85.8159 199.341 86.7636C199.341 87.7974 198.494 88.5728 197.331 88.5728C196.383 88.5728 195.651 88.142 195.32 87.381L195.981 86.9933C196.239 87.5533 196.684 87.8405 197.287 87.8405C198.034 87.8405 198.494 87.4241 198.494 86.7636C198.494 86.1605 198.092 85.7585 197.503 85.7585C197.273 85.7585 197.072 85.8159 196.914 85.9164L196.483 85.4569L198.077 83.8201H195.564V83.0447H199.168V83.6765L197.718 85.1554ZM200.145 88.501V87.381H201.265V88.501H200.145ZM204.294 88.5728C202.959 88.5728 202.112 87.4815 202.112 85.7728C202.112 84.0642 202.959 82.9729 204.294 82.9729C205.63 82.9729 206.477 84.0642 206.477 85.7728C206.477 87.4815 205.63 88.5728 204.294 88.5728ZM204.294 87.8261C205.099 87.8261 205.601 87.0364 205.601 85.7728C205.601 84.5093 205.099 83.7196 204.294 83.7196C203.49 83.7196 202.988 84.5093 202.988 85.7728C202.988 87.0364 203.49 87.8261 204.294 87.8261ZM209.464 88.5728C208.128 88.5728 207.281 87.4815 207.281 85.7728C207.281 84.0642 208.128 82.9729 209.464 82.9729C210.799 82.9729 211.646 84.0642 211.646 85.7728C211.646 87.4815 210.799 88.5728 209.464 88.5728ZM209.464 87.8261C210.268 87.8261 210.77 87.0364 210.77 85.7728C210.77 84.5093 210.268 83.7196 209.464 83.7196C208.659 83.7196 208.157 84.5093 208.157 85.7728C208.157 87.0364 208.659 87.8261 209.464 87.8261Z" fill="#1C1B20"/>
<path d="M46.6396 109.327V114.177H45.8355V110.067H43.4105V114.177H42.6064V109.327H46.6396ZM49.6262 114.241C48.452 114.241 47.6862 113.462 47.6862 112.262C47.6862 111.088 48.4775 110.284 49.6262 110.284C50.8004 110.284 51.5662 111.063 51.5662 112.262C51.5662 113.436 50.7749 114.241 49.6262 114.241ZM49.6262 113.59C50.3282 113.59 50.7876 113.066 50.7876 112.262C50.7876 111.458 50.3282 110.935 49.6262 110.935C48.9242 110.935 48.4647 111.458 48.4647 112.262C48.4647 113.066 48.9242 113.59 49.6262 113.59ZM55.0888 114.177L53.7998 112.403L53.2509 112.926V114.177H52.4851V110.348H53.2509V112.058L54.974 110.348H55.944L54.3486 111.879L56.0206 114.177H55.0888ZM58.6625 110.284C59.6708 110.284 60.3345 111.063 60.3345 112.262C60.3345 113.436 59.6453 114.241 58.6625 114.241C58.1393 114.241 57.6925 114.036 57.399 113.666V115.453H56.6332V110.348H57.2969L57.3479 110.948C57.6543 110.526 58.1137 110.284 58.6625 110.284ZM58.4583 113.59C59.1348 113.59 59.556 113.066 59.556 112.262C59.556 111.458 59.1348 110.935 58.4583 110.935C57.7819 110.935 57.3479 111.458 57.3479 112.262C57.3479 113.066 57.7819 113.59 58.4583 113.59ZM63.8699 110.348H64.6613V114.177H63.9082V111.394L62.0448 114.177H61.2535V110.348H62.0065V113.105L63.8699 110.348ZM68.9114 110.348V111.024H67.533V114.177H66.7672V111.024H65.3888V110.348H68.9114ZM72.6893 110.348V111.024H71.3109V114.177H70.5451V111.024H69.1667V110.348H72.6893ZM76.212 110.348V114.177H75.4462V112.735H74.6038L73.6721 114.177H72.817L73.838 112.632C73.353 112.454 73.0722 112.084 73.0722 111.573C73.0722 110.833 73.621 110.348 74.4889 110.348H76.212ZM74.5655 112.16H75.4462V110.986H74.5655C74.1061 110.986 73.838 111.203 73.838 111.56C73.838 111.943 74.1061 112.16 74.5655 112.16ZM81.5853 112.198C82.0193 112.339 82.249 112.658 82.249 113.092C82.249 113.768 81.5981 114.241 80.6281 114.241C79.8367 114.241 79.2369 113.858 78.9816 113.22L79.6198 112.939C79.824 113.373 80.1813 113.602 80.6408 113.602C81.1514 113.602 81.4704 113.398 81.4704 113.054C81.4704 112.735 81.1896 112.53 80.7174 112.53H80.2324V111.93H80.6919C81.1003 111.93 81.33 111.739 81.33 111.433C81.33 111.101 81.0748 110.909 80.6536 110.909C80.2196 110.909 79.9006 111.126 79.7346 111.522L79.1092 111.19C79.3773 110.629 79.9516 110.284 80.6791 110.284C81.5215 110.284 82.0703 110.718 82.0831 111.394C82.0831 111.765 81.9171 112.033 81.5853 112.198ZM86.1418 113.513H86.2822V114.177C86.2439 114.19 86.1418 114.202 86.0141 114.202C85.5419 114.202 85.3249 114.036 85.2739 113.59C85.0058 113.985 84.4953 114.241 83.9337 114.241C83.1807 114.241 82.6829 113.781 82.6829 113.117C82.6829 112.173 83.5891 111.969 84.3294 111.854C84.9037 111.777 85.1845 111.726 85.1845 111.433C85.1845 111.126 84.8655 110.922 84.3805 110.922C83.9465 110.922 83.5381 111.114 83.2318 111.433L82.7595 110.935C83.2062 110.514 83.7551 110.284 84.4187 110.284C85.3377 110.284 85.8993 110.756 85.8993 111.548V113.271C85.8993 113.436 85.9759 113.513 86.1418 113.513ZM84.0614 113.615C84.6485 113.615 85.159 113.207 85.159 112.722V112.224C85.0186 112.313 84.7889 112.352 84.4187 112.415C83.9337 112.492 83.436 112.569 83.436 113.066C83.436 113.424 83.6657 113.615 84.0614 113.615ZM92.5744 110.348V114.177H91.8086V111.024H89.9452V114.177H89.1794V110.348H92.5744ZM95.8035 110.284C96.8118 110.284 97.4755 111.063 97.4755 112.262C97.4755 113.436 96.7863 114.241 95.8035 114.241C95.2802 114.241 94.8335 114.036 94.54 113.666V115.453H93.7742V110.348H94.4379L94.4889 110.948C94.7952 110.526 95.2547 110.284 95.8035 110.284ZM95.5993 113.59C96.2758 113.59 96.697 113.066 96.697 112.262C96.697 111.458 96.2758 110.935 95.5993 110.935C94.9229 110.935 94.4889 111.458 94.4889 112.262C94.4889 113.066 94.9229 113.59 95.5993 113.59ZM100.054 114.241C98.8795 114.241 98.1137 113.462 98.1137 112.262C98.1137 111.088 98.905 110.284 100.054 110.284C101.228 110.284 101.994 111.063 101.994 112.262C101.994 113.436 101.202 114.241 100.054 114.241ZM100.054 113.59C100.756 113.59 101.215 113.066 101.215 112.262C101.215 111.458 100.756 110.935 100.054 110.935C99.3517 110.935 98.8922 111.458 98.8922 112.262C98.8922 113.066 99.3517 113.59 100.054 113.59ZM105.44 112.211C105.861 112.364 106.091 112.671 106.091 113.13C106.091 113.819 105.593 114.177 104.763 114.177H102.913V110.348H104.623C105.465 110.348 105.989 110.654 105.989 111.343C105.989 111.765 105.784 112.058 105.44 112.211ZM103.653 110.96V111.93H104.623C105.057 111.93 105.236 111.79 105.236 111.433C105.236 111.126 105.019 110.96 104.661 110.96H103.653ZM104.687 113.564C105.095 113.564 105.325 113.373 105.325 113.041C105.325 112.709 105.07 112.505 104.636 112.505H103.653V113.564H104.687ZM107.495 112.505C107.584 113.168 108.005 113.59 108.682 113.59C109.243 113.59 109.601 113.373 109.818 113.092L110.341 113.551C110.022 113.934 109.486 114.241 108.682 114.241C107.418 114.241 106.729 113.398 106.729 112.262C106.729 111.088 107.495 110.284 108.618 110.284C109.741 110.284 110.468 111.063 110.468 112.262C110.468 112.352 110.468 112.415 110.443 112.505H107.495ZM108.618 110.922C108.018 110.922 107.622 111.305 107.507 111.918H109.69C109.588 111.292 109.192 110.922 108.618 110.922ZM114.578 113.5H115.089V115.07H114.361V114.177H111.604V115.07H110.877V113.5H111.324C111.4 113.194 111.438 112.696 111.438 111.943V110.348H114.578V113.5ZM112.064 113.5H113.825V111.024H112.179V111.981C112.179 112.594 112.14 113.117 112.064 113.5ZM116.314 112.505C116.403 113.168 116.825 113.59 117.501 113.59C118.063 113.59 118.42 113.373 118.637 113.092L119.16 113.551C118.841 113.934 118.305 114.241 117.501 114.241C116.237 114.241 115.548 113.398 115.548 112.262C115.548 111.088 116.314 110.284 117.437 110.284C118.56 110.284 119.288 111.063 119.288 112.262C119.288 112.352 119.288 112.415 119.262 112.505H116.314ZM117.437 110.922C116.837 110.922 116.442 111.305 116.327 111.918H118.509C118.407 111.292 118.012 110.922 117.437 110.922ZM122.811 110.348H123.576V114.177H122.811V112.569H120.947V114.177H120.181V110.348H120.947V111.879H122.811V110.348ZM124.802 109.812V109.046H125.644V109.812H124.802ZM124.84 114.177V110.348H125.606V114.177H124.84ZM131.962 110.348V111.024H130.583V114.177H129.818V111.024H128.439V110.348H131.962ZM134.719 110.284C135.727 110.284 136.391 111.063 136.391 112.262C136.391 113.436 135.701 114.241 134.719 114.241C134.195 114.241 133.749 114.036 133.455 113.666V115.453H132.689V110.348H133.353L133.404 110.948C133.71 110.526 134.17 110.284 134.719 110.284ZM134.514 113.59C135.191 113.59 135.612 113.066 135.612 112.262C135.612 111.458 135.191 110.935 134.514 110.935C133.838 110.935 133.404 111.458 133.404 112.262C133.404 113.066 133.838 113.59 134.514 113.59ZM140.347 113.513H140.488V114.177C140.449 114.19 140.347 114.202 140.22 114.202C139.747 114.202 139.53 114.036 139.479 113.59C139.211 113.985 138.701 114.241 138.139 114.241C137.386 114.241 136.888 113.781 136.888 113.117C136.888 112.173 137.795 111.969 138.535 111.854C139.109 111.777 139.39 111.726 139.39 111.433C139.39 111.126 139.071 110.922 138.586 110.922C138.152 110.922 137.744 111.114 137.437 111.433L136.965 110.935C137.412 110.514 137.96 110.284 138.624 110.284C139.543 110.284 140.105 110.756 140.105 111.548V113.271C140.105 113.436 140.181 113.513 140.347 113.513ZM138.267 113.615C138.854 113.615 139.364 113.207 139.364 112.722V112.224C139.224 112.313 138.994 112.352 138.624 112.415C138.139 112.492 137.641 112.569 137.641 113.066C137.641 113.424 137.871 113.615 138.267 113.615ZM143.972 110.348H144.738V114.177H143.972V112.569H142.109V114.177H141.343V110.348H142.109V111.879H143.972V110.348ZM145.861 114.177V113.181H146.856V114.177H145.861ZM147.903 114.177V113.181H148.899V114.177H147.903ZM149.945 114.177V113.181H150.941V114.177H149.945Z" fill="#1C1B20"/>
<path d="M43.9271 125.233C42.9108 125.233 42.2519 124.373 42.2519 123.055C42.2519 121.737 42.9108 120.877 43.9271 120.877C44.9434 120.877 45.6023 121.737 45.6023 123.055C45.6023 124.373 44.9434 125.233 43.9271 125.233ZM43.9271 124.73C44.5972 124.73 45.0327 124.071 45.0327 123.055C45.0327 122.039 44.5972 121.38 43.9271 121.38C43.257 121.38 42.8215 122.039 42.8215 123.055C42.8215 124.071 43.257 124.73 43.9271 124.73ZM48.0034 122.474C48.8074 122.474 49.4328 122.977 49.4328 123.814C49.4328 124.652 48.7181 125.233 47.914 125.233C46.7302 125.233 46.2724 124.194 46.2724 123.111C46.2724 121.972 46.7637 120.877 48.0145 120.877C48.5171 120.877 49.0085 121.067 49.3212 121.469L48.9415 121.826C48.7181 121.514 48.3942 121.357 48.0145 121.357C47.0653 121.357 46.7749 122.251 46.7861 123.055V123.122C47.0318 122.709 47.4785 122.474 48.0034 122.474ZM47.914 124.752C48.4389 124.752 48.8968 124.395 48.8968 123.848C48.8968 123.289 48.4836 122.943 47.9475 122.943C47.4115 122.943 46.9648 123.289 46.9648 123.825C46.9648 124.384 47.3556 124.752 47.914 124.752ZM49.9131 125.177V124.395H50.6948V125.177H49.9131ZM52.102 125.177V122.083H51.0969V121.648H51.2644C52.0126 121.648 52.2136 121.491 52.2695 120.933H52.6603V125.177H52.102ZM55.4523 125.233C54.436 125.233 53.7771 124.373 53.7771 123.055C53.7771 121.737 54.436 120.877 55.4523 120.877C56.4686 120.877 57.1275 121.737 57.1275 123.055C57.1275 124.373 56.4686 125.233 55.4523 125.233ZM55.4523 124.73C56.1224 124.73 56.5579 124.071 56.5579 123.055C56.5579 122.039 56.1224 121.38 55.4523 121.38C54.7822 121.38 54.3467 122.039 54.3467 123.055C54.3467 124.071 54.7822 124.73 55.4523 124.73ZM57.7975 125.177V124.395H58.5793V125.177H57.7975ZM60.0311 124.652H62.1642V125.177H59.1935V124.819L60.6565 123.479C61.2372 122.943 61.4829 122.552 61.4829 122.139C61.4829 121.681 61.1591 121.369 60.69 121.369C60.1316 121.369 59.7743 121.715 59.7296 122.34L59.2047 122.228C59.2829 121.391 59.8748 120.877 60.7123 120.877C61.5053 120.877 62.0525 121.38 62.0525 122.106C62.0525 122.653 61.6951 123.155 60.9134 123.859L60.0311 124.652ZM64.2749 122.575C64.9896 122.575 65.5145 123.1 65.5145 123.825C65.5145 124.63 64.8556 125.233 63.9734 125.233C63.2586 125.233 62.7002 124.909 62.4434 124.339L62.8789 124.071C63.0911 124.529 63.4373 124.741 63.9287 124.741C64.5652 124.741 64.945 124.395 64.945 123.825C64.945 123.323 64.6211 122.988 64.1409 122.988C63.951 122.988 63.7835 123.033 63.6495 123.122L63.348 122.809L64.6434 121.447H62.622V120.933H65.3917V121.335L64.1967 122.575H64.2749ZM67.9714 123.557V122.999H69.87V123.557H67.9714ZM73.7117 120.877C74.8955 120.877 75.3534 121.916 75.3534 122.999C75.3534 124.138 74.862 125.233 73.6112 125.233C73.1086 125.233 72.6172 125.043 72.3045 124.641L72.6843 124.283C72.9076 124.596 73.2315 124.752 73.6112 124.752C74.5604 124.752 74.8508 123.859 74.8396 123.055V122.988C74.594 123.401 74.1472 123.636 73.6224 123.636C72.8183 123.636 72.1929 123.133 72.1929 122.295C72.1929 121.458 72.9076 120.877 73.7117 120.877ZM73.6782 123.167C74.2142 123.167 74.661 122.82 74.661 122.284C74.661 121.726 74.2701 121.357 73.7117 121.357C73.1868 121.357 72.7289 121.715 72.7289 122.262C72.7289 122.82 73.1421 123.167 73.6782 123.167ZM76.1351 122.608V121.826H76.9169V122.608H76.1351ZM76.1351 125.177V124.395H76.9169V125.177H76.1351ZM79.2509 122.575C79.9657 122.575 80.4906 123.1 80.4906 123.825C80.4906 124.63 79.8317 125.233 78.9494 125.233C78.2347 125.233 77.6763 124.909 77.4194 124.339L77.855 124.071C78.0671 124.529 78.4133 124.741 78.9047 124.741C79.5413 124.741 79.921 124.395 79.921 123.825C79.921 123.323 79.5971 122.988 79.1169 122.988C78.9271 122.988 78.7595 123.033 78.6255 123.122L78.324 122.809L79.6195 121.447H77.5981V120.933H80.3677V121.335L79.1728 122.575H79.2509ZM80.7809 120.933H83.8409V121.335C82.8805 122.217 82.2662 123.647 82.2662 125.177H81.6855C81.6855 123.68 82.3668 122.251 83.1932 121.447H80.7809V120.933Z" fill="#738392"/>
<mask id="mask2_2_12882" style="mask-type:alpha" maskUnits="userSpaceOnUse" x="25" y="112" width="11" height="11">
<rect x="35.75" y="122.33" width="9.80216" height="9.80216" transform="rotate(-180 35.75 122.33)" fill="#D9D9D9"/>
</mask>
<g mask="url(#mask2_2_12882)">
<path d="M32.1155 115.592L30.0325 117.674L30.0325 116.756L29.2157 116.756L29.2157 119.063L31.5233 119.063L31.5233 118.246L30.6145 118.246L32.6873 116.174L32.1155 115.592ZM30.8494 113.345C31.4143 113.345 31.9453 113.452 32.4422 113.667C32.9391 113.881 33.3714 114.172 33.739 114.54C34.1065 114.907 34.3975 115.34 34.612 115.837C34.8264 116.334 34.9336 116.864 34.9336 117.429C34.9336 117.994 34.8264 118.525 34.612 119.022C34.3975 119.519 34.1065 119.951 33.739 120.319C33.3714 120.687 32.9391 120.978 32.4422 121.192C31.9453 121.406 31.4143 121.514 30.8494 121.514C30.2844 121.514 29.7534 121.406 29.2565 121.192C28.7596 120.978 28.3273 120.687 27.9598 120.319C27.5922 119.951 27.3012 119.519 27.0868 119.022C26.8723 118.525 26.7651 117.994 26.7651 117.429C26.7651 116.864 26.8723 116.334 27.0868 115.837C27.3012 115.34 27.5922 114.907 27.9598 114.54C28.3273 114.172 28.7596 113.881 29.2565 113.667C29.7534 113.452 30.2844 113.345 30.8494 113.345Z" fill="#17B573"/>
</g>
<path d="M185.28 116.582V117.3H183.7V118.894H182.953V117.3H181.374V116.582H182.953V114.988H183.7V116.582H185.28ZM186.026 114.213H189.975V114.859C188.797 115.95 188.051 117.745 188.051 119.669H187.16C187.16 117.845 187.979 116.051 189.013 115.002H186.026V114.213ZM192.473 116.18C193.521 116.18 194.311 116.826 194.311 117.903C194.311 118.994 193.406 119.741 192.33 119.741C190.822 119.741 190.176 118.463 190.176 117.013C190.176 115.491 190.865 114.141 192.444 114.141C193.119 114.141 193.765 114.385 194.153 114.902L193.579 115.433C193.32 115.06 192.918 114.873 192.459 114.873C191.324 114.873 190.951 115.907 190.966 116.926C191.281 116.453 191.813 116.18 192.473 116.18ZM192.33 119.023C192.961 119.023 193.478 118.592 193.478 117.946C193.478 117.271 193.004 116.855 192.358 116.855C191.712 116.855 191.195 117.271 191.195 117.917C191.195 118.592 191.655 119.023 192.33 119.023ZM197.111 119.741C195.776 119.741 194.929 118.649 194.929 116.941C194.929 115.232 195.776 114.141 197.111 114.141C198.446 114.141 199.294 115.232 199.294 116.941C199.294 118.649 198.446 119.741 197.111 119.741ZM197.111 118.994C197.915 118.994 198.418 118.204 198.418 116.941C198.418 115.677 197.915 114.888 197.111 114.888C196.307 114.888 195.804 115.677 195.804 116.941C195.804 118.204 196.307 118.994 197.111 118.994ZM200.141 119.669V118.549H201.261V119.669H200.141ZM204.29 119.741C202.955 119.741 202.108 118.649 202.108 116.941C202.108 115.232 202.955 114.141 204.29 114.141C205.626 114.141 206.473 115.232 206.473 116.941C206.473 118.649 205.626 119.741 204.29 119.741ZM204.29 118.994C205.094 118.994 205.597 118.204 205.597 116.941C205.597 115.677 205.094 114.888 204.29 114.888C203.486 114.888 202.984 115.677 202.984 116.941C202.984 118.204 203.486 118.994 204.29 118.994ZM209.459 119.741C208.124 119.741 207.277 118.649 207.277 116.941C207.277 115.232 208.124 114.141 209.459 114.141C210.795 114.141 211.642 115.232 211.642 116.941C211.642 118.649 210.795 119.741 209.459 119.741ZM209.459 118.994C210.264 118.994 210.766 118.204 210.766 116.941C210.766 115.677 210.264 114.888 209.459 114.888C208.655 114.888 208.153 115.677 208.153 116.941C208.153 118.204 208.655 118.994 209.459 118.994Z" fill="#17B573"/>
<path d="M46.6396 140.496V145.346H45.8355V141.236H43.4105V145.346H42.6064V140.496H46.6396ZM49.6262 145.41C48.452 145.41 47.6862 144.631 47.6862 143.431C47.6862 142.257 48.4775 141.453 49.6262 141.453C50.8004 141.453 51.5662 142.231 51.5662 143.431C51.5662 144.605 50.7749 145.41 49.6262 145.41ZM49.6262 144.759C50.3282 144.759 50.7876 144.235 50.7876 143.431C50.7876 142.627 50.3282 142.104 49.6262 142.104C48.9242 142.104 48.4647 142.627 48.4647 143.431C48.4647 144.235 48.9242 144.759 49.6262 144.759ZM55.0888 145.346L53.7998 143.572L53.2509 144.095V145.346H52.4851V141.517H53.2509V143.227L54.974 141.517H55.944L54.3486 143.048L56.0206 145.346H55.0888ZM58.6625 141.453C59.6708 141.453 60.3345 142.231 60.3345 143.431C60.3345 144.605 59.6453 145.41 58.6625 145.41C58.1393 145.41 57.6925 145.205 57.399 144.835V146.622H56.6332V141.517H57.2969L57.3479 142.117C57.6543 141.695 58.1137 141.453 58.6625 141.453ZM58.4583 144.759C59.1348 144.759 59.556 144.235 59.556 143.431C59.556 142.627 59.1348 142.104 58.4583 142.104C57.7819 142.104 57.3479 142.627 57.3479 143.431C57.3479 144.235 57.7819 144.759 58.4583 144.759ZM63.8699 141.517H64.6613V145.346H63.9082V142.563L62.0448 145.346H61.2535V141.517H62.0065V144.274L63.8699 141.517ZM68.9114 141.517V142.193H67.533V145.346H66.7672V142.193H65.3888V141.517H68.9114ZM72.6893 141.517V142.193H71.3109V145.346H70.5451V142.193H69.1667V141.517H72.6893ZM76.212 141.517V145.346H75.4462V143.903H74.6038L73.6721 145.346H72.817L73.838 143.801C73.353 143.623 73.0722 143.253 73.0722 142.742C73.0722 142.002 73.621 141.517 74.4889 141.517H76.212ZM74.5655 143.329H75.4462V142.155H74.5655C74.1061 142.155 73.838 142.372 73.838 142.729C73.838 143.112 74.1061 143.329 74.5655 143.329ZM81.5853 143.367C82.0193 143.508 82.249 143.827 82.249 144.261C82.249 144.937 81.5981 145.41 80.6281 145.41C79.8367 145.41 79.2369 145.027 78.9816 144.388L79.6198 144.108C79.824 144.542 80.1813 144.771 80.6408 144.771C81.1514 144.771 81.4704 144.567 81.4704 144.223C81.4704 143.903 81.1896 143.699 80.7174 143.699H80.2324V143.099H80.6919C81.1003 143.099 81.33 142.908 81.33 142.602C81.33 142.27 81.0748 142.078 80.6536 142.078C80.2196 142.078 79.9006 142.295 79.7346 142.691L79.1092 142.359C79.3773 141.798 79.9516 141.453 80.6791 141.453C81.5215 141.453 82.0703 141.887 82.0831 142.563C82.0831 142.933 81.9171 143.201 81.5853 143.367ZM86.1418 144.682H86.2822V145.346C86.2439 145.358 86.1418 145.371 86.0141 145.371C85.5419 145.371 85.3249 145.205 85.2739 144.759C85.0058 145.154 84.4953 145.41 83.9337 145.41C83.1807 145.41 82.6829 144.95 82.6829 144.286C82.6829 143.342 83.5891 143.138 84.3294 143.023C84.9037 142.946 85.1845 142.895 85.1845 142.602C85.1845 142.295 84.8655 142.091 84.3805 142.091C83.9465 142.091 83.5381 142.283 83.2318 142.602L82.7595 142.104C83.2062 141.683 83.7551 141.453 84.4187 141.453C85.3377 141.453 85.8993 141.925 85.8993 142.716V144.44C85.8993 144.605 85.9759 144.682 86.1418 144.682ZM84.0614 144.784C84.6485 144.784 85.159 144.376 85.159 143.891V143.393C85.0186 143.482 84.7889 143.521 84.4187 143.584C83.9337 143.661 83.436 143.738 83.436 144.235C83.436 144.593 83.6657 144.784 84.0614 144.784ZM92.5744 141.517V145.346H91.8086V142.193H89.9452V145.346H89.1794V141.517H92.5744ZM95.8035 141.453C96.8118 141.453 97.4755 142.231 97.4755 143.431C97.4755 144.605 96.7863 145.41 95.8035 145.41C95.2802 145.41 94.8335 145.205 94.54 144.835V146.622H93.7742V141.517H94.4379L94.4889 142.117C94.7952 141.695 95.2547 141.453 95.8035 141.453ZM95.5993 144.759C96.2758 144.759 96.697 144.235 96.697 143.431C96.697 142.627 96.2758 142.104 95.5993 142.104C94.9229 142.104 94.4889 142.627 94.4889 143.431C94.4889 144.235 94.9229 144.759 95.5993 144.759ZM100.054 145.41C98.8795 145.41 98.1137 144.631 98.1137 143.431C98.1137 142.257 98.905 141.453 100.054 141.453C101.228 141.453 101.994 142.231 101.994 143.431C101.994 144.605 101.202 145.41 100.054 145.41ZM100.054 144.759C100.756 144.759 101.215 144.235 101.215 143.431C101.215 142.627 100.756 142.104 100.054 142.104C99.3517 142.104 98.8922 142.627 98.8922 143.431C98.8922 144.235 99.3517 144.759 100.054 144.759ZM105.44 143.38C105.861 143.533 106.091 143.84 106.091 144.299C106.091 144.988 105.593 145.346 104.763 145.346H102.913V141.517H104.623C105.465 141.517 105.989 141.823 105.989 142.512C105.989 142.933 105.784 143.227 105.44 143.38ZM103.653 142.129V143.099H104.623C105.057 143.099 105.236 142.959 105.236 142.602C105.236 142.295 105.019 142.129 104.661 142.129H103.653ZM104.687 144.733C105.095 144.733 105.325 144.542 105.325 144.21C105.325 143.878 105.07 143.674 104.636 143.674H103.653V144.733H104.687ZM107.495 143.674C107.584 144.337 108.005 144.759 108.682 144.759C109.243 144.759 109.601 144.542 109.818 144.261L110.341 144.72C110.022 145.103 109.486 145.41 108.682 145.41C107.418 145.41 106.729 144.567 106.729 143.431C106.729 142.257 107.495 141.453 108.618 141.453C109.741 141.453 110.468 142.231 110.468 143.431C110.468 143.521 110.468 143.584 110.443 143.674H107.495ZM108.618 142.091C108.018 142.091 107.622 142.474 107.507 143.087H109.69C109.588 142.461 109.192 142.091 108.618 142.091ZM114.578 144.669H115.089V146.239H114.361V145.346H111.604V146.239H110.877V144.669H111.324C111.4 144.363 111.438 143.865 111.438 143.112V141.517H114.578V144.669ZM112.064 144.669H113.825V142.193H112.179V143.15C112.179 143.763 112.14 144.286 112.064 144.669ZM116.314 143.674C116.403 144.337 116.825 144.759 117.501 144.759C118.063 144.759 118.42 144.542 118.637 144.261L119.16 144.72C118.841 145.103 118.305 145.41 117.501 145.41C116.237 145.41 115.548 144.567 115.548 143.431C115.548 142.257 116.314 141.453 117.437 141.453C118.56 141.453 119.288 142.231 119.288 143.431C119.288 143.521 119.288 143.584 119.262 143.674H116.314ZM117.437 142.091C116.837 142.091 116.442 142.474 116.327 143.087H118.509C118.407 142.461 118.012 142.091 117.437 142.091ZM122.811 141.517H123.576V145.346H122.811V143.738H120.947V145.346H120.181V141.517H120.947V143.048H122.811V141.517ZM124.802 140.981V140.215H125.644V140.981H124.802ZM124.84 145.346V141.517H125.606V145.346H124.84ZM131.962 141.517V142.193H130.583V145.346H129.818V142.193H128.439V141.517H131.962ZM134.719 141.453C135.727 141.453 136.391 142.231 136.391 143.431C136.391 144.605 135.701 145.41 134.719 145.41C134.195 145.41 133.749 145.205 133.455 144.835V146.622H132.689V141.517H133.353L133.404 142.117C133.71 141.695 134.17 141.453 134.719 141.453ZM134.514 144.759C135.191 144.759 135.612 144.235 135.612 143.431C135.612 142.627 135.191 142.104 134.514 142.104C133.838 142.104 133.404 142.627 133.404 143.431C133.404 144.235 133.838 144.759 134.514 144.759ZM140.347 144.682H140.488V145.346C140.449 145.358 140.347 145.371 140.22 145.371C139.747 145.371 139.53 145.205 139.479 144.759C139.211 145.154 138.701 145.41 138.139 145.41C137.386 145.41 136.888 144.95 136.888 144.286C136.888 143.342 137.795 143.138 138.535 143.023C139.109 142.946 139.39 142.895 139.39 142.602C139.39 142.295 139.071 142.091 138.586 142.091C138.152 142.091 137.744 142.283 137.437 142.602L136.965 142.104C137.412 141.683 137.96 141.453 138.624 141.453C139.543 141.453 140.105 141.925 140.105 142.716V144.44C140.105 144.605 140.181 144.682 140.347 144.682ZM138.267 144.784C138.854 144.784 139.364 144.376 139.364 143.891V143.393C139.224 143.482 138.994 143.521 138.624 143.584C138.139 143.661 137.641 143.738 137.641 144.235C137.641 144.593 137.871 144.784 138.267 144.784ZM143.972 141.517H144.738V145.346H143.972V143.738H142.109V145.346H141.343V141.517H142.109V143.048H143.972V141.517ZM145.861 145.346V144.35H146.856V145.346H145.861ZM147.903 145.346V144.35H148.899V145.346H147.903ZM149.945 145.346V144.35H150.941V145.346H149.945Z" fill="#1C1B20"/>
<path d="M43.9271 156.402C42.9108 156.402 42.2519 155.542 42.2519 154.224C42.2519 152.906 42.9108 152.046 43.9271 152.046C44.9434 152.046 45.6023 152.906 45.6023 154.224C45.6023 155.542 44.9434 156.402 43.9271 156.402ZM43.9271 155.899C44.5972 155.899 45.0327 155.24 45.0327 154.224C45.0327 153.208 44.5972 152.549 43.9271 152.549C43.257 152.549 42.8215 153.208 42.8215 154.224C42.8215 155.24 43.257 155.899 43.9271 155.899ZM48.0034 153.643C48.8074 153.643 49.4328 154.146 49.4328 154.983C49.4328 155.821 48.7181 156.402 47.914 156.402C46.7302 156.402 46.2724 155.363 46.2724 154.28C46.2724 153.141 46.7637 152.046 48.0145 152.046C48.5171 152.046 49.0085 152.236 49.3212 152.638L48.9415 152.995C48.7181 152.683 48.3942 152.526 48.0145 152.526C47.0653 152.526 46.7749 153.42 46.7861 154.224V154.291C47.0318 153.878 47.4785 153.643 48.0034 153.643ZM47.914 155.921C48.4389 155.921 48.8968 155.564 48.8968 155.017C48.8968 154.458 48.4836 154.112 47.9475 154.112C47.4115 154.112 46.9648 154.458 46.9648 154.994C46.9648 155.553 47.3556 155.921 47.914 155.921ZM49.9131 156.346V155.564H50.6948V156.346H49.9131ZM52.102 156.346V153.252H51.0969V152.817H51.2644C52.0126 152.817 52.2136 152.66 52.2695 152.102H52.6603V156.346H52.102ZM55.4523 156.402C54.436 156.402 53.7771 155.542 53.7771 154.224C53.7771 152.906 54.436 152.046 55.4523 152.046C56.4686 152.046 57.1275 152.906 57.1275 154.224C57.1275 155.542 56.4686 156.402 55.4523 156.402ZM55.4523 155.899C56.1224 155.899 56.5579 155.24 56.5579 154.224C56.5579 153.208 56.1224 152.549 55.4523 152.549C54.7822 152.549 54.3467 153.208 54.3467 154.224C54.3467 155.24 54.7822 155.899 55.4523 155.899ZM57.7975 156.346V155.564H58.5793V156.346H57.7975ZM60.0311 155.821H62.1642V156.346H59.1935V155.988L60.6565 154.648C61.2372 154.112 61.4829 153.721 61.4829 153.308C61.4829 152.85 61.1591 152.537 60.69 152.537C60.1316 152.537 59.7743 152.884 59.7296 153.509L59.2047 153.397C59.2829 152.56 59.8748 152.046 60.7123 152.046C61.5053 152.046 62.0525 152.549 62.0525 153.275C62.0525 153.822 61.6951 154.324 60.9134 155.028L60.0311 155.821ZM64.2749 153.744C64.9896 153.744 65.5145 154.268 65.5145 154.994C65.5145 155.798 64.8556 156.402 63.9734 156.402C63.2586 156.402 62.7002 156.078 62.4434 155.508L62.8789 155.24C63.0911 155.698 63.4373 155.91 63.9287 155.91C64.5652 155.91 64.945 155.564 64.945 154.994C64.945 154.492 64.6211 154.157 64.1409 154.157C63.951 154.157 63.7835 154.201 63.6495 154.291L63.348 153.978L64.6434 152.616H62.622V152.102H65.3917V152.504L64.1967 153.744H64.2749ZM67.9714 154.726V154.168H69.87V154.726H67.9714ZM73.7117 152.046C74.8955 152.046 75.3534 153.085 75.3534 154.168C75.3534 155.307 74.862 156.402 73.6112 156.402C73.1086 156.402 72.6172 156.212 72.3045 155.81L72.6843 155.452C72.9076 155.765 73.2315 155.921 73.6112 155.921C74.5604 155.921 74.8508 155.028 74.8396 154.224V154.157C74.594 154.57 74.1472 154.805 73.6224 154.805C72.8183 154.805 72.1929 154.302 72.1929 153.464C72.1929 152.627 72.9076 152.046 73.7117 152.046ZM73.6782 154.335C74.2142 154.335 74.661 153.989 74.661 153.453C74.661 152.895 74.2701 152.526 73.7117 152.526C73.1868 152.526 72.7289 152.884 72.7289 153.431C72.7289 153.989 73.1421 154.335 73.6782 154.335ZM76.1351 153.777V152.995H76.9169V153.777H76.1351ZM76.1351 156.346V155.564H76.9169V156.346H76.1351ZM79.2509 153.744C79.9657 153.744 80.4906 154.268 80.4906 154.994C80.4906 155.798 79.8317 156.402 78.9494 156.402C78.2347 156.402 77.6763 156.078 77.4194 155.508L77.855 155.24C78.0671 155.698 78.4133 155.91 78.9047 155.91C79.5413 155.91 79.921 155.564 79.921 154.994C79.921 154.492 79.5971 154.157 79.1169 154.157C78.9271 154.157 78.7595 154.201 78.6255 154.291L78.324 153.978L79.6195 152.616H77.5981V152.102H80.3677V152.504L79.1728 153.744H79.2509ZM80.7809 152.102H83.8409V152.504C82.8805 153.386 82.2662 154.816 82.2662 156.346H81.6855C81.6855 154.849 82.3668 153.42 83.1932 152.616H80.7809V152.102Z" fill="#738392"/>
<path d="M185.28 148.16V148.878H183.7V150.472H182.953V148.878H181.374V148.16H182.953V146.566H183.7V148.16H185.28ZM190.52 149.165V149.897H189.645V151.247H188.812V149.897H186.127V149.208L188.611 145.791H189.645V149.165H190.52ZM187.017 149.165H188.812V146.695L187.017 149.165ZM192.1 150.472H194.756V151.247H190.851V150.687L192.746 148.993C193.478 148.332 193.751 147.858 193.751 147.37C193.751 146.825 193.363 146.451 192.803 146.451C192.143 146.451 191.712 146.868 191.669 147.657L190.865 147.499C190.951 146.394 191.727 145.719 192.847 145.719C193.909 145.719 194.627 146.365 194.627 147.298C194.627 148.059 194.153 148.677 193.105 149.596L192.1 150.472ZM197.585 151.319C196.25 151.319 195.402 150.228 195.402 148.519C195.402 146.81 196.25 145.719 197.585 145.719C198.92 145.719 199.767 146.81 199.767 148.519C199.767 150.228 198.92 151.319 197.585 151.319ZM197.585 150.572C198.389 150.572 198.891 149.782 198.891 148.519C198.891 147.255 198.389 146.466 197.585 146.466C196.781 146.466 196.278 147.255 196.278 148.519C196.278 149.782 196.781 150.572 197.585 150.572ZM200.615 151.247V150.127H201.735V151.247H200.615ZM204.606 147.6C205.669 147.6 206.458 148.375 206.458 149.438C206.458 150.543 205.611 151.319 204.391 151.319C203.529 151.319 202.84 150.931 202.51 150.314L203.084 149.854C203.328 150.285 203.817 150.587 204.376 150.587C205.109 150.587 205.597 150.127 205.597 149.438C205.597 148.749 205.137 148.289 204.448 148.289C204.003 148.289 203.63 148.476 203.4 148.849L202.754 148.634L202.998 145.791H206.056V146.581H203.673L203.558 147.945C203.831 147.715 204.175 147.6 204.606 147.6ZM209.316 151.319C207.981 151.319 207.133 150.228 207.133 148.519C207.133 146.81 207.981 145.719 209.316 145.719C210.651 145.719 211.498 146.81 211.498 148.519C211.498 150.228 210.651 151.319 209.316 151.319ZM209.316 150.572C210.12 150.572 210.622 149.782 210.622 148.519C210.622 147.255 210.12 146.466 209.316 146.466C208.512 146.466 208.009 147.255 208.009 148.519C208.009 149.782 208.512 150.572 209.316 150.572Z" fill="#17B573"/>
<mask id="mask3_2_12882" style="mask-type:alpha" maskUnits="userSpaceOnUse" x="25" y="143" width="11" height="11">
<rect x="35.75" y="153.5" width="9.80216" height="9.80216" transform="rotate(-180 35.75 153.5)" fill="#D9D9D9"/>
</mask>
<g mask="url(#mask3_2_12882)">
<path d="M32.1155 146.761L30.0325 148.844L30.0325 147.925L29.2157 147.925L29.2157 150.233L31.5233 150.233L31.5233 149.416L30.6145 149.416L32.6873 147.343L32.1155 146.761ZM30.8494 144.515C31.4143 144.515 31.9453 144.622 32.4422 144.837C32.9391 145.051 33.3714 145.342 33.739 145.71C34.1065 146.077 34.3975 146.51 34.612 147.007C34.8264 147.503 34.9336 148.034 34.9336 148.599C34.9336 149.164 34.8264 149.695 34.612 150.192C34.3975 150.689 34.1065 151.121 33.739 151.489C33.3714 151.857 32.9391 152.148 32.4422 152.362C31.9453 152.576 31.4143 152.684 30.8494 152.684C30.2844 152.684 29.7534 152.576 29.2565 152.362C28.7596 152.148 28.3273 151.857 27.9598 151.489C27.5922 151.121 27.3012 150.689 27.0868 150.192C26.8723 149.695 26.7651 149.164 26.7651 148.599C26.7651 148.034 26.8723 147.503 27.0868 147.007C27.3012 146.51 27.5922 146.077 27.9598 145.71C28.3273 145.342 28.7596 145.051 29.2565 144.837C29.7534 144.622 30.2844 144.515 30.8494 144.515Z" fill="#17B573"/>
</g>
<rect x="25.9492" y="169.147" width="86.1773" height="17.9856" rx="3.26739" fill="#1C1B20"/>
<path d="M38.1991 179.993H38.6905V181.534H38.0093V180.641H35.0163V181.534H34.3239V179.993H34.7706C34.8599 179.647 34.9046 179.099 34.9046 178.284V176.397H38.1991V179.993ZM35.4518 180.004H37.4955V177.033H35.597V178.284C35.597 178.932 35.5412 179.557 35.4518 180.004ZM39.7961 179.178C39.8743 179.758 40.2428 180.127 40.8347 180.127C41.3261 180.127 41.6388 179.937 41.8287 179.691L42.2865 180.093C42.0073 180.428 41.5383 180.696 40.8347 180.696C39.7291 180.696 39.126 179.959 39.126 178.965C39.126 177.938 39.7961 177.234 40.7789 177.234C41.7617 177.234 42.3982 177.916 42.3982 178.965C42.3982 179.044 42.3982 179.099 42.3759 179.178H39.7961ZM40.7789 177.793C40.254 177.793 39.9078 178.128 39.8073 178.664H41.717C41.6276 178.117 41.2814 177.793 40.7789 177.793ZM45.6816 177.29V177.882H44.4754V180.641H43.8054V177.882H42.5992V177.29H45.6816ZM48.9537 180.06H49.0766V180.641C49.0431 180.652 48.9537 180.663 48.8421 180.663C48.4288 180.663 48.239 180.518 48.1943 180.127C47.9598 180.473 47.5131 180.696 47.0217 180.696C46.3628 180.696 45.9273 180.294 45.9273 179.714C45.9273 178.887 46.7202 178.709 47.3679 178.608C47.8705 178.541 48.1161 178.496 48.1161 178.24C48.1161 177.972 47.8369 177.793 47.4126 177.793C47.0329 177.793 46.6755 177.96 46.4075 178.24L45.9943 177.804C46.3851 177.435 46.8653 177.234 47.4461 177.234C48.2502 177.234 48.7415 177.648 48.7415 178.34V179.848C48.7415 179.993 48.8086 180.06 48.9537 180.06ZM47.1334 180.149C47.6471 180.149 48.0938 179.792 48.0938 179.367V178.932C47.971 179.01 47.7699 179.044 47.4461 179.099C47.0217 179.166 46.5862 179.233 46.5862 179.669C46.5862 179.982 46.7872 180.149 47.1334 180.149ZM52.7173 177.29V180.641H52.0472V177.882H50.6624V179.088C50.6624 180.306 50.4055 180.663 49.7578 180.663C49.635 180.663 49.5233 180.652 49.4451 180.641V180.026H49.6238C49.9142 180.026 50.0035 179.948 50.0035 179.021V177.29H52.7173ZM55.3529 178.552C56.1011 178.552 56.559 178.954 56.559 179.591C56.559 180.227 56.09 180.641 55.3529 180.641H53.7671V177.29H54.4371V178.552H55.3529ZM55.2859 180.082C55.6768 180.082 55.8778 179.904 55.8778 179.591C55.8778 179.278 55.6768 179.099 55.2859 179.099H54.4371V180.082H55.2859ZM59.5967 177.29H60.2667V180.641H59.5967V179.233H57.9662V180.641H57.2961V177.29H57.9662V178.63H59.5967V177.29ZM64.0415 180.06H64.1643V180.641C64.1308 180.652 64.0415 180.663 63.9298 180.663C63.5166 180.663 63.3267 180.518 63.2821 180.127C63.0475 180.473 62.6008 180.696 62.1094 180.696C61.4505 180.696 61.015 180.294 61.015 179.714C61.015 178.887 61.8079 178.709 62.4556 178.608C62.9582 178.541 63.2039 178.496 63.2039 178.24C63.2039 177.972 62.9247 177.793 62.5003 177.793C62.1206 177.793 61.7632 177.96 61.4952 178.24L61.082 177.804C61.4729 177.435 61.9531 177.234 62.5338 177.234C63.3379 177.234 63.8293 177.648 63.8293 178.34V179.848C63.8293 179.993 63.8963 180.06 64.0415 180.06ZM62.2211 180.149C62.7348 180.149 63.1815 179.792 63.1815 179.367V178.932C63.0587 179.01 62.8577 179.044 62.5338 179.099C62.1094 179.166 61.6739 179.233 61.6739 179.669C61.6739 179.982 61.8749 180.149 62.2211 180.149ZM66.7217 176.821V176.151H67.4588V176.821H66.7217ZM66.7552 180.641V177.29H67.4253V180.641H66.7552ZM70.8315 177.29H71.5016V180.641H70.8315V179.233H69.201V180.641H68.5309V177.29H69.201V178.63H70.8315V177.29ZM76.1921 177.257C76.9961 177.257 77.521 177.927 77.521 178.965C77.521 179.993 76.9626 180.674 76.1921 180.674C75.79 180.674 75.4661 180.518 75.2428 180.227V181.757H74.5727V180.216C74.3494 180.518 74.0255 180.674 73.6346 180.674C72.8305 180.674 72.3057 180.004 72.3057 178.965C72.3057 177.938 72.8529 177.257 73.6346 177.257C74.0255 177.257 74.3494 177.402 74.5727 177.692V176.173H75.2428V177.715C75.4661 177.413 75.8012 177.257 76.1921 177.257ZM73.8021 180.127C74.2935 180.127 74.6062 179.669 74.6062 178.965C74.6062 178.262 74.2935 177.804 73.8021 177.804C73.2996 177.804 72.9869 178.262 72.9869 178.965C72.9869 179.669 73.2996 180.127 73.8021 180.127ZM76.0245 180.127C76.5159 180.127 76.8398 179.669 76.8398 178.965C76.8398 178.262 76.5159 177.804 76.0245 177.804C75.522 177.804 75.2093 178.262 75.2093 178.965C75.2093 179.669 75.522 180.127 76.0245 180.127ZM79.7658 180.696C78.7383 180.696 78.0682 180.015 78.0682 178.965C78.0682 177.938 78.7607 177.234 79.7658 177.234C80.7932 177.234 81.4633 177.916 81.4633 178.965C81.4633 179.993 80.7709 180.696 79.7658 180.696ZM79.7658 180.127C80.38 180.127 80.782 179.669 80.782 178.965C80.782 178.262 80.38 177.804 79.7658 177.804C79.1515 177.804 78.7495 178.262 78.7495 178.965C78.7495 179.669 79.1515 180.127 79.7658 180.127ZM84.043 177.234C84.9253 177.234 85.506 177.916 85.506 178.965C85.506 179.993 84.903 180.696 84.043 180.696C83.5852 180.696 83.1943 180.518 82.9374 180.194V181.757H82.2673V177.29H82.8481L82.8927 177.815C83.1608 177.447 83.5628 177.234 84.043 177.234ZM83.8643 180.127C84.4562 180.127 84.8248 179.669 84.8248 178.965C84.8248 178.262 84.4562 177.804 83.8643 177.804C83.2725 177.804 82.8927 178.262 82.8927 178.965C82.8927 179.669 83.2725 180.127 83.8643 180.127ZM90.2635 177.29V180.641H89.6158V177.994L88.6442 180.641H87.9294L86.9578 177.994V180.641H86.3101V177.29H87.3375L88.298 179.892L89.2472 177.29H90.2635ZM94.0382 180.06H94.1611V180.641C94.1276 180.652 94.0382 180.663 93.9266 180.663C93.5133 180.663 93.3235 180.518 93.2788 180.127C93.0443 180.473 92.5976 180.696 92.1062 180.696C91.4473 180.696 91.0118 180.294 91.0118 179.714C91.0118 178.887 91.8047 178.709 92.4524 178.608C92.955 178.541 93.2006 178.496 93.2006 178.24C93.2006 177.972 92.9215 177.793 92.4971 177.793C92.1174 177.793 91.76 177.96 91.492 178.24L91.0788 177.804C91.4696 177.435 91.9499 177.234 92.5306 177.234C93.3347 177.234 93.826 177.648 93.826 178.34V179.848C93.826 179.993 93.8931 180.06 94.0382 180.06ZM92.2179 180.149C92.7316 180.149 93.1783 179.792 93.1783 179.367V178.932C93.0555 179.01 92.8544 179.044 92.5306 179.099C92.1062 179.166 91.6707 179.233 91.6707 179.669C91.6707 179.982 91.8717 180.149 92.2179 180.149ZM97.8353 180.049H98.2708V181.422H97.6343V180.641H94.9093V177.29H95.5794V180.049H97.1652V177.29H97.8353V180.049ZM99.0303 176.821V176.151H99.7673V176.821H99.0303ZM99.0638 180.641V177.29H99.7338V180.641H99.0638ZM103.408 177.29V180.641H102.738V179.379H102.001L101.186 180.641H100.437L101.331 179.289C100.906 179.133 100.661 178.809 100.661 178.362C100.661 177.715 101.141 177.29 101.9 177.29H103.408ZM101.967 178.876H102.738V177.849H101.967C101.565 177.849 101.331 178.039 101.331 178.351C101.331 178.686 101.565 178.876 101.967 178.876Z" fill="white"/>
<path d="M30.4291 25.7625V26.7676H27.8158V31.2188H26.7102V25.7625H30.4291ZM32.7696 26.8394C33.8895 26.8394 34.6218 27.7152 34.6218 29.065C34.6218 30.4003 33.8608 31.2905 32.7696 31.2905C32.1952 31.2905 31.7214 31.0752 31.3911 30.6731V32.6546H30.3573V26.9112H31.2763L31.3337 27.5573C31.664 27.0978 32.1665 26.8394 32.7696 26.8394ZM32.4537 30.429C33.1429 30.429 33.5737 29.8978 33.5737 29.065C33.5737 28.2322 33.1429 27.7009 32.4537 27.7009C31.7645 27.7009 31.3481 28.2322 31.3481 29.065C31.3481 29.8978 31.7645 30.429 32.4537 30.429ZM38.4699 26.9112H39.5038V31.2188H38.4987V28.3757L36.589 31.2188H35.5551V26.9112H36.5746V29.7542L38.4699 26.9112ZM43.7108 29.0075C44.1847 29.1655 44.4431 29.5244 44.4431 30.0413C44.4431 30.8023 43.8544 31.2188 42.878 31.2188H40.753V26.9112H42.7201C43.7252 26.9112 44.3283 27.2701 44.3283 28.0455C44.3283 28.5193 44.0842 28.8496 43.7108 29.0075ZM41.7294 27.6865V28.6486H42.7201C43.1365 28.6486 43.3232 28.505 43.3232 28.1604C43.3232 27.8588 43.1221 27.6865 42.7488 27.6865H41.7294ZM42.7775 30.429C43.1796 30.429 43.4093 30.228 43.4093 29.9121C43.4093 29.5819 43.1652 29.3808 42.7488 29.3808H41.7294V30.429H42.7775ZM48.2912 26.9112H49.3251V31.2188H48.2912V29.4957H46.4246V31.2188H45.3908V26.9112H46.4246V28.548H48.2912V26.9112ZM54.0491 26.9112V31.2188H53.0296V29.6967H52.1824L51.2348 31.2188H50.0861L51.1773 29.5531C50.6461 29.3378 50.3445 28.907 50.3445 28.3327C50.3445 27.4711 51.005 26.9112 52.0245 26.9112H54.0491ZM52.1394 28.9214H53.0296V27.744H52.1394C51.6655 27.744 51.3927 27.9737 51.3927 28.3327C51.3927 28.706 51.6655 28.9214 52.1394 28.9214ZM57.4664 29.266V28.2896H60.0366V29.266H57.4664ZM65.9093 31.2905C64.4447 31.2905 63.5258 30.4147 63.5258 29.0362V25.7625H64.6314V29.0075C64.6314 29.826 65.1052 30.3142 65.9093 30.3142C66.7277 30.3142 67.1872 29.826 67.1872 29.0075V25.7625H68.2928V29.0362C68.2928 30.4147 67.3882 31.2905 65.9093 31.2905ZM73.2753 31.2188L72.8445 30.0701H70.3748L69.9441 31.2188H68.7954L70.9492 25.7625H72.2989L74.4527 31.2188H73.2753ZM70.7338 29.108H72.4855L71.6097 26.7389L70.7338 29.108ZM78.8464 25.7625H79.952V31.2188H78.8464V28.9214H76.4054V31.2188H75.2998V25.7625H76.4054V27.9163H78.8464V25.7625Z" fill="#1C1B20"/>
</g>
<defs>
<filter id="filter0_d_2_12882" x="0.738281" y="0.666609" width="240.262" height="216.805" filterUnits="userSpaceOnUse" color-interpolation-filters="sRGB">
<feFlood flood-opacity="0" result="BackgroundImageFix"/>
<feColorMatrix in="SourceAlpha" type="matrix" values="0 0 0 0 0 0 0 0 0 0 0 0 0 0 0 0 0 0 127 0" result="hardAlpha"/>
<feOffset dy="2.66661"/>
<feGaussianBlur stdDeviation="7.5"/>
<feComposite in2="hardAlpha" operator="out"/>
<feColorMatrix type="matrix" values="0 0 0 0 0.114858 0 0 0 0 0.094107 0 0 0 0 0.136155 0 0 0 0.09 0"/>
<feBlend mode="normal" in2="BackgroundImageFix" result="effect1_dropShadow_2_12882"/>
<feBlend mode="normal" in="SourceGraphic" in2="effect1_dropShadow_2_12882" result="shape"/>
</filter>
</defs>
</svg>
