<svg width="199" height="25" viewBox="0 0 199 25" fill="none" xmlns="http://www.w3.org/2000/svg">
<path d="M16.1269 7.14551H0V9.77477H16.1269V7.14551Z" fill="#1C1B20"/>
<path d="M16.1269 11.6499H0V14.2792H16.1269V11.6499Z" fill="#1C1B20"/>
<path d="M16.1269 7.14551H0V9.77477H16.1269V7.14551Z" fill="#1C1B20"/>
<path d="M16.1269 11.6499H0V14.2792H16.1269V11.6499Z" fill="#1C1B20"/>
<path d="M26.2156 0.340332V24.6142H3.3485V18.7829H0V16.1536H16.1269V18.7829H6.21711V22.0655H23.3465V2.88943H6.21711V4.55755H3.3485V0.340332H26.2156Z" fill="#1C1B20"/>
<path d="M42.4346 9.125C46.2783 9.125 48.4346 11.4688 48.4346 15.0625C48.4346 18.5625 46.1846 21 42.4346 21H37.8096V9.125H42.4346ZM42.3721 18.75C44.5283 18.75 45.6846 17.375 45.6846 15.0625C45.6846 12.75 44.5283 11.375 42.3721 11.375H40.4971V18.75H42.3721ZM55.8408 21.1562C52.2783 21.1562 49.9346 18.75 49.9346 15.0625C49.9346 11.4062 52.3096 8.96875 55.8408 8.96875C59.4033 8.96875 61.7471 11.375 61.7471 15.0625C61.7471 18.7188 59.3721 21.1562 55.8408 21.1562ZM55.8408 18.8438C57.7471 18.8438 58.9971 17.3438 58.9971 15.0625C58.9971 12.7812 57.7471 11.2812 55.8408 11.2812C53.9346 11.2812 52.6846 12.7812 52.6846 15.0625C52.6846 17.3438 53.9346 18.8438 55.8408 18.8438ZM69.0596 21.1562C65.5596 21.1562 63.2471 18.75 63.2471 15.0625C63.2471 11.4062 65.5908 8.96875 69.0596 8.96875C71.6221 8.96875 73.4971 10.25 74.1846 12.4375L71.6533 13.3125C71.2158 11.9375 70.3096 11.2188 68.9971 11.2188C67.1533 11.2188 65.9971 12.6875 65.9971 15.0625C65.9971 17.4375 67.1221 18.9062 68.9971 18.9062C70.3096 18.9062 71.2158 18.1875 71.6533 16.8125L74.1846 17.6875C73.5283 19.875 71.6221 21.1562 69.0596 21.1562ZM81.4658 21.1562C78.1533 21.1562 76.1533 19.2188 76.1533 16.2188V9.125H78.8408V16.125C78.8408 17.8125 79.7783 18.7812 81.4658 18.7812C83.1533 18.7812 84.0908 17.8125 84.0908 16.125V9.125H86.7783V16.2188C86.7783 19.2188 84.7783 21.1562 81.4658 21.1562ZM103.935 9.125V21H101.31V12.625L98.2471 21H95.4971L92.4346 12.625V21H89.8096V9.125H93.7471L96.9033 17.7188L100.028 9.125H103.935ZM109.747 18.6562H115.872V21H107.122V9.125H115.716V11.4688H109.747V13.7812H114.31V16.0312H109.747V18.6562ZM125.935 9.125H128.528V21H126.028L120.685 13.4375V21H118.091V9.125H120.622L125.935 16.6875V9.125ZM141.122 9.125V11.5625H137.122V21H134.435V11.5625H130.435V9.125H141.122ZM156.591 11.5H150.716V14.0312H155.185V16.2812H150.716V21H148.028V9.125H156.591V11.5ZM161.278 18.5625H167.091V21H158.591V9.125H161.278V18.5625ZM173.278 21.1562C169.716 21.1562 167.372 18.75 167.372 15.0625C167.372 11.4062 169.747 8.96875 173.278 8.96875C176.841 8.96875 179.185 11.375 179.185 15.0625C179.185 18.7188 176.81 21.1562 173.278 21.1562ZM173.278 18.8438C175.185 18.8438 176.435 17.3438 176.435 15.0625C176.435 12.7812 175.185 11.2812 173.278 11.2812C171.372 11.2812 170.122 12.7812 170.122 15.0625C170.122 17.3438 171.372 18.8438 173.278 18.8438ZM194.497 9.125H197.185L193.747 21H190.935L188.591 12.8125L186.278 21H183.466L180.06 9.125H182.81L184.997 17.4375L187.31 9.125H189.903L192.216 17.375L194.497 9.125Z" fill="#1C1B20"/>
</svg>
