<svg width="70" height="49" viewBox="0 0 70 49" fill="none" xmlns="http://www.w3.org/2000/svg">
<path d="M67.5766 11.5627C67.5766 11.5627 67.4565 11.4563 67.1102 11.3633C66.8701 11.1505 66.4037 10.9511 66.1499 10.5119C65.9099 10.299 65.7899 10.1926 65.5498 9.97974C65.3097 9.76689 65.0697 9.55403 64.9359 9.22129C64.6959 9.00843 64.5621 8.67569 64.202 8.3564C63.962 8.14355 63.7219 7.93069 63.2555 7.73128C62.6691 7.42544 61.9627 7.01316 61.3763 6.70732C61.1362 6.49446 60.7899 6.40148 60.6698 6.29505C60.3235 6.20207 60.0834 5.98921 59.9634 5.88278C59.497 5.68337 59.1369 5.36408 58.8969 5.15122C58.6568 4.93837 58.5368 4.83194 58.5368 4.83194C58.0704 4.63253 57.9229 4.07348 58.1218 3.60742C58.2143 3.26123 58.7733 3.11446 59.1196 3.20744C59.1196 3.20744 59.346 3.19399 59.6923 3.28698C60.0387 3.37996 60.6113 3.45949 61.0777 3.6589C61.4241 3.75188 61.6641 3.96474 62.0105 4.05772C62.2505 4.27058 62.5969 4.36356 62.837 4.57642C63.4234 4.88226 64.0235 5.41441 64.6236 5.94656C65.2238 6.47871 65.8102 6.78455 66.5166 7.19682C66.9967 7.62254 67.4769 8.04825 67.957 8.47397C68.7972 9.21898 69.291 9.871 69.291 9.871C69.6648 10.4166 69.5997 11.2154 69.0545 11.5885C68.6156 11.8417 68.0429 11.7622 67.5766 11.5627Z" fill="white"/>
<path d="M47.1346 2.21616C47.1346 2.21616 46.4419 2.0302 45.4166 1.97756C44.2712 1.81849 42.7933 1.79275 41.3153 1.76701C39.9573 1.8477 38.4794 1.82196 37.3615 2.1155C36.3499 2.28918 35.5646 2.4494 35.5646 2.4494C35.0057 2.59617 34.4193 2.29033 34.2718 1.73129C34.1243 1.17224 34.4294 0.586302 34.9884 0.439528L35.2147 0.426081C35.2147 0.426081 35.441 0.412632 35.7736 0.279306C35.9862 0.039551 36.5589 0.119084 37.1316 0.198618C37.7043 0.278151 38.3832 0.237808 39.0622 0.197463C39.7412 0.157119 40.4202 0.116774 41.3255 0.0629821C42.9097 -0.0311544 44.3877 -0.00541254 45.413 0.0472247C46.6647 0.086414 47.3436 0.0460691 47.3436 0.0460691C47.9163 0.125603 48.2901 0.671198 48.2113 1.24369C48.2525 1.92261 47.7073 2.29569 47.1346 2.21616Z" fill="white"/>
<path d="M24.907 6.48951C24.907 6.48951 24.3618 6.86259 23.3777 7.48888C22.3936 8.11516 21.4232 8.96775 20.3465 9.94022C19.2698 10.9127 18.1931 11.8852 17.449 12.7243C16.5987 13.6833 14.6375 18.7966 13.3686 16.6007C12.6072 15.2832 14.1091 13.8313 14.8532 12.9921C14.8532 12.9921 15.3846 12.3927 16.1287 11.5536C16.8728 10.7144 18.0558 9.62209 19.1325 8.64962C20.2092 7.67715 21.5122 6.69124 22.3763 5.95852C23.1203 5.11938 23.8919 4.73285 23.8919 4.73285C24.3308 4.47964 25.0235 4.66561 25.2773 5.10477C25.5311 5.54394 25.346 6.23631 24.907 6.48951Z" fill="white"/>
<path d="M10.1731 23.8314C10.1731 23.8314 9.86795 24.4174 9.59025 25.4559C9.31256 26.4945 9.06234 27.9856 8.69208 29.3704C8.50696 30.0628 8.32183 30.7551 8.1367 31.4475C7.95157 32.1399 7.87274 32.7124 7.90021 33.165C7.74254 34.31 7.78374 34.9889 7.78374 34.9889C7.82494 35.6678 7.17343 36.1608 6.60076 36.0812C5.92178 36.1216 5.42794 35.4695 5.50677 34.8971C5.50677 34.8971 5.57187 34.0983 5.72953 32.9533C5.80836 32.3808 5.99349 31.6884 6.17862 30.996C6.36374 30.3037 6.54887 29.6113 6.61397 28.8125C6.5865 28.3599 6.45274 28.0271 6.6516 27.5611C6.74416 27.2149 6.83673 26.8687 7.15562 26.5091C7.35448 26.043 7.65963 25.4571 8.08481 24.9776C8.28367 24.5115 8.60256 24.1519 8.5751 23.6993C8.66766 23.3531 8.65393 23.1268 8.65393 23.1268C8.62646 22.6742 9.17167 22.3011 9.63805 22.5005C10.1044 22.6999 10.4645 23.0192 10.2657 23.4852C10.2657 23.4852 10.1594 23.6051 10.1731 23.8314Z" fill="white"/>
<path d="M14.4946 35.1579C13.5242 36.0105 12.6739 36.9695 11.8235 37.9286L10.548 39.3671C10.1228 39.8466 9.69759 40.3261 9.27241 40.8056C8.42204 41.7646 7.81173 42.9365 7.30771 43.9885L6.49855 45.6265C6.19339 46.2124 5.88823 46.7984 5.68937 47.2644L5.58308 47.3843C5.17163 48.0901 4.28006 48.3702 3.69365 48.0644C3.22727 47.865 2.97348 47.4258 2.94602 46.9732C2.75733 45.7352 2.56864 44.4972 2.15362 43.2727C1.96493 42.0348 1.54992 40.8102 1.36123 39.5723C1.06624 38.4542 0.757521 37.1098 0.56883 35.8718C0.38014 34.6339 0.191449 33.3959 0.0027587 32.1579C-0.0384386 31.479 0.386745 30.9995 0.94569 30.8527C1.50463 30.706 2.10478 31.2381 2.25227 31.7971L3.04467 35.4976C3.23336 36.7356 3.75467 37.8402 4.06339 39.1846C4.25208 40.4226 4.66709 41.6471 4.85578 42.885L5.31199 44.7885C5.45948 45.3475 5.72701 46.013 5.8745 46.572L3.35747 46.2674C3.84775 44.9891 4.45806 43.8172 5.2947 42.6318C6.02503 41.5664 6.74164 40.2746 7.47198 39.2092C7.89716 38.7297 8.20232 38.1437 8.7338 37.5443C9.15899 37.0648 9.58417 36.5853 10.1156 35.9859C10.966 35.0269 12.1627 34.1609 13.1331 33.3083C13.6783 32.9352 14.3573 32.8949 14.7311 33.4405C15.105 33.986 14.9198 34.6784 14.4946 35.1579Z" fill="white"/>
</svg>
