<svg width="209" height="140" viewBox="0 0 209 140" fill="none" xmlns="http://www.w3.org/2000/svg">
<circle cx="104" cy="70" r="70" fill="#F8FCFF"/>
<path d="M208.5 70H174C174 75.5 169.441 93.3739 169 96C175.5 80 181.5 70 208.5 70Z" fill="#F8FCFF"/>
<path d="M0 70H34.5C34.4999 75.5 39.059 93.3739 39.5 96C33 80 27 70 0 70Z" fill="#F8FCFF"/>
<circle cx="104" cy="70" r="43.5" fill="#986FEE" stroke="#917DD9"/>
<path d="M115 77.0148L113.213 75.0682L105.263 83.7303L105.263 51L102.737 51L102.737 83.7303L94.7866 75.0682L93 77.0148L104 89L115 77.0148Z" fill="white"/>
<path d="M158.989 73.2552L156.015 73.3194L155.986 72.0045L157.711 71.9673L157.586 66.1905L155.862 66.2277L155.833 64.8913L158.808 64.8271L158.826 65.6893C159.498 65.8473 160.556 65.9107 162.13 65.8768L165.773 65.7982L165.91 72.1569L158.969 72.3067L158.989 73.2552ZM158.855 67.0257L158.94 70.9488L164.63 70.8259L164.551 67.1616L162.159 67.2132C160.93 67.2397 159.72 67.158 158.855 67.0257Z" fill="#1C1B20"/>
<path d="M158.408 77.5849L157.732 81.9309L156.517 81.742L157.402 76.0538L165.498 77.313L164.629 82.8947L163.415 82.7058L164.074 78.4663L161.944 78.1349L161.434 81.4158L160.241 81.2302L160.751 77.9494L158.408 77.5849Z" fill="#1C1B20"/>
<path d="M161.596 93.0387L160.409 92.6458L161.323 89.8826L154.732 87.7016L155.166 86.3916L161.757 88.5726L162.671 85.8093L163.858 86.2021L161.596 93.0387Z" fill="#1C1B20"/>
<path d="M150.09 97.7873L152.109 98.0318L153.953 94.568L152.623 93.0294L153.292 91.7733L158.974 98.535L158.193 100L149.411 99.0625L150.09 97.7873ZM154.796 95.5541L153.398 98.1805L157.485 98.6706L154.796 95.5541Z" fill="#1C1B20"/>
<path d="M150.234 111.401L143.819 106.305L144.677 105.225L150.113 109.543L152.272 106.824L150.28 105.242C147.697 103.19 147.007 102.257 147.986 101.024C148.12 100.855 148.267 100.67 148.499 100.413L149.512 101.218L149.27 101.522C148.801 102.112 148.765 102.331 151.162 104.236L154.083 106.556L150.234 111.401Z" fill="#1C1B20"/>
<path d="M141.928 115.007C140.559 116.193 139.076 116.194 138.046 115.004C137.029 113.831 137.242 112.363 138.611 111.178L141.218 108.919L146.582 115.112L145.555 116.001L143.509 113.638L141.928 115.007ZM139.485 111.989C138.637 112.723 138.51 113.433 139.103 114.117C139.696 114.801 140.416 114.777 141.263 114.043L142.746 112.758L140.968 110.705L139.485 111.989Z" fill="#1C1B20"/>
<path d="M133.453 124.6L132.281 125.286L128.145 118.214L129.317 117.528L131.124 120.618L134.66 118.549L132.853 115.46L134.026 114.774L138.162 121.847L136.989 122.532L135.292 119.629L131.755 121.697L133.453 124.6Z" fill="#1C1B20"/>
<path d="M124.849 119.616L127.936 127.205L126.678 127.716L123.591 120.127L124.849 119.616Z" fill="#1C1B20"/>
<path d="M113.083 131.458L111.776 131.738L110.064 123.726L120.269 121.545L121.981 129.557L120.653 129.841L119.202 123.052L116.102 123.714L117.553 130.503L116.204 130.791L114.753 124.002L111.633 124.669L113.083 131.458Z" fill="#1C1B20"/>
<path d="M104.826 125.034L100.428 125.027L100.429 123.798L106.186 123.807L106.174 132L100.525 131.992L100.527 130.763L104.817 130.769L104.82 128.613L101.5 128.608L101.502 127.401L104.822 127.406L104.826 125.034Z" fill="#1C1B20"/>
<path d="M72.698 114.91L74.2475 112.37L75.3703 113.055L74.472 114.527L79.4047 117.536L80.303 116.064L81.4441 116.76L79.8946 119.3L79.1584 118.851C78.6631 119.332 78.0392 120.188 77.2196 121.532L75.322 124.643L69.8923 121.33L73.5079 115.404L72.698 114.91ZM78.0172 118.155L74.6674 116.111L71.7031 120.97L74.8321 122.879L76.0784 120.836C76.7185 119.787 77.4393 118.812 78.0172 118.155Z" fill="#1C1B20"/>
<path d="M69.365 112.085L66.069 109.173L66.8827 108.252L71.1966 112.064L65.7719 118.203L61.5388 114.463L62.3525 113.542L65.5677 116.383L66.9953 114.767L64.5071 112.569L65.3066 111.664L67.7947 113.863L69.365 112.085Z" fill="#1C1B20"/>
<path d="M54.6302 106.44L55.601 105.652L57.4354 107.912L62.8255 103.536L63.6951 104.608L58.3051 108.983L60.1395 111.243L59.1687 112.031L54.6302 106.44Z" fill="#1C1B20"/>
<path d="M56.8334 94.1891L55.539 95.758L57.4623 99.1783L59.4754 98.8873L60.1728 100.128L51.4147 101.268L50.601 99.821L56.1254 92.93L56.8334 94.1891ZM56.1774 99.3567L54.7191 96.7633L52.1031 99.941L56.1774 99.3567Z" fill="#1C1B20"/>
<path d="M45.29 86.9713L53.0404 84.3151L53.4877 85.6205L46.9203 87.8712L48.0457 91.1549L50.4524 90.3301C53.5729 89.2607 54.7314 89.1827 55.2416 90.6716C55.3115 90.8755 55.3884 91.0999 55.4799 91.4332L54.2561 91.8526L54.1303 91.4855C53.8856 90.7716 53.7208 90.623 50.8246 91.6156L47.2961 92.8249L45.29 86.9713Z" fill="#1C1B20"/>
<path d="M46.7301 78.0311C46.4694 76.2389 47.2682 74.9898 48.8257 74.7633C50.3619 74.5399 51.4833 75.5097 51.744 77.3019L52.2404 80.7157L44.1328 81.8947L43.9374 80.5506L47.031 80.1007L46.7301 78.0311ZM50.5891 77.6006C50.4278 76.4911 49.8991 76.0016 49.003 76.1319C48.1069 76.2622 47.7395 76.8821 47.9008 77.9916L48.1832 79.9331L50.8715 79.5422L50.5891 77.6006Z" fill="#1C1B20"/>
<path d="M43.219 65.7222L43.2735 64.365L51.4598 64.6939L51.4053 66.0511L47.8292 65.9074L47.6647 70.0006L51.2408 70.1443L51.1863 71.5015L43 71.1725L43.0545 69.8153L46.4152 69.9504L46.5797 65.8572L43.219 65.7222Z" fill="#1C1B20"/>
<path d="M52.0558 61.1626L43.9997 59.6716L44.2469 58.336L52.3029 59.827L52.0558 61.1626Z" fill="#1C1B20"/>
<path d="M48.4243 44.8686L48.8937 43.617L56.5648 46.4942L52.9002 56.2647L45.2291 53.3875L45.7061 52.1157L52.2063 54.5537L53.3193 51.5862L46.8191 49.1482L47.3037 47.8563L53.8039 50.2943L54.9245 47.3066L48.4243 44.8686Z" fill="#1C1B20"/>
<path d="M58.2866 41.3769L60.6632 37.676L61.6973 38.3401L58.5867 43.1839L51.6929 38.7568L54.7452 34.0037L55.7793 34.6678L53.4609 38.278L55.2751 39.443L57.0692 36.6492L58.0851 37.3016L56.291 40.0954L58.2866 41.3769Z" fill="#1C1B20"/>
<path d="M78.8479 20.6657L80.3889 23.2108L79.2639 23.892L78.3705 22.4165L73.4278 25.4092L74.3211 26.8847L73.1777 27.577L71.6366 25.0319L72.3744 24.5852C72.1757 23.9241 71.7023 22.9757 70.8872 21.6294L69 18.5125L74.4407 15.2183L78.0364 21.157L78.8479 20.6657ZM73.5178 23.8928L76.8745 21.8605L73.9265 16.9915L70.7911 18.8899L72.0306 20.9371C72.6671 21.9883 73.2003 23.077 73.5178 23.8928Z" fill="#1C1B20"/>
<path d="M82.8897 19.0078L86.9927 17.4232L87.4354 18.5697L82.0654 20.6435L79.1138 13.0008L84.3832 10.9658L84.826 12.1122L80.8236 13.6579L81.6003 15.6691L84.6977 14.4729L85.1326 15.5992L82.0353 16.7954L82.8897 19.0078Z" fill="#1C1B20"/>
<path d="M94.6866 8.52823L94.9391 9.75297L92.0884 10.3406L93.49 17.14L92.1386 17.4186L90.7369 10.6192L87.8862 11.2068L87.6338 9.9821L94.6866 8.52823Z" fill="#1C1B20"/>
<path d="M104.546 16.1258L103.75 14.2543L99.8282 14.3864L99.1594 16.3073L97.7373 16.3552L100.758 8.0559L102.417 8L105.99 16.0772L104.546 16.1258ZM100.262 13.1637L103.235 13.0635L101.619 9.2781L100.262 13.1637Z" fill="#1C1B20"/>
<path d="M116.269 9.20333L115.058 17.3061L113.693 17.1021L114.72 10.236L111.287 9.72274L110.91 12.2389C110.423 15.5013 109.958 16.5655 108.402 16.3328C108.189 16.3009 107.954 16.2658 107.616 16.1935L107.807 14.9141L108.191 14.9715C108.937 15.0831 109.145 15.0051 109.598 11.9772L110.15 8.28833L116.269 9.20333Z" fill="#1C1B20"/>
<path d="M123.542 14.5988C125.253 15.1928 125.994 16.477 125.477 17.9638C124.968 19.4303 123.591 19.9791 121.88 19.3851L118.621 18.2537L121.308 10.514L122.592 10.9595L121.566 13.9128L123.542 14.5988ZM122.147 18.2225C123.206 18.5902 123.884 18.3463 124.181 17.4909C124.478 16.6355 124.097 16.0239 123.038 15.6562L121.184 15.0127L120.293 17.579L122.147 18.2225Z" fill="#1C1B20"/>
<path d="M136.085 17.1507L137.264 17.8241L133.202 24.9392L132.023 24.2657L133.797 21.1576L130.24 19.1266L128.465 22.2348L127.286 21.5613L131.348 14.4463L132.527 15.1197L130.86 18.0406L134.417 20.0716L136.085 17.1507Z" fill="#1C1B20"/>
<path d="M136.063 27.0944L141.096 20.6301L142.168 21.4646L137.134 27.9289L136.063 27.0944Z" fill="#1C1B20"/>
<path d="M152.198 31.3748L153.093 32.3679L147.006 37.852L140.021 30.0996L146.108 24.6154L147.017 25.6245L141.86 30.2716L143.981 32.6262L149.139 27.9791L150.062 29.0042L144.905 33.6513L147.041 36.0219L152.198 31.3748Z" fill="#1C1B20"/>
<path d="M150.756 41.737L152.946 45.551L151.881 46.1631L149.014 41.1713L156.118 37.0908L158.931 41.9891L157.866 42.6012L155.729 38.8807L153.859 39.9545L155.513 42.8337L154.466 43.435L152.812 40.5558L150.756 41.737Z" fill="#1C1B20"/>
<path d="M65.7868 28.9383C65.7868 29.8092 65.0807 30.5153 64.2098 30.5153C63.3388 30.5153 62.6328 29.8092 62.6328 28.9383C62.6328 28.0674 63.3388 27.3613 64.2098 27.3613C65.0807 27.3613 65.7868 28.0674 65.7868 28.9383Z" fill="#917DD9"/>
<path d="M161.194 55.7469C161.194 56.6178 160.488 57.3238 159.617 57.3238C158.746 57.3238 158.04 56.6178 158.04 55.7469C158.04 54.8759 158.746 54.1699 159.617 54.1699C160.488 54.1699 161.194 54.8759 161.194 55.7469Z" fill="#917DD9"/>
<path d="M91.8068 125.922C91.8068 126.793 91.1008 127.499 90.2299 127.499C89.3589 127.499 88.6529 126.793 88.6529 125.922C88.6529 125.051 89.3589 124.345 90.2299 124.345C91.1008 124.345 91.8068 125.051 91.8068 125.922Z" fill="#917DD9"/>
</svg>
