<svg width="17" height="18" viewBox="0 0 17 18" fill="none" xmlns="http://www.w3.org/2000/svg">
<path d="M14.5313 2.9687C11.1839 -0.345908 5.78332 -0.319378 2.4687 3.02799C-0.822901 6.35211 -0.822901 11.7072 2.4687 15.0313C5.81608 18.3459 11.2167 18.3194 14.5313 14.972C17.8229 11.6479 17.8229 6.29282 14.5313 2.9687ZM8.5 16.8442C4.17464 16.8442 0.655753 13.3254 0.655753 8.99998C0.655753 4.6746 4.17461 1.15579 8.5 1.15579C12.8254 1.15579 16.3442 4.67464 16.3442 9.00002C16.3442 13.3254 12.8254 16.8442 8.5 16.8442Z" fill="white"/>
<path d="M13.1239 8.703V8.70339L6.19848 4.70511C6.03458 4.61048 5.82497 4.66663 5.73034 4.83057C5.70029 4.88262 5.68443 4.94164 5.68443 5.00178V12.9983C5.68451 13.1876 5.83804 13.3409 6.02731 13.3408C6.08741 13.3408 6.14647 13.325 6.19852 13.2949L13.1239 9.29665C13.2879 9.20205 13.3441 8.99244 13.2495 8.8285C13.2193 8.77637 13.1761 8.73309 13.1239 8.703Z" fill="white"/>
</svg>
