<svg width="48" height="58" viewBox="0 0 48 58" fill="none" xmlns="http://www.w3.org/2000/svg">
<path d="M28.6729 41.2381C27.8949 40.7918 27.1493 40.1101 26.7416 39.586C26.0979 39.0353 25.7226 38.2758 25.2131 37.6207C24.8378 36.8612 24.194 36.3105 23.5503 35.7598L21.6191 34.1076C20.9753 33.5569 20.3316 33.0062 19.9563 32.2467C19.4468 31.5916 18.9372 30.9365 18.4277 30.2814C18.122 29.8884 17.784 29.7307 17.4459 29.5731C17.1079 29.4154 16.8022 29.0224 16.5984 28.7603L13.0044 25.2473C12.3606 24.6966 11.7169 24.1459 11.0731 23.5952C10.2952 23.1489 9.51721 22.7025 9.14191 21.943C8.76661 21.1836 8.12287 20.6328 7.61334 19.9777C5.30682 17.5661 3.13451 15.0501 0.827978 12.6385C0.522265 12.2454 0.484998 11.6436 0.887667 11.3304L1.02189 11.226C1.55878 10.8084 2.09567 10.3908 2.63257 9.97326L3.56718 8.40522C4.64096 7.57006 5.61284 6.60388 6.68662 5.76872C6.95507 5.55993 7.22352 5.35114 7.59387 5.27337C7.96422 5.1956 8.33457 5.11783 8.60301 4.90904L10.2137 3.6563C11.2875 2.82114 12.3613 1.98598 13.435 1.15082C13.8377 0.837638 14.31 0.890888 14.6157 1.28395L17.2701 5.52775C18.155 6.94235 19.0398 8.35695 19.9246 9.77155C20.2999 10.531 20.8094 11.1861 21.3189 11.8412C21.7589 12.1299 21.9627 12.392 22.1342 12.8894L22.8152 14.042C23.7 15.4566 24.4506 16.9756 25.3354 18.3902L27.9899 22.634C28.8747 24.0486 29.7595 25.4632 30.6443 26.8778L32.0387 28.9475C32.5482 29.6026 32.9235 30.3621 33.433 31.0172L34.6931 33.1913L36.0875 35.261C36.3932 35.654 36.2962 36.3603 35.8935 36.6735L35.7593 36.7778C34.8198 37.5086 33.8802 38.2394 33.0426 39.1012C32.5057 39.5187 32.2049 39.963 31.5661 40.2495C31.0292 40.6671 30.6265 40.9803 30.0896 41.3979C29.687 41.711 29.0805 41.7622 28.6406 41.4735L28.6729 41.2381ZM29.533 38.4664C29.6672 38.362 29.9356 38.1532 30.0699 38.0488C30.6067 37.6312 31.0094 37.318 31.5463 36.9004C32.5878 36.3007 33.5273 35.5699 34.4669 34.8392L34.1064 36.5915L32.8463 34.4174C32.471 33.6579 32.0957 32.8984 31.5862 32.2433C31.2805 31.8502 30.9425 31.6926 30.6367 31.2995C30.331 30.9064 30.2614 30.54 30.0576 30.278C29.6823 29.5185 29.4413 28.6546 29.066 27.8951C29.0287 27.2932 28.8249 27.0312 28.6534 26.5337C28.4496 26.2717 28.1439 25.8786 27.8382 25.4856C27.3287 24.8305 26.8191 24.1754 26.4438 23.4159C25.559 22.0013 24.6742 20.5867 23.7894 19.1721L21.1349 14.9283C20.2501 13.5137 19.3653 12.0991 18.4805 10.6845C17.5956 9.26988 16.7108 7.85528 15.826 6.44068L13.1715 2.19688L15.0606 2.40988C14.5237 2.82746 13.9868 3.24504 13.348 3.5316C12.8111 3.94918 12.2742 4.36676 11.6354 4.65332L9.62206 6.21925C9.08516 6.63683 8.44637 6.92339 7.90948 7.34097C7.37258 7.75855 6.83569 8.17613 6.2988 8.59371C5.76191 9.01129 5.22502 9.42887 4.79003 9.97747C4.35504 10.5261 4.02196 11.2057 3.48507 11.6233C2.94817 12.0409 2.30938 12.3274 1.53636 12.7184L1.62837 11.1749C2.13789 11.83 2.78163 12.3807 3.29115 13.0358L8.68218 18.3053C9.32592 18.856 9.96967 19.4067 10.4792 20.0618C10.9887 20.7169 11.6325 21.2676 12.2762 21.8183C13.5637 22.9198 14.8512 24.0212 16.0044 25.227C16.6482 25.7777 17.1577 26.4328 17.6672 27.0879C18.1767 27.743 18.8205 28.2937 19.4642 28.8444L21.5297 30.3921C22.1734 30.9429 22.8172 31.4936 23.3267 32.1487L24.8553 34.114C25.3648 34.7691 26.0085 35.3198 26.6523 35.8705C27.296 36.4212 27.9398 36.9719 28.5835 37.5226C28.8892 37.9157 29.093 38.1777 29.533 38.4664Z" fill="#998EF3"/>
<path d="M44.4908 48.281C44.4908 48.281 44.3889 48.15 44.287 48.019C44.0832 47.7569 43.9489 47.8613 43.7451 47.5993C43.4071 47.4417 43.0691 47.284 42.731 47.1264C42.393 46.9687 41.8188 46.7844 41.3466 46.7312C40.7401 46.7823 40.2355 46.9645 39.5967 47.2511L39.0922 47.4332C38.9579 47.5376 38.6895 47.7464 38.6895 47.7464C38.421 47.9552 38.1526 48.164 37.9861 48.5038C37.8195 48.8436 37.8891 49.21 37.7226 49.5499C37.6902 49.7853 37.6256 50.2561 37.4591 50.5959C37.3621 51.3022 37.8716 51.9573 38.145 52.5857C38.4507 52.9788 38.5526 53.1098 38.9926 53.3985C39.3306 53.5561 39.6686 53.7138 40.0067 53.8714C40.6827 54.1867 41.5253 54.1622 42.266 54.0067C42.6364 53.9289 43.0067 53.8511 43.1733 53.5113C43.4417 53.3025 43.6083 52.9627 43.8767 52.7539C44.2794 52.4407 44.7144 51.8921 44.9132 51.3169C45.1121 50.7417 45.1767 50.2708 45.0052 49.7734C44.8337 49.2759 45.0003 48.9361 44.7965 48.6741C44.6946 48.5431 44.3889 48.15 44.4908 48.281ZM46.3699 46.8195C46.3699 46.8195 46.4718 46.9505 46.6756 47.2126C46.8794 47.4746 47.2174 47.6322 47.4908 48.2607C47.6623 48.7582 47.9357 49.3867 47.9407 50.2239C47.9456 51.0612 47.9506 51.8985 47.4833 52.6825C47.1179 53.5975 46.6506 54.3815 45.8129 55.2433C45.5444 55.4521 45.1095 56.0007 44.5726 56.4183C44.1699 56.7315 43.4292 56.887 42.9246 57.0692C41.7117 57.1715 40.531 57.0383 39.3827 56.6698C38.8086 56.4855 38.3686 56.1968 37.8268 55.7772C37.3868 55.4885 36.9792 54.9644 36.5716 54.4403C35.9925 53.4188 35.2792 52.5016 35.1027 51.1669C35.0282 49.9632 35.1898 48.7861 35.8237 47.6623C36.0225 47.0871 36.3233 46.6429 36.7583 46.0943C37.0267 45.8855 37.1609 45.7811 37.2952 45.6767C37.5636 45.4679 37.6978 45.3635 37.9663 45.1547C38.7716 44.5284 39.9846 44.4261 40.8272 44.4016C41.6698 44.377 42.6143 44.4835 43.2903 44.7988C43.9664 45.1141 44.5406 45.2984 44.8463 45.6915C45.6566 45.9023 45.9623 46.2954 46.0642 46.4264C46.1661 46.5575 46.268 46.6885 46.3699 46.8195Z" fill="#998EF3"/>
</svg>
