<svg width="58" height="46" viewBox="0 0 58 46" fill="none" xmlns="http://www.w3.org/2000/svg">
<path d="M37.5868 30.9462C37.6207 30.3215 37.1599 29.816 37.0518 29.2215C36.7444 27.2922 38.6712 27.1087 37.8545 26.0218C36.933 25.0865 35.7058 27.0095 35.3497 27.7451C33.1742 32.1278 36.8548 34.5703 37.5868 30.9462Z" fill="#998EF3"/>
<path d="M35.8175 41.7183C36.1439 40.6764 34.5238 40.225 34.2487 41.2688C33.8469 42.5942 32.253 43.872 30.8848 43.1707C23.9684 39.7 17.2629 35.1766 10.3287 31.7753C8.21228 30.7543 5.18196 28.8502 3.75913 27.3792C0.142347 22.371 12.0785 19.0256 14.0374 15.1197C16.6088 11.8617 18.4625 7.72655 22.2109 5.74337C27.5118 2.875 34.3923 4.87849 37.5978 9.91643C40.4531 11.1623 38.8889 7.36417 35.0879 4.51036C36.1335 3.70106 37.0992 2.6805 36.8585 1.31542C36.6291 0.149344 34.882 0.13007 34.3213 1.03516C34.0762 1.38781 34.1261 1.88033 34.0949 2.29812C34.0357 2.73327 33.8463 3.14914 33.5765 3.50466C30.7707 1.86341 27.1361 0.932832 23.2697 2.35206C15.0793 4.28268 14.0617 13.613 7.30558 17.4112C-5.65399 25.7523 3.4915 30.5552 12.024 34.8744C7.64114 40.4776 18.3042 46.6007 20.3229 39.5089C20.3306 39.4626 20.3335 39.4172 20.3334 39.3725C23.5921 41.1985 27.0112 43.0776 30.1593 44.6686C32.4445 45.8178 35.1416 44.0122 35.8175 41.7183ZM17.9661 39.2822C16.6391 39.8873 14.7656 40.3882 13.5864 39.2354C12.5887 38.2772 12.4877 36.8643 13.3767 35.7839C13.4231 35.729 13.4601 35.6733 13.4896 35.6173C14.6916 36.2298 15.8542 36.836 16.9102 37.4449C17.6152 37.843 18.3376 38.2508 19.0704 38.6632C18.6896 38.8524 18.3384 39.097 17.9661 39.2822Z" fill="#998EF3"/>
<path d="M56.7181 17.2245C57.1696 16.9381 57.4699 16.4048 57.3378 15.6882C55.2853 5.89237 40.5161 3.1472 34.9008 11.3767C23.6082 30.7868 58.2859 39.9533 56.7181 17.2245ZM35.1282 17.4029C36.1889 6.58438 52.1475 6.41392 54.5137 16.3427C54.6589 16.8846 54.9901 17.2145 55.377 17.3649C57.3657 32.7511 33.3652 32.3987 35.1282 17.4029Z" fill="#998EF3"/>
<path d="M47.3869 17.9331C47.6575 17.179 48.315 16.5505 48.3639 15.7476C48.1428 14.4407 46.5805 15.1523 45.7098 15.1952C45.0151 15.3487 44.303 15.2232 43.6221 15.3899C42.3165 15.9905 43.0901 17.8872 44.4373 17.3921C44.82 17.2399 45.2121 17.1168 45.6097 17.0207C44.6766 18.496 43.6808 20.1761 42.6251 21.5398C41.3497 23.2967 44.1688 24.9852 45.1105 23.0227C45.8324 21.3866 46.6086 19.5311 47.3869 17.9331Z" fill="#998EF3"/>
</svg>
