<svg width="73" height="65" viewBox="0 0 73 65" fill="none" xmlns="http://www.w3.org/2000/svg">
<path d="M71.3 64.1785C70.7 62.2785 70.1 60.4785 69.4 58.5785C68.7 56.6785 68 54.8785 67.1 53.0785C66.3 51.2785 65.3 49.5785 64.3 47.8785C63.2 46.1785 62.2 44.4785 61.1 42.8785C60 41.2785 58.8 39.6785 57.6 38.0785C56.4 36.5785 55.1 35.0785 53.7 33.5785L51.6 31.4785C50.9 30.7785 50.2 30.1785 49.5 29.3785C48.8 28.6785 48 28.0785 47.3 27.3785L46.2 26.3785L45 25.4785C43.5 24.1785 41.9 22.9785 40.2 21.8785L37.7 20.2785C36.9 19.6785 36 19.1785 35.2 18.7785C33.5 17.7785 31.8 16.6785 30 15.8785C29.1 15.4785 28.2 15.0785 27.3 14.6785C26.4 14.2785 25.5 13.8785 24.5 13.5785C22.6 12.8785 20.7 12.3785 18.8 11.7785C16.9 11.1785 15 10.6785 13.1 10.1785L11.7 9.77846L10.2 9.47846L7.3 8.87846C6.3 8.67846 5.3 8.57846 4.3 8.47846L1.3 8.07846C1 7.97846 0.8 7.67846 0.8 7.37846C0.8 7.07846 1.1 6.87846 1.4 6.87846C3.1 6.87846 4.8 6.97846 6.5 7.07846L11.6 7.37846L16.7 7.97846L19.2 8.27846C20 8.37846 20.9 8.37846 21.7 8.57846C23.4 8.87846 25.1 9.17846 26.7 9.47846L29.2 9.97846L31.7 10.6785L36.6 12.0785L41.4 13.8785C43 14.4785 44.5 15.2785 46.1 15.9785C47.6 16.7785 49.2 17.4785 50.6 18.3785C51.3 18.7785 52.1 19.1785 52.8 19.5785L53.9 20.1785C54.3 20.3785 54.6 20.6785 55 20.8785L57.1 22.3785C57.8 22.8785 58.5 23.3785 59.2 23.8785C60.5 24.9785 61.9 25.9785 63.1 27.1785L65 28.9785C65.6 29.5785 66.1 30.2785 66.7 30.8785L67.6 31.8785L68.4 32.8785C68.9 33.5785 69.5 34.1785 70 34.8785C71 36.2785 71.9 37.6785 72.7 39.3785C72.9 39.7785 72.7 40.1785 72.4 40.3785C72 40.5785 71.6 40.3785 71.4 40.0785V39.9785C71.1 39.2785 70.6 38.5785 70.2 37.8785C69.8 37.1785 69.3 36.4785 68.8 35.7785C68.4 35.0785 67.8 34.4785 67.3 33.7785C67 33.4785 66.8 33.0785 66.5 32.7785L65.7 31.7785L64.1 29.8785C63.5 29.2785 62.9 28.6785 62.4 28.0785C61.8 27.4785 61.3 26.8785 60.6 26.3785L58.6 24.7785C58 24.2785 57.3 23.7785 56.6 23.2785L54.5 21.8785C54.2 21.6785 53.8 21.3785 53.5 21.1785C53.1 20.9785 52.8 20.7785 52.4 20.4785C51.7 19.9785 51 19.5785 50.3 19.0785C48.9 18.1785 47.3 17.5785 45.8 16.8785C44.3 16.1785 42.8 15.4785 41.2 14.9785L36.5 13.1785L29.3 11.0785L26.8 10.5785C25.1 10.2785 23.5 9.87846 21.8 9.67846C21 9.47846 20.1 9.47846 19.3 9.37846C18.5 9.27846 17.6 9.07846 16.8 8.97846C15.1 8.77846 13.4 8.57846 11.8 8.37846C8.2 8.27846 4.8 8.07846 1.4 8.07846L1.5 6.87846L4.5 7.27846C5.5 7.37846 6.5 7.47846 7.5 7.67846L12 8.57846L13.5 8.97846C15.4 9.47846 17.4 9.87846 19.3 10.4785C21.2 10.9785 23.2 11.5785 25.1 12.2785C26.1 12.5785 27 12.9785 27.9 13.3785C28.8 13.7785 29.8 14.0785 30.7 14.5785C31.2 14.7785 31.6 15.0785 32 15.3785C32.4 15.6785 32.9 15.8785 33.3 16.0785C33.8 16.2785 34.2 16.5785 34.6 16.7785L35.9 17.5785C37.7 18.5785 39.3 19.6785 41 20.8785C42.6 22.0785 44.2 23.2785 45.8 24.5785C46.2 24.8785 46.6 25.1785 47 25.4785L48.2 26.4785C49 27.1785 49.8 27.7785 50.5 28.4785C51.2 29.1785 52 29.8785 52.7 30.5785L54.8 32.7785C56.2 34.2785 57.5 35.7785 58.7 37.3785C60 38.9785 61.2 40.5785 62.3 42.2785C63.4 43.9785 64.5 45.6785 65.6 47.3785C66.6 49.0785 67.7 50.8785 68.5 52.6785C69.4 54.4785 70.1 56.3785 70.8 58.2785C71.5 60.1785 72.2 62.0785 72.8 64.0785C72.9 64.4785 72.7 64.8785 72.3 64.9785C71.9 64.8785 71.5 64.5785 71.3 64.1785Z" fill="#998EF3"/>
<path d="M17.3 1.37846C16.7 1.77846 16 1.97846 15.3 2.27846C15 2.37846 14.6 2.57846 14.3 2.67846L13.3 3.07846C12.6 3.27846 11.9 3.57846 11.2 3.87846C10.5 4.17846 9.8 4.37846 9.1 4.67846C8.8 4.77846 8.4 4.97846 8.1 5.07846L7.1 5.47846C6.8 5.57846 6.4 5.77846 6.1 5.87846C5.8 6.07846 5.5 6.27846 5.1 6.37846C4.4 6.67846 3.7 6.97846 3 7.17846C2.3 7.47846 1.7 7.77846 1 8.07846V6.87846C2.3 7.67846 3.7 8.47846 5 9.27846L8 11.0785C8.3 11.2785 8.7 11.3785 9.1 11.5785C9.8 11.8785 10.5 12.2785 11.2 12.6785C11.9 13.0785 12.5 13.4785 13.2 13.8785C13.9 14.2785 14.6 14.4785 15.3 14.9785C15.6 15.1785 16 15.3785 16.3 15.5785C16.6 15.7785 17 15.9785 17.4 16.0785C17.8 16.2785 17.9 16.6785 17.8 16.9785C17.7 17.2785 17.3 17.4785 16.9 17.3785L16.7 17.2785C16.3 17.1785 16 16.9785 15.6 16.8785C15.2 16.7785 14.9 16.5785 14.5 16.3785C13.8 15.9785 13.1 15.5785 12.5 15.1785C11.8 14.7785 11.2 14.2785 10.5 13.9785C9.8 13.5785 9.1 13.2785 8.4 12.8785C8.1 12.6785 7.7 12.5785 7.4 12.2785L6.4 11.6785C5.8 11.2785 5.1 10.7785 4.4 10.4785L0.4 8.07846C0 7.87846 -0.1 7.37846 0.1 7.07846C0.2 6.97846 0.3 6.87846 0.4 6.77846C1.1 6.47846 1.7 6.17846 2.4 5.87846L4.4 4.97846C5.1 4.67846 5.7 4.37846 6.4 4.07846L7.4 3.57846C7.7 3.47846 8.1 3.37846 8.5 3.27846C9.2 2.97846 9.9 2.67846 10.6 2.47846C11.3 2.27846 12 1.97846 12.7 1.67846L16.8 0.078461C17.2 -0.121539 17.6 0.078461 17.8 0.478461C17.8 0.778461 17.7 1.17846 17.3 1.37846Z" fill="#998EF3"/>
</svg>
