<svg width="73" height="65" viewBox="0 0 73 65" fill="none" xmlns="http://www.w3.org/2000/svg">
<path d="M1.52422 0.821535C2.12422 2.72154 2.72423 4.52154 3.42422 6.42154C4.12422 8.32154 4.82422 10.1215 5.72422 11.9215C6.52423 13.7215 7.52422 15.4215 8.52422 17.1215C9.62422 18.8215 10.6242 20.5215 11.7242 22.1215C12.8242 23.7215 14.0242 25.3215 15.2242 26.9215C16.4242 28.4215 17.7242 29.9215 19.1242 31.4215L21.2242 33.5215C21.9242 34.2215 22.6242 34.8215 23.3242 35.6215C24.0242 36.3215 24.8242 36.9215 25.5242 37.6215L26.6242 38.6215L27.8242 39.5215C29.3242 40.8215 30.9242 42.0215 32.6242 43.1215L35.1242 44.7215C35.9242 45.3215 36.8242 45.8215 37.6242 46.2215C39.3242 47.2215 41.0242 48.3215 42.8242 49.1215C43.7242 49.5215 44.6242 49.9215 45.5242 50.3215C46.4242 50.7215 47.3242 51.1215 48.3242 51.4215C50.2242 52.1215 52.1242 52.6215 54.0242 53.2215C55.9242 53.8215 57.8242 54.3215 59.7242 54.8215L61.1242 55.2215L62.6242 55.5215L65.5242 56.1215C66.5242 56.3215 67.5242 56.4215 68.5242 56.5215L71.5242 56.9215C71.8242 57.0215 72.0242 57.3215 72.0242 57.6215C72.0242 57.9215 71.7242 58.1215 71.4242 58.1215C69.7242 58.1215 68.0242 58.0215 66.3242 57.9215L61.2242 57.6215L56.1242 57.0215L53.6242 56.7215C52.8242 56.6215 51.9242 56.6215 51.1242 56.4215C49.4242 56.1215 47.7242 55.8215 46.1242 55.5215L43.6242 55.0215L41.1242 54.3215L36.2242 52.9215L31.4242 51.1215C29.8242 50.5215 28.3242 49.7215 26.7242 49.0215C25.2242 48.2215 23.6242 47.5215 22.2242 46.6215C21.5242 46.2215 20.7242 45.8215 20.0242 45.4215L18.9242 44.8215C18.5242 44.6215 18.2242 44.3215 17.8242 44.1215L15.7242 42.6215C15.0242 42.1215 14.3242 41.6215 13.6242 41.1215C12.3242 40.0215 10.9242 39.0215 9.72422 37.8215L7.82422 36.0215C7.22422 35.4215 6.72422 34.7215 6.12422 34.1215L5.22422 33.1215L4.42422 32.1215C3.92422 31.4215 3.32422 30.8215 2.82422 30.1215C1.82422 28.7215 0.924228 27.3215 0.124225 25.6215C-0.0757717 25.2215 0.124218 24.8215 0.424221 24.6215C0.824222 24.4215 1.22422 24.6215 1.42422 24.9215L1.42422 25.0215C1.72422 25.7215 2.22422 26.4215 2.62423 27.1215C3.02423 27.8215 3.52422 28.5215 4.02422 29.2215C4.42422 29.9215 5.02422 30.5215 5.52422 31.2215C5.82422 31.5215 6.02422 31.9215 6.32422 32.2215L7.12422 33.2215L8.72422 35.1215C9.32422 35.7215 9.92422 36.3215 10.4242 36.9215C11.0242 37.5215 11.5242 38.1215 12.2242 38.6215L14.2242 40.2215C14.8242 40.7215 15.5242 41.2215 16.2242 41.7215L18.3242 43.1215C18.6242 43.3215 19.0242 43.6215 19.3242 43.8215C19.7242 44.0215 20.0242 44.2215 20.4242 44.5215C21.1242 45.0215 21.8242 45.4215 22.5242 45.9215C23.9242 46.8215 25.5242 47.4215 27.0242 48.1215C28.5242 48.8215 30.0242 49.5215 31.6242 50.0215L36.3242 51.8215L43.5242 53.9215L46.0242 54.4215C47.7242 54.7215 49.3242 55.1215 51.0242 55.3215C51.8242 55.5215 52.7242 55.5215 53.5242 55.6215C54.3242 55.7215 55.2242 55.9215 56.0242 56.0215C57.7242 56.2215 59.4242 56.4215 61.0242 56.6215C64.6242 56.7215 68.0242 56.9215 71.4242 56.9215L71.3242 58.1215L68.3242 57.7215C67.3242 57.6215 66.3242 57.5215 65.3242 57.3215L60.8242 56.4215L59.3242 56.0215C57.4242 55.5215 55.4242 55.1215 53.5242 54.5215C51.6242 54.0215 49.6242 53.4215 47.7242 52.7215C46.7242 52.4215 45.8242 52.0215 44.9242 51.6215C44.0242 51.2215 43.0242 50.9215 42.1242 50.4215C41.6242 50.2215 41.2242 49.9215 40.8242 49.6215C40.4242 49.3215 39.9242 49.1215 39.5242 48.9215C39.0242 48.7215 38.6242 48.4215 38.2242 48.2215L36.9242 47.4215C35.1242 46.4215 33.5242 45.3215 31.8242 44.1215C30.2242 42.9215 28.6242 41.7215 27.0242 40.4215C26.6242 40.1215 26.2242 39.8215 25.8242 39.5215L24.6242 38.5215C23.8242 37.8215 23.0242 37.2215 22.3242 36.5215C21.6242 35.8215 20.8242 35.1215 20.1242 34.4215L18.0242 32.2215C16.6242 30.7215 15.3242 29.2215 14.1242 27.6215C12.8242 26.0215 11.6242 24.4215 10.5242 22.7215C9.42422 21.0215 8.32422 19.3215 7.22422 17.6215C6.22422 15.9215 5.12423 14.1215 4.32422 12.3215C3.42422 10.5215 2.72422 8.62154 2.02422 6.72154C1.32422 4.82153 0.62422 2.92153 0.0242213 0.921533C-0.0757771 0.521531 0.12422 0.12153 0.524221 0.0215315C0.924223 0.12153 1.32422 0.421533 1.52422 0.821535Z" fill="#998EF3"/>
<path d="M55.5242 63.6215C56.1242 63.2215 56.8242 63.0215 57.5242 62.7215C57.8242 62.6215 58.2242 62.4215 58.5242 62.3215L59.5242 61.9215C60.2242 61.7215 60.9242 61.4215 61.6242 61.1215C62.3242 60.8215 63.0242 60.6215 63.7242 60.3215C64.0242 60.2215 64.4242 60.0215 64.7242 59.9215L65.7242 59.5215C66.0242 59.4215 66.4242 59.2215 66.7242 59.1215C67.0242 58.9215 67.3242 58.7215 67.7242 58.6215C68.4242 58.3215 69.1242 58.0215 69.8242 57.8215C70.5242 57.5215 71.1242 57.2215 71.8242 56.9215L71.8242 58.1215C70.5242 57.3215 69.1242 56.5215 67.8242 55.7215L64.8242 53.9215C64.5242 53.7215 64.1242 53.6215 63.7242 53.4215C63.0242 53.1215 62.3242 52.7215 61.6242 52.3215C60.9242 51.9215 60.3242 51.5215 59.6242 51.1215C58.9242 50.7215 58.2242 50.5215 57.5242 50.0215C57.2242 49.8215 56.8242 49.6215 56.5242 49.4215C56.2242 49.2215 55.8242 49.0215 55.4242 48.9215C55.0242 48.7215 54.9242 48.3215 55.0242 48.0215C55.1242 47.7215 55.5242 47.5215 55.9242 47.6215L56.1242 47.7215C56.5242 47.8215 56.8242 48.0215 57.2242 48.1215C57.6242 48.2215 57.9242 48.4215 58.3242 48.6215C59.0242 49.0215 59.7242 49.4215 60.3242 49.8215C61.0242 50.2215 61.6242 50.7215 62.3242 51.0215C63.0242 51.4215 63.7242 51.7215 64.4242 52.1215C64.7242 52.3215 65.1242 52.4215 65.4242 52.7215L66.4242 53.3215C67.0242 53.7215 67.7242 54.2215 68.4242 54.5215L72.4242 56.9215C72.8242 57.1215 72.9242 57.6215 72.7242 57.9215C72.6242 58.0215 72.5242 58.1215 72.4242 58.2215C71.7242 58.5215 71.1242 58.8215 70.4242 59.1215L68.4242 60.0215C67.7242 60.3215 67.1242 60.6215 66.4242 60.9215L65.4242 61.4215C65.1242 61.5215 64.7242 61.6215 64.3242 61.7215C63.6242 62.0215 62.9242 62.3215 62.2242 62.5215C61.5242 62.7215 60.8242 63.0215 60.1242 63.3215L56.0242 64.9215C55.6242 65.1215 55.2242 64.9215 55.0242 64.5215C55.0242 64.2215 55.1242 63.8215 55.5242 63.6215Z" fill="#998EF3"/>
</svg>
