<svg width="52" height="90" viewBox="0 0 52 90" fill="none" xmlns="http://www.w3.org/2000/svg">
<path d="M42.7444 89.8455C42.7444 89.8455 38.6028 89.9227 31.3354 90C29.5382 90 27.5064 90 25.3184 90C24.2244 90 23.0523 89.9227 21.8801 89.9227C20.708 89.8455 19.4577 89.9227 18.2074 89.9227C15.7068 90.1545 12.9718 89.7682 10.1586 89.9227C9.76791 89.9227 9.45534 89.9227 9.06462 89.9227C8.6739 89.9227 8.36133 89.9227 7.97061 89.8455C7.18918 89.7682 6.40775 89.5365 5.62632 89.2275C4.14159 88.6094 2.73501 87.6051 1.7973 86.2146C1.32844 85.5193 0.937719 84.7468 0.703289 83.9742C0.46886 83.2017 0.156287 82.3519 0.0781433 81.5021C0 80.6524 0.0781433 79.8798 0.0781433 79.03C0.156287 78.1803 0.23443 77.4077 0.23443 76.5579C0.23443 75.7082 0.156287 74.8584 0.156287 74.0086C0.156287 73.1588 0.156287 72.309 0.156287 71.4592C0.156287 70.9957 0.156287 70.6094 0.23443 70.1459C0.23443 69.6824 0.390716 69.2961 0.390716 68.8326C0.390716 67.9828 0.390716 67.0558 0.390716 66.206C0.23443 59.176 0.156287 51.6824 0.0781433 44.0343C0.0781433 42.103 0.0781433 40.1717 0.0781433 38.2403C0.0781433 37.236 0.0781433 36.309 0.0781433 35.3047C0.0781433 34.7639 0 34.2232 0 33.7597C0 33.2961 0 32.7554 0 32.2918C0 28.3519 0.0781433 24.3348 0.0781433 20.2403C0.0781433 18.2318 0.0781433 16.2232 0.0781433 14.1373C0.0781433 13.133 0.0781433 12.1288 0.0781433 11.0472V8.72961L0.156287 7.95708C0.390716 5.79399 1.48472 3.70815 3.12573 2.3176C4.76674 0.849785 6.95475 0 9.14276 0C10.1586 0 11.2526 0.154506 12.2685 0.23176H15.3942C16.4101 0.23176 17.5041 0.23176 18.52 0.23176C19.5358 0.154506 20.6298 0.23176 21.6457 0.309013C23.6774 0.386266 25.7873 0.154506 27.819 0.154506C28.8349 0.154506 29.8507 0.154506 30.8666 0.154506C31.8825 0.154506 32.8983 0.154506 33.9142 0.154506C35.9459 0.154506 37.9776 0.0772532 40.0094 0.0772532C41.0252 0.0772532 42.0411 0 43.0569 0.0772532C43.5258 0.0772532 44.1509 0.154506 44.6198 0.309013C45.1668 0.463519 45.6357 0.618026 46.1045 0.772532C48.2144 1.54506 49.7773 3.09013 50.715 4.94421C51.1838 5.87124 51.4964 6.87554 51.5746 7.87983C51.6527 8.88412 51.5746 9.88841 51.5746 10.8155C51.5746 14.6781 51.6527 18.4635 51.7308 22.1717C51.7308 24.0258 51.809 25.8798 51.809 27.6567C51.809 29.4335 51.8871 31.2876 51.8871 32.9871C51.8871 36.5408 51.9653 39.9399 51.9653 43.2618C51.9653 44.1116 51.8871 44.8841 51.8871 45.7339C51.8871 46.5837 51.8871 47.3562 51.8871 48.1288C51.8871 49.7511 51.9653 51.2961 51.9653 52.8412C51.9653 54.3863 52.0434 55.8541 51.9653 57.3991C51.8871 58.867 51.809 60.3348 51.809 61.7253C51.7308 62.4206 51.809 63.1159 51.8871 63.8112C51.9653 64.5064 51.9653 65.2017 51.8871 65.8197C51.8871 67.133 51.8871 68.4464 51.809 69.6824C51.809 72.1545 51.7308 74.5494 51.7308 76.7124C51.7308 77.794 51.7308 78.7983 51.7308 79.8026C51.7308 80.8069 51.7308 81.7339 51.4964 82.7382C51.1057 84.5923 50.0898 86.0601 49.074 87.1416C47.98 88.1459 46.886 88.8412 45.8701 89.1502C45.4012 89.382 44.9324 89.4592 44.5417 89.5365C44.1509 89.6137 43.8384 89.691 43.5258 89.691C43.0569 89.7682 42.7444 89.8455 42.7444 89.8455ZM42.7444 88.6867C42.7444 88.6867 42.9788 88.6867 43.4477 88.6867C43.6821 88.6867 43.9947 88.6094 44.3072 88.5322C44.6198 88.4549 45.0105 88.3777 45.4794 88.2232C46.339 87.9142 47.3548 87.3734 48.2925 86.4464C49.2303 85.5193 50.0898 84.206 50.4805 82.5837C50.5587 82.3519 50.5587 82.1974 50.5587 81.9657C50.6368 81.7339 50.6368 81.5794 50.6368 81.2704V80.5751C50.6368 80.3433 50.6368 80.1116 50.6368 79.8026C50.6368 78.7983 50.6368 77.794 50.6368 76.7124C50.6368 74.5494 50.6368 72.2318 50.715 69.6824C50.715 68.4464 50.715 67.133 50.715 65.8197C50.715 65.1245 50.715 64.5064 50.6368 63.8112C50.5587 63.1159 50.4805 62.4206 50.4805 61.7253C50.4024 58.9442 50.4805 55.9313 50.5587 52.9185C50.5587 51.3734 50.6368 49.8283 50.6368 48.206C50.6368 47.4335 50.715 46.5837 50.715 45.8112C50.715 44.9614 50.6368 44.1888 50.6368 43.3391C50.715 40.0172 50.715 36.618 50.7931 33.0644C50.9494 29.5107 50.715 25.8798 50.715 22.1717C50.715 18.4635 50.6368 14.6781 50.6368 10.8155C50.6368 9.88841 50.7931 8.88412 50.715 7.95708C50.6368 7.03004 50.3243 6.18026 49.9336 5.33047C49.074 3.6309 47.6674 2.24034 45.9482 1.54506C45.4794 1.39056 45.0887 1.23605 44.6198 1.08154C44.1509 1.00429 43.6821 0.927039 43.2132 0.849785C42.2755 0.849785 41.1815 0.849785 40.1656 0.849785C38.1339 0.849785 36.1022 0.849785 34.0705 0.927039C32.0387 0.927039 30.007 0.927039 27.8971 1.00429C25.8654 1.00429 23.7556 0.927039 21.7238 1.1588C17.5822 1.00429 13.4406 1.00429 9.29905 1.00429C7.34547 1.00429 5.39189 1.69957 3.90716 3.01288C2.3443 4.32618 1.40658 6.18026 1.25029 8.03433L1.17215 8.80687V11.1245C1.17215 12.1288 1.17215 13.133 1.17215 14.2146C1.17215 16.2232 1.17215 18.309 1.17215 20.3176C1.17215 24.3348 1.17215 28.3519 1.17215 32.3691C1.17215 32.8326 1.17215 33.3734 1.17215 33.8369C1.17215 34.3004 1.25029 34.8412 1.25029 35.3047C1.25029 36.309 1.25029 37.236 1.25029 38.2403C1.25029 39.2446 1.25029 40.1717 1.25029 41.176C1.25029 42.1803 1.25029 43.1073 1.25029 44.1116C1.32844 45.0386 1.32844 46.0429 1.32844 46.97C1.32844 47.897 1.32844 48.9013 1.32844 49.8283C1.32844 51.6824 1.32844 53.6137 1.40658 55.4678C1.40658 59.176 1.48472 62.8069 1.48472 66.3605C1.48472 67.2103 1.48472 68.1373 1.48472 68.9871C1.48472 69.8369 1.32844 70.6867 1.32844 71.6137C1.17215 73.3133 1.25029 75.0129 1.40658 76.7124C1.48472 77.5622 1.56287 78.3348 1.56287 79.1845C1.56287 79.5708 1.56287 80.0343 1.56287 80.4206C1.56287 80.8069 1.56287 81.1931 1.56287 81.5794C1.56287 82.3519 1.71915 83.0472 1.95358 83.7425C2.18801 84.4378 2.57873 85.0558 2.96944 85.6738C3.82902 86.8326 4.92303 87.7597 6.17332 88.3004C6.79846 88.5322 7.50175 88.7639 8.1269 88.8412C8.43947 88.9184 8.83019 88.9184 9.14276 88.9184C9.45534 88.9184 9.84605 88.9184 10.1586 88.9184C12.9718 88.9957 15.7068 88.9957 18.2074 88.8412C20.708 88.7639 23.1304 88.9184 25.3184 88.8412C27.5064 88.7639 29.5382 88.7639 31.3354 88.6867C38.6028 88.6094 42.7444 88.6867 42.7444 88.6867Z" fill="#998EF3"/>
<path d="M11.2526 17.2275C12.2021 17.2275 12.9718 16.4665 12.9718 15.5279C12.9718 14.5892 12.2021 13.8283 11.2526 13.8283C10.3032 13.8283 9.53348 14.5892 9.53348 15.5279C9.53348 16.4665 10.3032 17.2275 11.2526 17.2275Z" fill="#998EF3"/>
<path d="M12.3466 15.5279C12.3466 15.5279 12.3466 15.4506 12.3466 15.3734C12.3466 15.2961 12.3466 15.2961 12.3466 15.1416C12.2685 14.9871 12.1122 14.6781 11.8778 14.5236C11.7215 14.4464 11.5652 14.3691 11.4089 14.3691C11.4089 14.3691 11.3308 14.3691 11.2526 14.3691C11.1745 14.3691 11.0963 14.3691 11.0963 14.3691C11.0182 14.3691 10.9401 14.4464 10.8619 14.4464C10.4712 14.6781 10.3149 15.0644 10.3149 15.4506V15.6052C10.3149 15.6052 10.3149 15.6824 10.3149 15.7597C10.3149 15.8369 10.3931 15.9142 10.3931 16.0687C10.4712 16.2232 10.6275 16.3777 10.8619 16.4549C11.0963 16.5322 11.1745 16.5322 11.4089 16.5322C11.4871 16.5322 11.7215 16.4549 11.7996 16.3777C12.0341 16.2232 12.2685 15.9914 12.2685 15.8369C12.3466 15.6051 12.3466 15.5279 12.3466 15.5279ZM13.5188 15.5279C13.5188 15.5279 13.5188 15.7597 13.4406 16.1459C13.3625 16.5322 13.0499 17.073 12.5029 17.4592C12.1903 17.691 11.8778 17.8455 11.4871 17.8455C11.1745 17.8455 10.7056 17.8455 10.3149 17.6137C9.9242 17.4592 9.61162 17.1502 9.37719 16.7639C9.22091 16.6094 9.14276 16.3777 9.06462 16.1459C9.06462 16.0687 8.98648 15.9142 8.98648 15.8369C8.98648 15.6824 8.90833 15.6824 8.90833 15.5279C8.83019 15.0644 8.98648 14.6009 9.29905 14.2146C9.61162 13.8283 9.9242 13.5966 10.3149 13.3648C10.5493 13.2876 10.7056 13.2103 10.9401 13.133C11.0963 13.133 11.0963 13.133 11.1745 13.133C11.3308 13.133 11.4089 13.133 11.4871 13.133C11.8778 13.133 12.2685 13.2876 12.5811 13.5193C13.2062 13.9056 13.4406 14.5236 13.5188 14.9099C13.5969 15.0644 13.5969 15.2961 13.5969 15.3734C13.5188 15.4506 13.5188 15.4506 13.5188 15.5279Z" fill="#998EF3"/>
<path d="M11.2526 36.6953C12.2021 36.6953 12.9718 35.9344 12.9718 34.9957C12.9718 34.0571 12.2021 33.2961 11.2526 33.2961C10.3032 33.2961 9.53348 34.0571 9.53348 34.9957C9.53348 35.9344 10.3032 36.6953 11.2526 36.6953Z" fill="#998EF3"/>
<path d="M12.3466 34.9957C12.3466 34.9957 12.3466 34.9185 12.3466 34.8412C12.3466 34.7639 12.3466 34.7639 12.3466 34.6094C12.2685 34.4549 12.1122 34.1459 11.8778 33.9914C11.7215 33.9142 11.5652 33.8369 11.4089 33.8369C11.4089 33.8369 11.3308 33.8369 11.2526 33.8369C11.1745 33.8369 11.0963 33.8369 11.0963 33.8369C11.0182 33.8369 10.9401 33.9142 10.8619 33.9142C10.4712 34.1459 10.3149 34.5322 10.3149 34.9185V35.073C10.3149 35.073 10.3149 35.1502 10.3149 35.2275C10.3149 35.3047 10.3931 35.382 10.3931 35.5365C10.4712 35.691 10.6275 35.8455 10.8619 35.9227C11.0963 36 11.1745 36 11.4089 36C11.4871 36 11.7215 35.9227 11.7996 35.8455C12.0341 35.691 12.2685 35.4592 12.2685 35.3047C12.3466 35.073 12.3466 34.9957 12.3466 34.9957ZM13.5188 34.9957C13.5188 34.9957 13.5188 35.2275 13.4406 35.6137C13.3625 36 13.0499 36.5408 12.5029 36.927C12.1903 37.1588 11.8778 37.3133 11.4871 37.3133C11.1745 37.3133 10.7056 37.3133 10.3149 37.0815C9.9242 36.927 9.61162 36.618 9.37719 36.2318C9.22091 36.0773 9.14276 35.8455 9.06462 35.6137C9.06462 35.5365 8.98648 35.382 8.98648 35.3047C8.98648 35.1502 8.90833 35.1502 8.90833 34.9957C8.83019 34.5322 8.98648 34.0687 9.29905 33.6824C9.61162 33.2961 9.9242 33.0644 10.3149 32.8326C10.5493 32.7554 10.7056 32.6781 10.9401 32.6009C11.0963 32.6009 11.0963 32.6009 11.1745 32.6009C11.3308 32.6009 11.4089 32.6009 11.4871 32.6009C11.8778 32.6009 12.2685 32.7554 12.5811 32.9871C13.2062 33.3734 13.4406 33.9914 13.5188 34.3777C13.5969 34.5322 13.5969 34.7639 13.5969 34.8412C13.5188 34.9185 13.5188 34.9185 13.5188 34.9957Z" fill="#998EF3"/>
<path d="M11.2526 56.1631C12.2021 56.1631 12.9718 55.4022 12.9718 54.4635C12.9718 53.5249 12.2021 52.764 11.2526 52.764C10.3032 52.764 9.53348 53.5249 9.53348 54.4635C9.53348 55.4022 10.3032 56.1631 11.2526 56.1631Z" fill="#998EF3"/>
<path d="M12.3466 54.4635C12.3466 54.4635 12.3466 54.3863 12.3466 54.309C12.3466 54.2318 12.3466 54.2318 12.3466 54.0773C12.2685 53.9227 12.1122 53.6137 11.8778 53.4592C11.7215 53.382 11.5652 53.3047 11.4089 53.3047C11.4089 53.3047 11.3308 53.3047 11.2526 53.3047C11.1745 53.3047 11.0963 53.3047 11.0963 53.3047C11.0182 53.3047 10.9401 53.382 10.8619 53.382C10.4712 53.6137 10.3149 54 10.3149 54.3863V54.5408C10.3149 54.5408 10.3149 54.618 10.3149 54.6953C10.3149 54.7725 10.3931 54.8498 10.3931 55.0043C10.4712 55.1588 10.6275 55.3133 10.8619 55.3906C11.0963 55.4678 11.1745 55.4678 11.4089 55.4678C11.4871 55.4678 11.7215 55.3906 11.7996 55.3133C12.0341 55.1588 12.2685 54.927 12.2685 54.7725C12.3466 54.5408 12.3466 54.4635 12.3466 54.4635ZM13.5188 54.4635C13.5188 54.4635 13.5188 54.6953 13.4406 55.0815C13.3625 55.4678 13.0499 56.0086 12.5029 56.3948C12.1903 56.6266 11.8778 56.7811 11.4871 56.7811C11.1745 56.7811 10.7056 56.7811 10.3149 56.5494C9.9242 56.3948 9.61162 56.0858 9.37719 55.6996C9.22091 55.5451 9.14276 55.3133 9.06462 55.0815C9.06462 55.0043 8.98648 54.8498 8.98648 54.7725C8.98648 54.618 8.90833 54.618 8.90833 54.4635C8.83019 54 8.98648 53.5365 9.29905 53.1502C9.61162 52.764 9.9242 52.5322 10.3149 52.3004C10.5493 52.2232 10.7056 52.1459 10.9401 52.0687C11.0963 52.0687 11.0963 52.0687 11.1745 52.0687C11.3308 52.0687 11.4089 52.0687 11.4871 52.0687C11.8778 52.0687 12.2685 52.2232 12.5811 52.4549C13.2062 52.8412 13.4406 53.4592 13.5188 53.8455C13.5969 54 13.5969 54.2318 13.5969 54.309C13.5188 54.3863 13.5188 54.3863 13.5188 54.4635Z" fill="#998EF3"/>
<path d="M11.2526 75.6309C12.2021 75.6309 12.9718 74.87 12.9718 73.9313C12.9718 72.9927 12.2021 72.2318 11.2526 72.2318C10.3032 72.2318 9.53348 72.9927 9.53348 73.9313C9.53348 74.87 10.3032 75.6309 11.2526 75.6309Z" fill="#998EF3"/>
<path d="M12.3466 73.9313C12.3466 73.9313 12.3466 73.8541 12.3466 73.7768C12.3466 73.6996 12.3466 73.6996 12.3466 73.5451C12.2685 73.3906 12.1122 73.0815 11.8778 72.927C11.7215 72.8498 11.5652 72.7725 11.4089 72.7725C11.4089 72.7725 11.3308 72.7725 11.2526 72.7725C11.1745 72.7725 11.0963 72.7725 11.0963 72.7725C11.0182 72.7725 10.9401 72.8498 10.8619 72.8498C10.4712 73.0815 10.3149 73.4678 10.3149 73.8541V74.0086C10.3149 74.0086 10.3149 74.0858 10.3149 74.1631C10.3149 74.2403 10.3931 74.3176 10.3931 74.4721C10.4712 74.6266 10.6275 74.7811 10.8619 74.8584C11.0963 74.9356 11.1745 74.9356 11.4089 74.9356C11.4871 74.9356 11.7215 74.8584 11.7996 74.7811C12.0341 74.6266 12.2685 74.3948 12.2685 74.2403C12.3466 74.0086 12.3466 73.9313 12.3466 73.9313ZM13.5188 73.9313C13.5188 73.9313 13.5188 74.1631 13.4406 74.5494C13.3625 74.9356 13.0499 75.4764 12.5029 75.8627C12.1903 76.0944 11.8778 76.2489 11.4871 76.2489C11.1745 76.2489 10.7056 76.2489 10.3149 76.0172C9.9242 75.8627 9.61162 75.5536 9.37719 75.1674C9.22091 75.0129 9.14276 74.7811 9.06462 74.5494C9.06462 74.4721 8.98648 74.3176 8.98648 74.2403C8.98648 74.0858 8.90833 74.0858 8.90833 73.9313C8.83019 73.4678 8.98648 73.0043 9.29905 72.618C9.61162 72.2318 9.9242 72 10.3149 71.7682C10.5493 71.691 10.7056 71.6137 10.9401 71.5365C11.0963 71.5365 11.0963 71.5365 11.1745 71.5365C11.3308 71.5365 11.4089 71.5365 11.4871 71.5365C11.8778 71.5365 12.2685 71.691 12.5811 71.9227C13.2062 72.309 13.4406 72.927 13.5188 73.3133C13.5969 73.4678 13.5969 73.6996 13.5969 73.7768C13.5188 73.8541 13.5188 73.8541 13.5188 73.9313Z" fill="#998EF3"/>
<path d="M16.9571 22.6352C17.2697 22.0172 17.6604 21.4764 17.973 20.9356C18.2855 20.3948 18.7544 19.8541 19.1451 19.3133C19.5358 18.7725 19.9265 18.2318 20.3172 17.691C20.708 17.1502 21.0987 16.6094 21.4894 16.0687L22.0364 15.2189C22.1927 14.9099 22.4271 14.6781 22.5834 14.3691C22.896 13.7511 23.2867 13.2103 23.6774 12.6695C24.0681 12.1288 24.3807 11.588 24.7714 10.97C25.1621 10.4292 25.5528 9.88841 25.9436 9.34764C26.0999 9.11588 26.4124 9.03863 26.6469 9.19313C26.8031 9.27039 26.8813 9.42489 26.8813 9.65665L26.5687 12.9785C26.4906 13.5193 26.4906 14.0601 26.4124 14.6781C26.4124 15.2189 26.4124 15.8369 26.4124 16.3777C26.4124 16.9185 26.3343 17.4592 26.2561 18.0773C26.178 18.618 26.178 19.1588 26.178 19.7768V20.6266C26.178 20.9356 26.0999 21.1674 26.0999 21.4764C26.0217 22.0172 26.0217 22.5579 26.0217 23.176C26.0217 23.485 25.7873 23.7167 25.4747 23.7167C25.1621 23.7167 24.9277 23.485 24.9277 23.176V23.0215C24.8496 22.4807 24.8496 21.8627 24.8496 21.3219C24.8496 20.7811 24.9277 20.2403 25.0058 19.6223C25.0058 19.0815 25.1621 18.5408 25.1621 17.9227C25.1621 17.382 25.2403 16.8412 25.2403 16.2232C25.2403 15.6824 25.2403 15.1416 25.2403 14.5236L25.4747 12.824C25.5528 12.2833 25.5528 11.7425 25.631 11.1245L25.7873 9.42489L26.8031 9.73391L25.7091 11.3562C25.4747 11.6652 25.3966 11.897 25.1621 12.206C25.0058 12.515 24.8496 12.824 24.6151 13.0558C24.2244 13.5966 23.8337 14.1373 23.5211 14.7554C23.1304 15.2961 22.896 15.9142 22.5053 16.4549C22.2708 16.6867 22.0364 16.9957 21.8801 17.2275L21.3331 18.0773C20.9424 18.618 20.5517 19.1588 20.161 19.6996L17.973 23.2532C17.8167 23.485 17.4259 23.5622 17.1915 23.4077C16.8789 23.2532 16.8008 22.9442 16.9571 22.6352Z" fill="#998EF3"/>
<path d="M25.7873 18.5408C25.7873 18.5408 25.4747 18.618 25.0058 18.618C24.537 18.618 23.9118 18.6953 23.2867 18.6953C22.6615 18.6953 22.0364 18.6953 21.5675 18.618C21.0987 18.618 20.7861 18.5408 20.7861 18.5408C20.4735 18.4635 20.2391 18.2318 20.3172 17.9227C20.3172 17.691 20.5517 17.4592 20.7861 17.4592C20.7861 17.4592 21.0987 17.382 21.5675 17.382C22.0364 17.3047 22.6615 17.3047 23.2867 17.3047C23.9118 17.3047 24.537 17.3047 25.0058 17.382C25.4747 17.382 25.7873 17.4592 25.7873 17.4592C26.0999 17.5365 26.3343 17.7682 26.2561 18.0773C26.2561 18.309 26.0217 18.5408 25.7873 18.5408Z" fill="#998EF3"/>
<path d="M21.802 28.3519C21.5675 29.3562 21.255 30.2833 20.9424 31.2876C20.5517 32.2918 20.161 33.2961 19.8484 34.3777L19.3795 35.9227C19.2232 36.4635 18.9888 36.927 18.8325 37.4678C18.5981 38.0086 18.52 38.4721 18.2855 39.0129C18.1292 39.5536 17.8948 40.0172 17.7385 40.5579L17.1915 39.8627C17.5822 39.8627 17.8948 39.7082 18.2855 39.6309C18.6762 39.4764 18.9888 39.3991 19.3795 39.3219C19.7702 39.2446 20.0828 39.0901 20.4735 39.0129C20.8643 38.8584 21.1768 38.7811 21.5675 38.6266C21.8801 38.4721 22.2708 38.3176 22.5834 38.0858C22.896 37.8541 23.2086 37.6996 23.5211 37.4678C23.8337 37.236 24.1463 37.0043 24.3807 36.7725C24.537 36.618 24.6151 36.5408 24.7714 36.3863L25.084 35.9227C25.3184 35.6137 25.4747 35.3047 25.631 34.9957C25.7873 34.6867 25.8654 34.3004 26.0217 33.9914C26.0999 33.6051 26.178 33.2189 26.2561 32.9099C26.2561 32.5236 26.2561 32.2146 26.178 31.9828C26.0999 31.7511 25.9436 31.5966 25.631 31.5966C25.3184 31.5966 25.0058 31.6738 24.6933 31.7511C23.99 31.9828 23.3648 32.4464 22.7397 32.8326C22.5053 32.9871 22.1927 32.9099 22.0364 32.6781C21.8801 32.4464 21.9583 32.2146 22.1145 32.0601C22.349 31.8283 22.5834 31.5193 22.8178 31.2103C23.0523 30.9013 23.2867 30.5923 23.443 30.2833C23.6774 29.9742 23.8337 29.6652 23.99 29.279C24.1463 28.97 24.2244 28.5837 24.3026 28.2747V28.0429V27.9657C24.3026 27.9657 24.3026 28.1202 24.3026 28.0429V27.8884C24.3026 27.8112 24.3026 27.6567 24.3026 27.6567C24.3026 27.6567 24.2244 27.6567 24.1463 27.5794C23.99 27.5794 23.9118 27.5794 23.6774 27.5794C23.3648 27.6567 22.9741 27.7339 22.6615 27.8884C22.2708 28.0429 22.0364 28.1974 21.802 28.3519ZM21.0205 27.5021C21.3331 27.2704 21.7238 27.0386 22.1145 26.8841C22.5053 26.6524 22.896 26.4979 23.3648 26.4206C23.5993 26.3433 23.8337 26.3433 24.1463 26.3433C24.3026 26.3433 24.4588 26.3433 24.6933 26.4979C24.8496 26.5751 25.084 26.6524 25.2403 26.8841C25.5528 27.1931 25.5528 27.8112 25.5528 27.8884V28.2747C25.5528 28.3519 25.5528 28.5064 25.4747 28.5837C25.3966 29.0472 25.2403 29.4335 25.0058 29.8197C24.8496 30.206 24.6151 30.5923 24.3807 30.9013C24.1463 31.2876 23.99 31.5966 23.6774 31.9056C23.443 32.2146 23.2085 32.5236 22.896 32.9099L21.9583 31.9056C22.349 31.6738 22.6615 31.4421 23.0523 31.2103C23.443 30.9785 23.8337 30.824 24.2244 30.6695C24.6933 30.515 25.1621 30.4378 25.7091 30.515C26.0217 30.515 26.3343 30.6695 26.5687 30.9013C26.8031 31.133 27.0376 31.4421 27.1157 31.6738C27.272 32.2146 27.272 32.6781 27.1939 33.1416C27.1157 33.6052 27.0376 33.9914 26.9594 34.3777C26.8031 34.8412 26.725 35.2275 26.4906 35.6137C26.2561 36 26.0998 36.3863 25.8654 36.6953L25.4747 37.0815C25.3184 37.236 25.1621 37.3906 25.0058 37.5451C24.6933 37.8541 24.3807 38.0858 24.0681 38.3948C23.7556 38.6266 23.3648 38.8584 23.0523 39.0901C22.6615 39.3219 22.349 39.5536 21.9583 39.7082C21.5675 39.9399 21.1768 40.0172 20.8643 40.1717C20.4735 40.3262 20.0828 40.4034 19.6921 40.5579C19.3014 40.6352 18.9107 40.7897 18.52 40.867C18.1292 40.9442 17.7385 41.0215 17.2697 41.0987C16.8789 41.176 16.5664 40.9442 16.5664 40.5579C16.5664 40.4807 16.5664 40.4034 16.5664 40.3262V40.2489C16.7227 39.7082 16.8789 39.1674 17.0352 38.7039C17.1134 38.4721 17.1915 38.1631 17.3478 37.9313C17.4259 37.6996 17.5041 37.3906 17.6604 37.1588C17.8167 36.618 17.973 36.1545 18.2074 35.6137L18.7544 34.0687L20.8643 27.8884C20.7861 27.6567 20.8643 27.5794 21.0205 27.5021Z" fill="#998EF3"/>
<path d="M23.3648 51.6052C23.3648 51.6052 23.5993 51.2961 23.9118 50.7554C23.99 50.6009 24.0681 50.4464 24.1463 50.2918C24.2244 50.1373 24.2244 49.9828 24.3026 49.9056C24.2244 49.9056 24.1463 49.8283 24.0681 49.8283C23.9118 49.8283 23.7556 49.8283 23.6774 49.8283C23.2867 49.9056 22.6615 50.2146 22.1145 50.4464C21.802 50.6009 21.5675 50.8326 21.255 51.0644C21.0205 51.2961 20.708 51.5279 20.4735 51.7597C20.2391 51.9914 20.0828 52.3777 19.8484 52.6867C19.614 52.9957 19.3795 53.3047 19.1451 53.6137C18.7544 54.2318 18.4418 55.0043 18.1292 55.6996C17.8948 56.3948 17.6604 57.1674 17.6604 57.8627C17.7385 58.5579 18.1292 58.9442 18.7544 59.0987C19.067 59.176 19.3795 59.176 19.7702 59.0987C20.0828 59.0215 20.3954 58.867 20.708 58.7897C21.3331 58.6352 21.9583 58.4034 22.5053 58.1717C22.8178 58.0944 23.0523 57.9399 23.2867 57.7854C23.5211 57.6309 23.7556 57.4764 23.9118 57.3991C24.3026 57.0901 24.6933 56.9356 25.0058 56.7811C25.5528 56.3948 25.8654 56.0858 25.8654 56.0858C26.0998 55.8541 26.4124 55.8541 26.6469 56.0858C26.8813 56.3176 26.8813 56.6266 26.6469 56.8584L26.4906 57.0129C26.4906 57.0129 26.178 57.3219 25.631 57.7854C25.3184 58.0172 24.9277 58.2489 24.537 58.4807C24.3026 58.6352 24.0681 58.7124 23.8337 58.8669C23.5993 59.0215 23.2867 59.0987 22.9741 59.176C22.349 59.4077 21.7238 59.7167 21.0205 59.8712C20.3172 60.103 19.4577 60.3348 18.52 60.103C18.0511 60.0258 17.5822 59.7167 17.1915 59.3305C16.8008 58.9442 16.6445 58.4034 16.5664 57.8627C16.4882 56.8584 16.8008 56.0858 17.0352 55.3133C17.3478 54.5408 17.5822 53.691 18.0511 52.9957C18.4418 52.3004 18.9888 51.6051 19.4577 50.9871C19.6921 50.6781 20.0047 50.3691 20.2391 50.1373C20.3954 49.9828 20.5517 49.9056 20.708 49.8283C20.8643 49.6738 21.0205 49.5966 21.1768 49.5193C21.802 49.0558 22.5053 48.824 23.2867 48.7468C23.5211 48.6695 23.6774 48.7468 23.8337 48.7468C24.0681 48.7468 24.2244 48.824 24.4588 48.824C24.537 48.9013 24.6933 48.9013 24.7714 48.9785C24.8496 49.0558 25.0058 49.133 25.084 49.2876C25.2403 49.5193 25.3184 49.8283 25.3184 49.9828C25.3184 50.3691 25.1621 50.6781 25.084 50.9099C25.0058 51.1416 24.8496 51.2961 24.7714 51.4506C24.3026 52.0687 23.99 52.3777 23.99 52.3777C23.7556 52.6094 23.3648 52.6094 23.2086 52.3777C23.2086 52.2232 23.2086 51.8369 23.3648 51.6052Z" fill="#998EF3"/>
<path d="M22.4271 67.0558C22.2708 67.4421 22.1145 67.7511 21.9583 68.1373C21.7238 68.6009 21.5675 69.1416 21.3331 69.5279L20.6298 70.9185C20.3954 71.382 20.161 71.8455 19.9265 72.309C19.6921 72.7725 19.4577 73.2361 19.2232 73.6996C18.9888 74.1631 18.7544 74.6266 18.52 75.0901C18.2855 75.5536 18.0511 76.0172 17.8167 76.4807C17.5822 76.9442 17.5041 77.485 17.2697 77.9485L16.8789 77.176C17.2697 77.2532 17.7385 77.3305 18.1292 77.3305C18.52 77.4077 18.9888 77.3305 19.3795 77.3305C19.7702 77.3305 20.2391 77.2532 20.6298 77.176C21.0205 77.0987 21.4894 77.0215 21.8801 76.867C22.2708 76.7897 22.6615 76.5579 23.0523 76.4034C23.443 76.1717 23.7556 76.0172 24.0681 75.7082C24.3807 75.4764 24.6933 75.1674 24.9277 74.8584C25.1621 74.5494 25.3966 74.1631 25.631 73.8541L25.8654 73.3133L26.0217 73.0043C26.0217 72.927 26.0999 72.7725 26.0999 72.6953C26.178 72.2318 26.3343 71.8455 26.3343 71.4592C26.4124 71.073 26.4124 70.6867 26.4124 70.3004L26.3343 69.7597C26.2561 69.6051 26.178 69.3734 26.0999 69.2189C25.9436 68.9099 25.7091 68.6009 25.3966 68.2918C25.084 68.0601 24.6933 67.8283 24.3807 67.6738C23.99 67.5193 23.6774 67.2876 23.2086 67.2103C22.9741 67.133 22.6615 67.133 22.4271 67.0558ZM22.1145 65.897C22.6615 65.897 23.1304 65.9742 23.5993 66.0515C24.0681 66.1288 24.537 66.3605 25.0058 66.5923C25.4747 66.824 25.8654 67.133 26.2561 67.4421C26.6469 67.8283 26.9594 68.2146 27.1939 68.6781C27.272 68.9099 27.4283 69.1416 27.5064 69.3734L27.6627 70.1459C27.6627 70.6867 27.7409 71.1502 27.6627 71.691C27.6627 72.2318 27.5064 72.618 27.4283 73.0815L27.3501 73.2361V73.4678L26.8813 74.3949C26.6469 74.7811 26.3343 75.1674 26.0217 75.5536C25.7091 75.9399 25.3966 76.2489 25.0058 76.5579C24.6151 76.867 24.2244 77.0987 23.8337 77.3305C23.3648 77.5622 22.9741 77.7167 22.5053 77.8712C22.0364 78.0257 21.5675 78.103 21.0987 78.2575L19.6921 78.4893C19.2232 78.5665 18.7544 78.5665 18.2855 78.5665C17.8167 78.5665 17.3478 78.4893 16.8789 78.412C16.5664 78.3348 16.3319 78.0257 16.4101 77.7167C16.4101 77.6395 16.4101 77.6395 16.4882 77.5622C16.7227 77.0987 16.8789 76.6352 17.1134 76.0944C17.2697 75.6309 17.5041 75.0901 17.6604 74.6266C17.7385 74.3948 17.8948 74.1631 18.0511 73.9313C18.2074 73.6996 18.2855 73.4678 18.3637 73.2361C18.5981 72.7725 18.8325 72.309 19.067 71.8455C19.5358 70.9184 20.0047 69.9914 20.3954 69.0644L21.7238 66.206C21.6457 66.0515 21.802 65.897 22.1145 65.897Z" fill="#998EF3"/>
</svg>
