<svg width="71" height="61" viewBox="0 0 71 61" fill="none" xmlns="http://www.w3.org/2000/svg">
<path d="M1.45694 52.055C1.45694 52.055 1.9506 52.3035 2.81451 52.9246C3.67843 53.5458 5.03601 54.167 6.76383 55.1609C8.49166 55.9063 10.8366 56.9002 13.5517 57.2729C16.2669 57.6456 19.3523 57.7699 22.6845 57.2729C26.0168 56.776 29.4724 55.6578 32.8047 53.7943C34.4091 52.9246 36.1369 51.8065 37.2476 50.3157C37.8647 49.5703 38.235 48.7006 38.4818 47.831V47.2098C38.4818 46.9613 38.4818 46.8371 38.4818 46.5886C38.4818 46.0917 38.3584 45.7189 38.235 45.222C37.6179 43.4827 36.2603 41.8676 34.2856 41.9919C33.9154 41.9919 33.792 42.1161 33.6686 42.1161C33.4217 42.2403 33.2983 42.3646 33.0515 42.4888C32.6812 42.7373 32.311 43.11 32.0642 43.4827C31.4471 44.3523 31.0768 45.3462 30.9534 46.3401C30.5832 50.5642 32.6812 54.9124 36.2603 57.5214C37.9881 58.888 40.2096 59.6334 42.3077 59.6334H43.1716C43.4184 59.6334 43.6653 59.6334 43.9121 59.6334C44.0355 59.6334 44.1589 59.6334 44.2824 59.6334H44.6526C44.8994 59.6334 45.1463 59.5092 45.3931 59.5092C46.5039 59.2607 47.4912 59.0122 48.4785 58.5153C50.4532 57.6456 52.3044 56.4033 53.7854 54.7882C55.2664 53.1731 56.3772 51.3096 57.3645 49.446C57.8581 48.4521 58.3518 47.5825 58.7221 46.5886C58.9689 46.0917 59.0923 45.5947 59.3391 45.0978C59.4626 44.6008 59.7094 44.1039 59.8328 43.6069C60.5733 41.6191 60.9436 39.7556 61.4372 37.7678C61.5606 36.7739 61.8075 35.9043 62.0543 34.9104C62.1777 33.9165 62.3011 33.0468 62.4245 32.053C62.6714 30.1894 62.7948 28.4501 62.6714 26.7108C62.4245 23.2322 62.1777 20.1263 61.4372 17.3931C60.8201 14.6599 60.203 12.2994 59.3391 10.4358C58.9689 9.44196 58.5986 8.69654 58.2284 7.95112C57.8581 7.2057 57.6113 6.70876 57.3645 6.21181C56.9942 5.09369 56.7474 4.59674 56.7474 4.59674C56.5006 4.0998 56.624 3.60285 57.1176 3.35438C57.6113 3.10591 58.105 3.23014 58.3518 3.72709C58.3518 3.72709 58.5986 4.22403 59.2157 5.21792C59.4626 5.71487 59.8328 6.33605 60.0796 7.08147C60.4499 7.82688 60.8201 8.69654 61.1904 9.69043C61.9309 11.6782 62.548 14.0387 62.9182 16.8961C63.0416 17.6416 63.2885 18.2627 63.4119 19.1324C63.5353 19.8778 63.6587 20.6232 63.7821 21.4929C64.029 23.1079 64.2758 24.8473 64.1524 26.5866C63.9055 28.3259 64.029 30.1894 63.9055 32.1772C63.9055 33.1711 63.7821 34.0407 63.6587 35.0346C63.5353 36.0285 63.4119 37.0224 63.165 38.0163C62.6714 40.0041 62.1777 42.1161 61.4372 43.9796C61.3138 44.4766 61.067 44.9735 60.9436 45.4705C60.6967 45.9674 60.5733 46.4644 60.3265 46.9613C59.8328 47.9552 59.3391 48.9491 58.8455 49.943C58.3518 50.9369 57.7347 51.8065 57.1176 52.8004C56.5006 53.7943 55.8835 54.7882 55.0196 55.5336C53.2917 57.0244 51.4405 58.6395 49.219 59.6334C48.1083 60.1304 46.9975 60.5031 45.7634 60.7515C45.1463 60.8758 44.6526 61 43.9121 61H43.1716C42.9248 61 42.5545 61 42.3077 61C39.8394 60.8758 37.4945 60.0061 35.5198 58.6395C34.5325 57.8941 33.6686 57.1487 32.8047 56.1548C32.0642 55.1609 31.3237 54.167 30.7066 53.1731C30.3363 52.6762 30.2129 52.055 29.9661 51.558C29.7192 50.9369 29.4724 50.3157 29.4724 49.8187C29.1022 48.5764 29.1022 47.334 29.349 46.0917C29.5958 44.8493 29.9661 43.6069 30.83 42.4888C31.2002 41.9919 31.6939 41.4949 32.311 40.998C32.5578 40.7495 32.9281 40.6253 33.2983 40.501C33.6686 40.3768 34.1622 40.3768 34.4091 40.2525C35.0261 40.1283 35.7666 40.1283 36.5071 40.3768C37.1242 40.6253 37.7413 40.998 38.235 41.3707C39.2223 42.2403 39.8394 43.3585 40.2096 44.4766C40.333 45.0978 40.4565 45.7189 40.4565 46.3401C40.4565 46.5886 40.4565 46.9613 40.4565 47.334L40.333 47.7067V47.9552L40.2096 48.2037C39.8394 49.3218 39.3457 50.3157 38.6052 51.1853C37.2476 52.9246 35.6432 54.2912 33.792 55.4094C30.2129 57.3972 26.5104 58.6395 23.0548 59.1365C19.4757 59.6334 16.2669 59.5092 13.4283 59.1365C10.5897 58.7637 8.12141 57.7699 6.27017 56.9002C4.41892 55.9063 2.93793 55.1609 2.07402 54.5397C0.963271 53.7943 0.469606 53.5458 0.469606 53.5458C0.0993576 53.2974 -0.147475 52.6762 0.0993576 52.3035C0.34619 51.8065 0.963271 51.6823 1.45694 52.055Z" fill="#998EF3"/>
<path d="M52.9215 15.5295L53.5386 13.7902C53.7854 13.169 53.9088 12.6721 54.1557 12.0509C54.4025 11.4297 54.5259 10.9328 54.7727 10.3116C54.8962 9.69043 55.143 9.06925 55.143 8.44807C55.2664 7.2057 55.3898 5.96334 55.3898 4.72098C55.3898 3.47862 55.2664 2.23625 55.143 0.99389C55.0196 0.496945 55.3898 0.124236 55.8835 0C56.1303 0 56.3771 0 56.5006 0.124236C56.9942 0.496945 57.6113 0.99389 58.2284 1.24236C58.5986 1.3666 58.8455 1.61507 59.0923 1.73931L59.9562 2.60896L61.684 3.85132C62.3011 4.22403 62.7948 4.59674 63.4119 4.96945L65.1397 5.96334C65.7568 6.33605 66.3739 6.58452 66.8675 6.95723C67.9783 7.70265 69.2124 8.32383 70.4466 9.06925H70.57C70.9403 9.31772 71.1871 9.9389 70.8168 10.3116C70.57 10.6843 70.0763 10.8086 69.7061 10.6843C67.2378 9.44196 64.7695 8.07536 62.3011 6.70876C61.684 6.33605 61.067 5.96334 60.5733 5.59063L57.9816 3.72709C57.7347 3.47862 57.3645 3.35438 57.1176 3.23014C56.5006 2.85743 56.0069 2.48473 55.3898 1.98778L57.2411 0.869654C57.4879 2.23625 57.4879 3.47862 57.4879 4.84521C57.4879 5.4664 57.3645 6.21181 57.3645 6.83299C57.2411 7.45418 57.2411 8.19959 57.1176 8.82077C56.7474 9.44196 56.7474 10.0631 56.624 10.6843C56.5006 11.3055 56.3771 11.9267 56.2537 12.6721C56.1303 13.2933 55.7601 13.9145 55.6367 14.5356L55.2664 15.4053L54.6493 16.275C54.4025 16.7719 53.7854 16.8961 53.4152 16.6477C52.9215 16.3992 52.7981 15.9022 52.9215 15.5295Z" fill="#998EF3"/>
</svg>
