<svg width="131" height="71" viewBox="0 0 131 71" fill="none" xmlns="http://www.w3.org/2000/svg">
<g id="Vector" opacity="0.3">
<path d="M78.1 66.9445C78.1 66.9445 77.8 66.9445 77.2 67.0445C76.6 67.1445 75.7 67.2445 74.6 67.2445C72.3 67.4445 69 67.6445 64.8 67.5445C60.6 67.3445 55.4 67.6445 49.5 67.4445C48 67.4445 46.5 67.3445 44.9 67.2445C43.3 67.1445 41.7 66.9445 40.1 66.7445C36.8 66.3445 33.4 65.7445 29.8 65.3445C26.2 64.7445 22.5 63.9445 18.8 62.6445C15.1 61.4445 11.2 59.8445 7.9 57.1445C6.3 55.8445 4.6 54.2445 3.5 52.2445C3.2 51.7445 3 51.2445 2.8 50.6445C2.7 50.0445 2.5 49.5445 2.4 48.9445C2.09999 47.8445 2.10001 46.6445 2.10001 45.5445C2.10001 44.8445 2.2 44.4445 2.2 43.8445L2.30001 43.0445C2.30001 42.7445 2.4 42.4445 2.5 42.1445L2.9 40.4445L3.5 38.8445C4.4 36.7445 5.70001 34.7445 7.4 33.1445L8 32.5445C8.2 32.3445 8.4 32.1445 8.7 31.9445L10.1 30.8445C11.1 30.2445 12 29.5445 13.1 28.9445L14.6 28.1445L16.2 27.4445C17.3 26.9445 18.4 26.5445 19.5 26.1445C23.9 24.5445 28.6 23.4445 33.3 22.5445C38 21.6445 42.8 21.0445 47.6 20.6445C52.4 20.1445 57.3 20.4445 62.1 20.3445C71.8 20.5445 81.4 20.3445 90.9 21.3445C100.4 22.2445 109.7 24.1445 118.1 27.8445C120.1 28.8445 122.1 30.0445 123.9 31.5445C125.7 32.9445 127.2 34.7445 128.3 36.6445C129.5 38.5445 130.2 40.7445 130.4 42.9445C130.6 45.1445 130.5 47.2445 129.9 49.3445C129.3 51.4445 128.3 53.3445 127 54.9445C125.7 56.5445 124.2 57.9445 122.6 59.0445C121.8 59.6445 120.9 60.1445 120.1 60.6445C119 61.1445 118.1 61.6445 117.3 62.0445C116.4 62.4445 115.6 62.8445 114.7 63.2445C113.8 63.6445 113 63.9445 112.1 64.2445C105.2 66.7445 98.6 67.7445 92.7 68.5445C86.8 69.3445 81.7 69.6445 77.5 69.8445C75.4 69.9445 73.5 70.0445 71.9 70.1445C70.3 70.1445 68.9 70.1445 67.7 70.1445C65.4 70.1445 64.2 70.1445 64.2 70.1445C63.8 70.1445 63.4 69.8445 63.4 69.3445C63.4 68.9445 63.7 68.6445 64.1 68.5445C64.1 68.5445 65.3 68.4445 67.6 68.4445C68.7 68.4445 70.1 68.3445 71.8 68.3445C73.4 68.3445 75.3 68.2445 77.4 68.2445C81.7 68.1445 86.8 67.8445 92.6 67.1445C98.4 66.6445 104.9 64.9445 111.8 63.0445C112.7 62.7445 113.5 62.5445 114.4 62.1445C115.3 61.8445 116.1 61.4445 117 61.1445C118.7 60.3445 120.3 59.3445 121.8 58.2445C122.6 57.6445 123.3 57.0445 124 56.4445C124.7 55.7445 125.4 55.1445 126 54.3445C127.2 52.8445 128.2 51.0445 128.7 49.1445C129.2 47.2445 129.4 45.1445 129.2 43.1445C128.9 41.1445 128.3 39.1445 127.2 37.3445C125.1 33.7445 121.4 31.1445 117.4 29.1445C109.3 25.3445 100 23.5445 90.7 22.7445C86 22.3445 81.2 22.0445 76.4 21.9445C71.6 21.8445 66.8 21.6445 62 21.6445C57.2 21.6445 52.4 21.6445 47.6 21.9445C42.8 22.2445 38.1 23.0445 33.5 24.0445C32.3 24.2445 31.2 24.5445 30 24.7445C28.8 24.9445 27.7 25.1445 26.5 25.3445C24.2 25.8445 22 26.5445 19.8 27.3445C18.7 27.7445 17.6 28.1445 16.6 28.6445L15.1 29.3445L13.6 30.1445C12.6 30.6445 11.7 31.3445 10.8 31.9445L9.5 33.0445C9.30001 33.2445 9.1 33.3445 8.9 33.5445L8.30001 34.1445C6.70001 35.6445 5.5 37.5445 4.7 39.4445L4.1 40.9445L3.80001 42.4445C3.80001 42.7445 3.7 42.9445 3.6 43.2445L3.5 44.0445L3.4 45.6445C3.4 47.7445 3.8 49.8445 4.8 51.6445C5.3 52.5445 5.9 53.3445 6.6 54.1445C7.3 54.8445 8 55.5445 8.8 56.2445C11.9 58.8445 15.7 60.3445 19.3 61.5445C23 62.7445 26.6 63.7445 30.1 64.3445C37.2 65.5445 43.9 65.4445 49.7 65.9445C55.5 66.2445 60.7 66.3445 64.9 66.0445C69.1 65.8445 72.4 65.6445 74.7 65.5445C76.9 65.4445 78.1 65.3445 78.1 65.3445C78.5 65.3445 78.9 65.6445 78.9 66.0445C78.7 66.5445 78.5 66.8445 78.1 66.9445Z" fill="white"/>
<path d="M16.2 25.6445C16.2 25.6445 15.9 25.3445 15.5 24.7445C15.3 24.4445 15 24.0445 14.8 23.6445C14.5 23.2445 14.3 22.6445 14 22.1445C13.7 21.6445 13.3 21.0445 13 20.3445C12.8 20.0445 12.7 19.6445 12.4 19.3445C12.2 19.0445 12 18.6445 11.8 18.3445C11.6 17.9445 11.3 17.7445 11.1 17.3445C10.9 16.9445 10.7 16.6445 10.5 16.2445C10.1 15.5445 9.6 14.8445 9.2 14.0445C8.3 12.5445 7.50001 11.1445 6.7 9.74452C6.50001 9.44452 6.3 9.04452 6.1 8.74452C5.90001 8.44452 5.6 8.14452 5.40001 7.84452C5.00001 7.24452 4.70001 6.64452 4.40001 6.04452C4.1 5.44452 3.80001 5.04452 3.40001 4.64452C3.1 4.24452 2.9 3.84452 2.7 3.54452C2.50001 3.24452 2.30001 3.04451 2.2 2.84452C2.1 2.64452 2.00001 2.64452 2.00001 2.64452C1.80001 2.34452 1.80001 1.84452 2.10001 1.64452C2.40002 1.44452 2.80001 1.44452 3.1 1.74452L3.30001 1.94452C3.30001 1.94452 3.40001 2.04452 3.50001 2.14452C3.6 2.34452 3.8 2.54451 4.1 2.84452C4.3 3.14452 4.60001 3.54452 4.80001 3.94452C5.10001 4.34452 5.3 4.84452 5.6 5.44452C5.90001 6.04452 6.3 6.54452 6.7 7.14452C7.1 7.74452 7.6 8.34452 7.90001 9.04452C8.20001 9.74452 8.6 10.4445 9.1 11.2445C9.50001 11.9445 9.90001 12.7445 10.4 13.4445C10.8 14.2445 11.4 14.8445 11.8 15.5445C12.2 16.2445 12.7 16.9445 13.1 17.5445C13.3 17.8445 13.6 18.1445 13.8 18.4445C13.9 18.6445 13.9 18.8445 14 18.9445C14.1 19.1445 14.2 19.2445 14.3 19.4445C14.7 20.0445 15 20.6445 15.3 21.2445C16 22.3445 16.5 23.2445 16.9 23.8445C17.3 24.4445 17.5 24.8445 17.5 24.8445C17.7 25.1445 17.6 25.6445 17.2 25.8445C16.9 26.0445 16.5 26.0445 16.2 25.6445Z" fill="white"/>
<path d="M2.00001 10.0445C2.00001 9.84452 2.00001 9.84452 2.00001 9.64452L1.9 9.04452L1.7 7.94452L1.4 5.74452L0.9 1.24452C0.799994 0.744518 1.2 0.244518 1.7 0.244518C1.9 0.244518 2.10001 0.244518 2.30001 0.344517L6.2 2.84452C7.50001 3.64452 8.8 4.54452 10.1 5.44452C10.4 5.64452 10.5 6.14452 10.3 6.44452C10.1 6.74452 9.70001 6.84452 9.30001 6.64452C7.90001 5.84452 6.60001 5.14452 5.30001 4.34452L1.30001 1.94452L2.7 1.04452C2.9 2.54452 3.00001 4.04452 3.2 5.54452L3.40001 7.84452L3.50001 8.94452L3.50001 9.54452C3.50001 9.74452 3.50001 10.0445 3.50001 10.2445C3.50001 10.6445 3.1 10.9445 2.7 10.9445C2.30001 10.7445 2.00001 10.4445 2.00001 10.0445Z" fill="white"/>
<path d="M114.4 24.9445C114.4 24.9445 114.6 24.5445 114.9 23.8445C115.1 23.5445 115.3 23.1445 115.6 22.7445C115.9 22.3445 116.2 21.8445 116.6 21.3445C116.9 20.8445 117.3 20.2445 117.7 19.6445C117.9 19.3445 118.1 19.0445 118.3 18.7445C118.5 18.4445 118.7 18.1445 119 17.7445C119.2 17.4445 119.3 17.0445 119.5 16.6445C119.7 16.3445 119.9 15.9445 120.2 15.6445C120.7 14.9445 121.1 14.2445 121.6 13.5445C122.5 12.1445 123.4 10.6445 124.3 9.34453C124.5 9.04453 124.7 8.64453 124.9 8.34453C125.1 7.94453 125.2 7.64453 125.4 7.34453C125.8 6.74453 126.2 6.14453 126.5 5.64453C126.9 5.14453 127.1 4.64453 127.3 4.14453C127.5 3.54453 127.8 3.14453 128 2.84453C128.2 2.54452 128.3 2.24453 128.4 2.04453C128.5 1.84454 128.5 1.74453 128.5 1.74453C128.7 1.34453 129.1 1.24453 129.5 1.34453C129.8 1.54453 130 1.84453 129.9 2.24453L129.8 2.54453C129.8 2.54453 129.8 2.64453 129.7 2.84453C129.6 3.04453 129.5 3.34453 129.4 3.64453C129.2 3.94453 129 4.34453 128.7 4.74453C128.4 5.14453 128.1 5.64453 127.7 6.14453C127.3 6.64453 127 7.24453 126.6 7.94453C126.3 8.64453 125.9 9.24453 125.4 9.94453C124.9 10.5445 124.5 11.2445 124 11.9445C123.5 12.6445 123.1 13.3445 122.6 14.0445C122.1 14.7445 121.8 15.5445 121.4 16.2445C121 16.9445 120.5 17.6445 120.2 18.3445C120 18.7445 119.9 19.0445 119.7 19.3445C119.6 19.5445 119.4 19.6445 119.3 19.7445C119.2 19.9445 119.1 20.0445 119 20.2445C118.6 20.8445 118.2 21.4445 117.8 21.9445C117.1 23.0445 116.6 23.9445 116.2 24.5445C115.8 25.1445 115.6 25.5445 115.6 25.5445C115.4 25.8445 114.9 25.9445 114.6 25.7445C114.3 25.5445 114.2 25.1445 114.3 24.8445L114.4 24.9445Z" fill="white"/>
<path d="M128.4 10.1445C128.4 10.0445 128.4 9.64453 128.4 9.44453L128.4 8.84453L128.5 7.74453L128.7 5.44453C128.8 3.94453 129 2.44453 129.2 0.944534L130.6 1.84453L126.6 4.24453C125.3 5.04453 123.9 5.84454 122.6 6.54453C122.2 6.74453 121.8 6.64453 121.6 6.24453C121.4 5.94453 121.5 5.44453 121.8 5.24453C123.1 4.34453 124.4 3.54453 125.7 2.64453L129.6 0.144531C130 -0.155472 130.6 0.0445327 130.9 0.444534C131 0.844536 131 1.04453 131 1.24453L130.5 5.74453L130.2 7.94453L130 9.04453L130 9.64453C130 9.84453 130 9.84453 130 10.0445L130 10.1445C130 10.5445 129.7 10.8445 129.3 10.8445C128.8 10.8445 128.5 10.5445 128.4 10.1445Z" fill="white"/>
<path d="M63.9 17.9445C63.9 17.9445 63.8 17.7445 63.8 17.2445C63.8 17.0445 63.8 16.7445 63.8 16.5445C63.8 16.2445 63.9 15.9445 64 15.5445C64 15.1445 64 14.8445 64.1 14.4445C64.1 14.2445 64.2 14.0445 64.1 13.8445C64.1 13.6445 64.2 13.4445 64.2 13.1445C64.2 12.9445 64.1 12.7445 64.1 12.4445C64.1 12.2445 64.1 11.9445 64.2 11.7445C64.3 11.2445 64.2 10.8445 64.3 10.3445C64.4 9.44452 64.4 8.44453 64.5 7.54453C64.5 7.34453 64.5 7.14453 64.5 6.84453C64.5 6.64453 64.4 6.44452 64.4 6.24452C64.4 5.84452 64.5 5.44453 64.5 5.14453C64.5 4.74452 64.5 4.44453 64.4 4.14453C64.3 3.84452 64.4 3.64453 64.4 3.44453C64.4 3.24453 64.4 3.04453 64.4 2.94453C64.4 2.84453 64.4 2.74452 64.4 2.74452C64.3 2.34452 64.6 2.04453 64.9 1.94453C65.2 1.84453 65.5 2.04453 65.6 2.24452L65.9 2.74452C65.9 2.74452 66 2.94453 66.1 3.44453C66.1 3.64453 66.1 3.94453 66.1 4.14453C66.1 4.44453 66.1 4.74452 66 5.14453C65.9 5.54453 66 5.84452 66 6.24452C66 6.44452 66 6.64453 66.1 6.84453C66.1 7.04453 66.1 7.24453 66 7.54453C65.9 7.94453 65.9 8.44452 65.8 8.94452C65.8 9.44452 65.7 9.84453 65.7 10.3445C65.6 10.8445 65.8 11.2445 65.8 11.7445C65.8 12.2445 65.8 12.6445 65.8 13.1445C65.8 13.3445 65.9 13.5445 65.9 13.8445C65.9 13.9445 65.8 14.0445 65.8 14.1445C65.8 14.2445 65.8 14.3445 65.8 14.4445C65.8 14.8445 65.7 15.2445 65.7 15.5445C65.7 16.2445 65.7 16.8445 65.6 17.2445C65.6 17.6445 65.6 17.8445 65.6 17.8445C65.6 18.2445 65.2 18.5445 64.8 18.5445C64.5 18.5445 64.2 18.3445 64.1 18.0445L63.9 17.9445Z" fill="white"/>
<path d="M68.3 10.0445C68.2 9.94453 68 9.64453 68 9.44452L67.7 8.94452L66.2 5.94453C65.6 4.54453 64.9 3.24452 64.3 1.84452L66 1.84452L63.8 5.94453C63 7.34453 62.3 8.64453 61.5 9.94452C61.3 10.3445 60.8 10.4445 60.5 10.2445C60.2 10.0445 60 9.64453 60.2 9.24452C60.9 7.84452 61.6 6.44453 62.3 5.04453L64.5 0.944528C64.7 0.544527 65.3 0.34453 65.7 0.544527C65.9 0.644526 66 0.84453 66.1 0.944529L67.8 5.14453L68.7 7.24452L69.3 8.74452C69.4 8.94453 69.4 8.94453 69.5 9.14453C69.7 9.54453 69.6 9.94453 69.2 10.1445C69 10.4445 68.5 10.3445 68.3 10.0445Z" fill="white"/>
</g>
</svg>
