<svg width="40" height="34" viewBox="0 0 40 34" fill="none" xmlns="http://www.w3.org/2000/svg">
<g clip-path="url(#clip0_2_13063)">
<path d="M17.6923 32.3739C16.9231 31.1227 16.1538 29.8716 15.3846 28.6204L13.0769 24.8668L4.46154 9.5398C3.07692 7.03743 1.53847 4.37867 0.153849 1.8763C-0.153844 1.4071 2.83081e-06 0.625115 0.615386 0.312317C0.769233 0.155919 0.923076 0.155919 1.23077 0.155919L10.4615 0.155919C13.6923 0.15592 16.7692 0.15592 20 -0.000478586L22.3077 -0.000478384C23.0769 -0.000478317 23.8462 -0.000478249 24.6154 -0.000478182L27.0769 0.155921C27.8462 0.155921 28.6154 0.31232 29.3846 0.31232L38.9231 0.312321C39.5385 0.312321 40 0.781513 40 1.4071C40 1.5635 40 1.8763 39.8462 2.0327L37.3846 5.78625L32.4615 13.6062L30 17.3597C28.3077 19.8621 26.6154 22.5208 24.9231 25.0232L19.6923 32.5303C19.3846 32.9995 18.6154 33.1559 18.1538 32.8431C17.8462 32.6867 17.8462 32.5303 17.6923 32.3739ZM18.7692 29.5588C20 27.5256 21.3846 25.4924 22.6154 23.4592C23.3846 22.2081 24.3077 20.9569 25.2308 19.7057L30.4615 12.1986L35.3846 4.37867L38 0.625114L39.2308 2.81469L29.6923 2.81469C28.1538 2.81469 26.4615 2.65829 24.9231 2.50189C23.3846 2.34549 21.6923 2.50189 20.1538 2.50189C16.9231 2.65829 13.8462 2.50189 10.6154 2.50189L1.07693 2.50189L2 0.937909C2.76923 2.18909 3.53846 3.44028 4.30769 4.69146C5.07692 5.94265 5.84616 7.19383 6.61539 8.44502L11.0769 16.1085L15.3846 23.4592C16.4615 25.4924 17.6923 27.5256 18.7692 29.5588Z" fill="#1C1B20"/>
</g>
<defs>
<clipPath id="clip0_2_13063">
<rect width="34.0002" height="40" fill="white" transform="translate(40) rotate(90)"/>
</clipPath>
</defs>
</svg>
