<svg width="123" height="124" viewBox="0 0 123 124" fill="none" xmlns="http://www.w3.org/2000/svg">
<path d="M115.989 65.2552L113.015 65.3194L112.986 64.0045L114.711 63.9673L114.586 58.1905L112.862 58.2277L112.833 56.8913L115.808 56.8271L115.826 57.6893C116.498 57.8473 117.556 57.9107 119.13 57.8768L122.773 57.7982L122.91 64.1569L115.969 64.3067L115.989 65.2552ZM115.855 59.0257L115.94 62.9488L121.63 62.8259L121.551 59.1616L119.159 59.2132C117.93 59.2397 116.72 59.158 115.855 59.0257Z" fill="#1C1B20"/>
<path d="M115.408 69.5849L114.732 73.9309L113.517 73.742L114.402 68.0538L122.498 69.313L121.629 74.8947L120.415 74.7058L121.074 70.4663L118.944 70.1349L118.434 73.4158L117.241 73.2302L117.751 69.9494L115.408 69.5849Z" fill="#1C1B20"/>
<path d="M118.596 85.0387L117.409 84.6458L118.323 81.8826L111.732 79.7016L112.166 78.3916L118.757 80.5726L119.671 77.8093L120.858 78.2021L118.596 85.0387Z" fill="#1C1B20"/>
<path d="M107.09 89.7873L109.109 90.0318L110.953 86.568L109.623 85.0294L110.292 83.7733L115.974 90.535L115.193 92.0004L106.411 91.0625L107.09 89.7873ZM111.796 87.5541L110.398 90.1805L114.485 90.6706L111.796 87.5541Z" fill="#1C1B20"/>
<path d="M107.234 103.401L100.819 98.305L101.677 97.2245L107.113 101.543L109.272 98.8245L107.28 97.2421C104.697 95.1904 104.007 94.2567 104.986 93.0243C105.12 92.8555 105.267 92.6698 105.499 92.413L106.512 93.2177L106.27 93.5215C105.801 94.1124 105.765 94.3314 108.162 96.2356L111.083 98.5556L107.234 103.401Z" fill="#1C1B20"/>
<path d="M98.9277 107.007C97.5588 108.193 96.0761 108.194 95.0457 107.004C94.0294 105.831 94.2417 104.363 95.6106 103.178L98.2182 100.919L103.582 107.112L102.555 108.001L100.509 105.638L98.9277 107.007ZM96.4848 103.989C95.6373 104.723 95.51 105.433 96.1029 106.117C96.6957 106.801 97.4158 106.777 98.2633 106.043L99.7463 104.758L97.9678 102.705L96.4848 103.989Z" fill="#1C1B20"/>
<path d="M90.4534 116.6L89.2809 117.286L85.1448 110.214L86.3173 109.528L88.1241 112.618L91.6602 110.549L89.8534 107.46L91.0259 106.774L95.162 113.847L93.9895 114.532L92.2915 111.629L88.7554 113.697L90.4534 116.6Z" fill="#1C1B20"/>
<path d="M81.8493 111.616L84.9364 119.205L83.6783 119.716L80.5911 112.127L81.8493 111.616Z" fill="#1C1B20"/>
<path d="M70.0834 123.458L68.7762 123.738L67.064 115.726L77.2688 113.545L78.9809 121.557L77.6526 121.841L76.2018 115.052L73.1024 115.714L74.5532 122.503L73.2038 122.791L71.753 116.002L68.6326 116.669L70.0834 123.458Z" fill="#1C1B20"/>
<path d="M61.8258 117.034L57.4276 117.027L57.4294 115.798L63.186 115.807L63.1737 124L57.5249 123.992L57.5267 122.763L61.8172 122.769L61.8204 120.613L58.5002 120.608L58.502 119.401L61.8223 119.406L61.8258 117.034Z" fill="#1C1B20"/>
<path d="M29.698 106.91L31.2475 104.37L32.3703 105.055L31.472 106.527L36.4047 109.536L37.303 108.064L38.4441 108.76L36.8946 111.3L36.1584 110.851C35.6631 111.332 35.0392 112.188 34.2196 113.532L32.322 116.643L26.8923 113.33L30.5079 107.404L29.698 106.91ZM35.0172 110.155L31.6674 108.111L28.7031 112.97L31.8321 114.879L33.0784 112.836C33.7185 111.787 34.4393 110.812 35.0172 110.155Z" fill="#1C1B20"/>
<path d="M26.365 104.085L23.069 101.173L23.8827 100.252L28.1966 104.064L22.7719 110.203L18.5388 106.463L19.3525 105.542L22.5677 108.383L23.9953 106.767L21.5071 104.569L22.3066 103.664L24.7947 105.863L26.365 104.085Z" fill="#1C1B20"/>
<path d="M11.6302 98.44L12.601 97.6519L14.4354 99.9117L19.8255 95.5362L20.6951 96.6075L15.3051 100.983L17.1395 103.243L16.1687 104.031L11.6302 98.44Z" fill="#1C1B20"/>
<path d="M13.8334 86.1891L12.539 87.758L14.4623 91.1783L16.4754 90.8873L17.1728 92.1276L8.41475 93.2681L7.60103 91.821L13.1254 84.93L13.8334 86.1891ZM13.1774 91.3567L11.7191 88.7633L9.10315 91.941L13.1774 91.3567Z" fill="#1C1B20"/>
<path d="M2.29003 78.9713L10.0404 76.3151L10.4877 77.6205L3.92033 79.8712L5.0457 83.1549L7.45239 82.3301C10.5729 81.2607 11.7314 81.1827 12.2416 82.6716C12.3115 82.8755 12.3884 83.0999 12.4799 83.4332L11.2561 83.8526L11.1303 83.4855C10.8856 82.7716 10.7208 82.623 7.82458 83.6156L4.29613 84.8249L2.29003 78.9713Z" fill="#1C1B20"/>
<path d="M3.73008 70.0311C3.46944 68.2389 4.2682 66.9898 5.82571 66.7633C7.36188 66.5399 8.48334 67.5097 8.74398 69.3019L9.24043 72.7157L1.13284 73.8947L0.937363 72.5506L4.03105 72.1007L3.73008 70.0311ZM7.58913 69.6006C7.42778 68.4911 6.89906 68.0016 6.00295 68.1319C5.10685 68.2622 4.73948 68.8821 4.90082 69.9916L5.18318 71.9331L7.87148 71.5422L7.58913 69.6006Z" fill="#1C1B20"/>
<path d="M0.218991 57.7222L0.273526 56.365L8.45979 56.6939L8.40526 58.0511L4.82915 57.9074L4.66469 62.0006L8.2408 62.1443L8.18626 63.5015L0 63.1725L0.0545295 61.8153L3.41521 61.9504L3.57967 57.8572L0.218991 57.7222Z" fill="#1C1B20"/>
<path d="M9.05575 53.1626L0.999698 51.6716L1.24689 50.336L9.30295 51.827L9.05575 53.1626Z" fill="#1C1B20"/>
<path d="M5.42428 36.8686L5.89371 35.617L13.5648 38.4942L9.90017 48.2647L2.22911 45.3875L2.70612 44.1157L9.20632 46.5537L10.3193 43.5862L3.81912 41.1482L4.3037 39.8563L10.8039 42.2943L11.9245 39.3066L5.42428 36.8686Z" fill="#1C1B20"/>
<path d="M15.2866 33.3769L17.6632 29.676L18.6973 30.3401L15.5867 35.1839L8.6929 30.7568L11.7452 26.0037L12.7793 26.6678L10.4609 30.278L12.2751 31.443L14.0692 28.6492L15.0851 29.3016L13.291 32.0954L15.2866 33.3769Z" fill="#1C1B20"/>
<path d="M35.8479 12.6657L37.3889 15.2108L36.2639 15.892L35.3705 14.4165L30.4278 17.4092L31.3211 18.8847L30.1777 19.577L28.6366 17.0319L29.3744 16.5852C29.1757 15.9241 28.7023 14.9757 27.8872 13.6294L26 10.5125L31.4407 7.21833L35.0364 13.157L35.8479 12.6657ZM30.5178 15.8928L33.8745 13.8605L30.9265 8.99154L27.7911 10.8899L29.0306 12.9371C29.6671 13.9883 30.2003 15.077 30.5178 15.8928Z" fill="#1C1B20"/>
<path d="M39.8897 11.0078L43.9927 9.42325L44.4354 10.5697L39.0654 12.6435L36.1138 5.00082L41.3832 2.96576L41.826 4.11218L37.8236 5.65788L38.6003 7.66913L41.6977 6.47295L42.1326 7.59925L39.0353 8.79542L39.8897 11.0078Z" fill="#1C1B20"/>
<path d="M51.6866 0.528231L51.9391 1.75297L49.0884 2.34061L50.49 9.14003L49.1386 9.41861L47.7369 2.6192L44.8862 3.20683L44.6338 1.9821L51.6866 0.528231Z" fill="#1C1B20"/>
<path d="M61.5464 8.12579L60.7499 6.25425L56.8282 6.38639L56.1594 8.30729L54.7373 8.3552L57.7582 0.0559031L59.4174 0L62.9901 8.07715L61.5464 8.12579ZM57.2616 5.16373L60.2352 5.06354L58.6192 1.2781L57.2616 5.16373Z" fill="#1C1B20"/>
<path d="M73.2693 1.20333L72.0578 9.30614L70.6931 9.10209L71.7197 2.23603L68.2867 1.72274L67.9105 4.23888C67.4227 7.50132 66.9584 8.56549 65.4018 8.33276C65.1886 8.30088 64.954 8.2658 64.616 8.19347L64.8073 6.91408L65.1911 6.97147C65.9374 7.08305 66.1453 7.00513 66.598 3.97724L67.1496 0.288331L73.2693 1.20333Z" fill="#1C1B20"/>
<path d="M80.5419 6.59877C82.2528 7.19277 82.9936 8.47702 82.4774 9.96385C81.9683 11.4303 80.591 11.9791 78.8801 11.3851L75.6213 10.2537L78.3084 2.51404L79.5916 2.95954L78.5662 5.91284L80.5419 6.59877ZM79.1468 10.2225C80.2059 10.5902 80.884 10.3463 81.181 9.49091C81.478 8.63547 81.0969 8.0239 80.0378 7.65618L78.1844 7.01268L77.2934 9.57899L79.1468 10.2225Z" fill="#1C1B20"/>
<path d="M93.0848 9.15071L94.2644 9.82414L90.2024 16.9392L89.0228 16.2657L90.7972 13.1576L87.2397 11.1266L85.4653 14.2348L84.2857 13.5613L88.3476 6.44631L89.5272 7.11974L87.8597 10.0406L91.4172 12.0716L93.0848 9.15071Z" fill="#1C1B20"/>
<path d="M93.0625 19.0944L98.096 12.6301L99.1677 13.4646L94.1342 19.9289L93.0625 19.0944Z" fill="#1C1B20"/>
<path d="M109.198 23.3748L110.093 24.3679L104.006 29.852L97.0213 22.0996L103.108 16.6154L104.017 17.6245L98.8595 22.2716L100.981 24.6262L106.139 19.9791L107.062 21.0042L101.905 25.6513L104.041 28.0219L109.198 23.3748Z" fill="#1C1B20"/>
<path d="M107.756 33.737L109.946 37.551L108.881 38.1631L106.014 33.1713L113.118 29.0908L115.931 33.9891L114.866 34.6012L112.729 30.8807L110.859 31.9545L112.513 34.8337L111.466 35.435L109.812 32.5558L107.756 33.737Z" fill="#1C1B20"/>
</svg>
