<svg width="128" height="105" viewBox="0 0 128 105" fill="none" xmlns="http://www.w3.org/2000/svg">
<path opacity="0.5" d="M9.81822 32.9474C6.55908 44.1103 1.96823 55.4808 0.189543 66.9594C0.143491 67.1032 0.240872 67.2929 0.338262 67.4826C-0.178882 68.1096 -0.0709231 69.2539 0.933159 69.5755C35.7378 80.4063 69.8871 92.2954 104.134 104.374C104.421 104.466 104.564 104.512 104.754 104.414C105.327 104.598 106.039 104.35 106.459 103.534C114.98 81.3738 120.971 58.7204 127.725 36.1529C127.909 35.5778 127.714 35.1983 127.473 34.9627C127.422 34.6292 127.273 34.1059 126.699 33.9222C94.6647 19.3812 59.9167 9.36127 25.7583 0.956923C25.0411 0.727206 24.4266 1.1645 24.0989 1.69367C23.8581 1.45801 23.5712 1.36612 23.2383 1.41801C22.8027 0.802897 21.7986 0.481293 21.1893 1.39586C14.6152 10.0702 12.755 22.7909 9.81822 32.9474ZM104.102 101.511C72.3188 88.1598 38.7025 77.0756 5.44021 67.8485C18.4072 59.9535 30.7227 49.1549 45.1506 44.1057C45.5296 43.91 45.7651 43.6684 45.9033 43.2371C48.23 46.8359 50.5568 50.4347 53.073 53.9356C55.1536 56.8215 57.3724 59.276 60.5794 60.6202C66.0815 62.6996 72.3967 60.7591 78.3736 58.3931C86.7739 72.6564 95.0821 87.2073 104.24 101.079C104.194 101.223 104.148 101.367 104.102 101.511ZM115.365 68.8147C112.285 78.9252 108.729 89.0417 104.931 98.9225C97.4375 84.7911 89.0425 71.0051 80.9804 57.1672C83.5873 55.9413 86.1941 54.7153 88.422 53.6851C100.422 48.8095 112.422 43.9339 124.273 38.535C120.378 48.2261 118.497 59.0377 115.365 68.8147ZM124.672 35.8091C114.802 39.4648 105.271 43.5458 95.5963 47.5809C90.7102 49.5036 85.9216 51.616 81.0355 53.5387C80.3236 53.7862 79.5657 54.1776 78.8537 54.4251C78.2339 54.3851 77.522 54.6327 77.3839 55.064C71.8833 57.424 65.7629 59.744 60.2963 56.5663C55.5009 53.7621 52.5279 47.7369 49.5708 43.1436C46.7111 38.7399 43.9948 34.3822 41.135 29.9786C35.7998 21.453 30.5567 12.6398 25.6005 3.91846C59.426 12.3747 91.9054 24.046 124.672 35.8091ZM22.4146 4.48333C28.6829 15.5273 35.1868 26.3296 42.0236 37.08C43.0896 38.6897 44.0121 40.2534 45.0781 41.8631C44.9347 41.8171 44.7912 41.7712 44.7452 41.915C37.1904 43.7755 30.9017 48.1025 24.3721 52.1937C17.1819 56.8661 9.75098 61.3028 2.61218 66.3086C2.42268 66.4064 2.42269 66.4064 2.37664 66.5502C6.79386 56.7094 9.1463 45.4146 12.1752 34.9706C15.2093 25.0038 17.3262 13.9506 22.4146 4.48333Z" fill="white"/>
</svg>
