<svg width="71" height="57" viewBox="0 0 71 57" fill="none" xmlns="http://www.w3.org/2000/svg">
<path opacity="0.5" d="M6.01865 17.6797C4.23438 23.7911 1.72104 30.016 0.747274 36.3002C0.722062 36.3789 0.775378 36.4827 0.828695 36.5866C0.545578 36.9299 0.60468 37.5563 1.15438 37.7324C20.2088 43.6619 38.9044 50.1708 57.6533 56.7835C57.8104 56.8338 57.8889 56.859 57.9926 56.8054C58.3067 56.906 58.6965 56.7705 58.9263 56.3233C63.5913 44.1915 66.871 31.7896 70.5685 19.4346C70.6693 19.1198 70.5627 18.912 70.4308 18.783C70.4027 18.6004 70.3213 18.314 70.0072 18.2134C52.4693 10.2527 33.4459 4.7671 14.7453 0.16601C14.3527 0.0402481 14.0162 0.27965 13.8368 0.569357C13.705 0.440338 13.5479 0.390033 13.3657 0.418442C13.1272 0.0816868 12.5775 -0.0943817 12.244 0.406315C8.64484 5.15525 7.62643 12.1194 6.01865 17.6797ZM57.6359 55.2157C40.2356 47.9067 21.8318 41.8384 3.62184 36.7869C10.7208 32.4647 17.4632 26.5528 25.3619 23.7885C25.5694 23.6814 25.6984 23.5491 25.774 23.313C27.0478 25.2832 28.3216 27.2534 29.6992 29.1701C30.8383 30.75 32.053 32.0937 33.8087 32.8297C36.8209 33.968 40.2782 32.9057 43.5504 31.6104C48.1493 39.4191 52.6977 47.3852 57.7116 54.9796C57.6864 55.0583 57.6612 55.137 57.6359 55.2157ZM63.8021 37.3159C62.1158 42.851 60.1687 48.3895 58.0898 53.7989C53.9873 46.0624 49.3913 38.515 44.9776 30.9392C46.4047 30.2681 47.8319 29.5969 49.0516 29.0329C55.6211 26.3637 62.1907 23.6944 68.6788 20.7388C66.5465 26.0443 65.5166 31.9633 63.8021 37.3159ZM68.897 19.2464C63.4938 21.2478 58.2758 23.482 52.9792 25.6911C50.3043 26.7437 47.6827 27.9001 45.0077 28.9527C44.618 29.0883 44.203 29.3025 43.8133 29.4381C43.474 29.4162 43.0842 29.5517 43.0086 29.7878C39.9972 31.0798 36.6465 32.35 33.6537 30.6103C31.0284 29.0751 29.4008 25.7765 27.7819 23.2618C26.2162 20.8509 24.7292 18.4652 23.1635 16.0544C20.2427 11.3869 17.3723 6.56198 14.6589 1.78735C33.1772 6.41686 50.9586 12.8065 68.897 19.2464ZM12.9148 2.0966C16.3464 8.14278 19.9071 14.0567 23.65 19.9422C24.2336 20.8234 24.7387 21.6795 25.3223 22.5608C25.2437 22.5356 25.1652 22.5105 25.14 22.5892C21.004 23.6077 17.5611 25.9766 13.9864 28.2164C10.05 30.7744 5.98184 33.2033 2.07359 35.9439C1.96985 35.9974 1.96985 35.9974 1.94463 36.0761C4.36292 30.6886 5.6508 24.5051 7.309 18.7873C8.9701 13.3309 10.129 7.27964 12.9148 2.0966Z" fill="white"/>
</svg>
