<svg width="20" height="26" viewBox="0 0 20 26" fill="none" xmlns="http://www.w3.org/2000/svg">
<path d="M10 3C8.02219 3 6.08879 3.58649 4.4443 4.6853C2.79981 5.78412 1.51809 7.3459 0.761209 9.17316C0.00433284 11.0004 -0.1937 13.0111 0.192152 14.9509C0.578004 16.8907 1.53041 18.6725 2.92894 20.0711C4.32746 21.4696 6.10929 22.422 8.0491 22.8078C9.98891 23.1937 11.9996 22.9957 13.8268 22.2388C15.6541 21.4819 17.2159 20.2002 18.3147 18.5557C19.4135 16.9112 20 14.9778 20 13C20 11.6868 19.7413 10.3864 19.2388 9.17316C18.7362 7.95991 17.9997 6.85752 17.0711 5.92893C16.1425 5.00035 15.0401 4.26375 13.8268 3.7612C12.6136 3.25866 11.3132 3 10 3ZM14.71 10.71L8.71 16.71C8.61704 16.8037 8.50644 16.8781 8.38458 16.9289C8.26272 16.9797 8.13201 17.0058 8 17.0058C7.86799 17.0058 7.73728 16.9797 7.61542 16.9289C7.49357 16.8781 7.38296 16.8037 7.29 16.71L5.29 14.71C5.19676 14.6168 5.1228 14.5061 5.07234 14.3842C5.02188 14.2624 4.99591 14.1319 4.99591 14C4.99591 13.8681 5.02188 13.7376 5.07234 13.6157C5.1228 13.4939 5.19676 13.3832 5.29 13.29C5.38324 13.1968 5.49393 13.1228 5.61575 13.0723C5.73758 13.0219 5.86814 12.9959 6 12.9959C6.13186 12.9959 6.26243 13.0219 6.38425 13.0723C6.50607 13.1228 6.61676 13.1968 6.71 13.29L8 14.59L13.29 9.29C13.4783 9.10169 13.7337 8.99591 14 8.99591C14.2663 8.99591 14.5217 9.10169 14.71 9.29C14.8983 9.4783 15.0041 9.7337 15.0041 10C15.0041 10.2663 14.8983 10.5217 14.71 10.71Z" fill="#886CF5"/>
<path d="M14.7141 10.7141L8.71409 16.7141C8.62113 16.8078 8.51053 16.8822 8.38867 16.933C8.26681 16.9837 8.1361 17.0099 8.00409 17.0099C7.87208 17.0099 7.74137 16.9837 7.61951 16.933C7.49765 16.8822 7.38705 16.8078 7.29409 16.7141L5.29409 14.7141C5.20085 14.6209 5.12689 14.5102 5.07643 14.3883C5.02597 14.2665 5 14.1359 5 14.0041C5 13.8722 5.02597 13.7417 5.07643 13.6198C5.12689 13.498 5.20085 13.3873 5.29409 13.2941C5.38733 13.2009 5.49802 13.1269 5.61984 13.0764C5.74166 13.026 5.87223 13 6.00409 13C6.13595 13 6.26652 13.026 6.38834 13.0764C6.51016 13.1269 6.62085 13.2009 6.71409 13.2941L8.00409 14.5941L13.2941 9.29409C13.4824 9.10579 13.7378 9 14.0041 9C14.2704 9 14.5258 9.10579 14.7141 9.29409C14.9024 9.4824 15.0082 9.73779 15.0082 10.0041C15.0082 10.2704 14.9024 10.5258 14.7141 10.7141Z" fill="white"/>
</svg>
