<svg width="105" height="105" viewBox="0 0 105 105" fill="none" xmlns="http://www.w3.org/2000/svg">
<path opacity="0.5" d="M87.2629 67.5545C84.0318 71.9799 79.052 74.8721 74.7024 78.1185C70.6912 81.1081 66.2157 83.774 61.5498 85.6697C55.6886 88.0474 47.1334 91.2127 40.9566 88.1676C36.8623 86.1464 33.9093 82.5421 31.1611 79.0727M87.268 67.5454C89.9815 63.8272 90.9313 59.1035 90.6392 54.5747C89.9885 44.5042 85.252 35.0966 78.9211 27.2761C74.3484 21.6251 68.3636 14.3616 60.7147 12.9463C51.8399 11.3057 40.9028 17.357 33.8669 22.0738C27.599 26.267 21.4004 30.7717 17.6288 37.4042C7.1298 55.8873 24.4569 77.8846 38.1515 89.633" stroke="white" stroke-width="2" stroke-miterlimit="10" stroke-linecap="round" stroke-linejoin="round"/>
<g opacity="0.5">
<path d="M57.4031 34.0903C60.0821 35.2488 61.8374 38.0422 62.2355 40.8223C62.8903 45.4075 59.8807 49.6072 55.6338 51.2512C53.5935 52.0442 51.3715 52.285 49.3193 53.1152C47.5292 53.8435 45.9441 54.9709 44.6821 56.4134C44.4011 56.7404 41.5251 60.5417 42.3573 61.4297C43.0553 62.1751 44.0213 62.5689 45.1111 63.0125C45.4377 63.1463 45.9797 63.118 46.3048 62.4574C46.626 61.8034 47.1769 60.7072 47.2405 60.5935C47.9733 59.2997 48.763 58.2548 50.0702 57.4648C53.5815 55.3341 57.8216 55.169 61.4041 53.2775C65.7844 50.9647 68.5976 46.048 68.2997 41.1595C68.0019 36.2711 64.5833 31.6674 59.9092 29.9137C56.9078 28.7895 53.5079 28.8877 50.5467 30.0352C47.5252 31.2109 44.2026 33.8016 43.8755 37.2082C43.7161 38.8484 44.4931 40.6483 46.0014 41.3802C46.3236 41.5378 46.6757 41.6418 47.0385 41.647C48.669 41.6343 48.6185 39.636 48.5987 38.4915C48.5535 34.124 53.8757 32.567 57.4031 34.0903Z" stroke="white" stroke-width="2" stroke-miterlimit="10" stroke-linecap="round" stroke-linejoin="round"/>
<path d="M40.3366 71.3553L38.2226 70.2072C37.778 69.9657 37.6205 69.418 37.86 68.9899L39.0163 66.9232C39.2595 66.4884 39.8167 66.3376 40.2545 66.5754L42.3685 67.7234C42.8131 67.965 42.9706 68.5126 42.7311 68.9407L41.5748 71.0074C41.3353 71.4355 40.7744 71.5931 40.3366 71.3553Z" stroke="white" stroke-width="2" stroke-miterlimit="10" stroke-linecap="round" stroke-linejoin="round"/>
</g>
</svg>
