<svg width="35" height="35" viewBox="0 0 35 35" fill="none" xmlns="http://www.w3.org/2000/svg">
<rect width="35" height="35" rx="8" fill="#302D3B"/>
<path d="M15.5068 18.4641C15.4457 18.4641 14.0679 18.4641 13.4402 18.4641C13.106 18.4641 13 18.3504 13 18.0682C13 17.3167 13 16.5469 13 15.7955C13 15.4949 13.1264 15.3996 13.4402 15.3996H15.5068C15.5068 15.3446 15.5068 14.2559 15.5068 13.7463C15.5068 12.9949 15.6535 12.2837 16.0693 11.6239C16.5095 10.9567 17.1372 10.5059 17.928 10.2456C18.4497 10.0733 18.9715 10 19.538 10H21.5842C21.8777 10 22 10.1136 22 10.3739V12.5147C22 12.7786 21.8736 12.8886 21.5842 12.8886C21.0217 12.8886 20.4592 12.8886 19.8927 12.9069C19.3302 12.9069 19.0367 13.1525 19.0367 13.6767C19.0163 14.2412 19.0367 14.7837 19.0367 15.3666H21.4579C21.7921 15.3666 21.9185 15.4802 21.9185 15.7808V18.0535C21.9185 18.3541 21.8125 18.4494 21.4579 18.4494C20.7079 18.4494 19.0978 18.4494 19.0367 18.4494V24.5674C19.0367 24.8864 18.9307 25 18.5557 25C17.6793 25 16.8234 25 15.947 25C15.6332 25 15.5068 24.8864 15.5068 24.6041C15.5068 22.632 15.5068 18.5191 15.5068 18.4641Z" fill="white"/>
</svg>
