<svg width="35" height="35" viewBox="0 0 35 35" fill="none" xmlns="http://www.w3.org/2000/svg">
<rect width="35" height="35" rx="8" fill="#302D3B"/>
<g clip-path="url(#clip0_2_13765)">
<path d="M18.2706 10C19.1147 10.0014 19.5424 10.0059 19.9121 10.0169L20.0576 10.0216C20.2258 10.0276 20.3917 10.0351 20.5917 10.0445C21.3898 10.0813 21.9343 10.2076 22.4124 10.3932C22.9068 10.5839 23.3243 10.8414 23.7412 11.2583C24.1574 11.6752 24.415 12.0939 24.6062 12.5871C24.7912 13.0646 24.9175 13.6096 24.955 14.4078C24.9639 14.6078 24.9711 14.7737 24.977 14.9419L24.9818 15.0874C24.9927 15.457 24.9977 15.8848 24.9993 16.7289L24.9999 17.2882C25 17.3565 25 17.427 25 17.4997L24.9999 17.7113L24.9995 18.2706C24.998 19.1147 24.9936 19.5424 24.9826 19.9121L24.9778 20.0576C24.9719 20.2258 24.9644 20.3917 24.955 20.5917C24.9181 21.3898 24.7912 21.9343 24.6062 22.4124C24.4156 22.9068 24.1574 23.3243 23.7412 23.7412C23.3243 24.1574 22.9049 24.415 22.4124 24.6062C21.9343 24.7912 21.3898 24.9175 20.5917 24.955C20.3917 24.9639 20.2258 24.9711 20.0576 24.977L19.9121 24.9818C19.5424 24.9927 19.1147 24.9977 18.2706 24.9993L17.7113 24.9999C17.643 25 17.5725 25 17.4997 25L17.2882 24.9999L16.7289 24.9995C15.8848 24.998 15.457 24.9936 15.0874 24.9826L14.9419 24.9778C14.7737 24.9719 14.6078 24.9644 14.4078 24.955C13.6096 24.9181 13.0658 24.7912 12.5871 24.6062C12.0933 24.4156 11.6752 24.1574 11.2583 23.7412C10.8414 23.3243 10.5845 22.9049 10.3932 22.4124C10.2076 21.9343 10.082 21.3898 10.0445 20.5917C10.0356 20.3917 10.0283 20.2258 10.0224 20.0576L10.0177 19.9121C10.0067 19.5424 10.0017 19.1147 10.0001 18.2706L10 16.7289C10.0014 15.8848 10.0059 15.457 10.0169 15.0874L10.0216 14.9419C10.0276 14.7737 10.0351 14.6078 10.0445 14.4078C10.0813 13.609 10.2076 13.0652 10.3932 12.5871C10.5839 12.0933 10.8414 11.6752 11.2583 11.2583C11.6752 10.8414 12.0939 10.5845 12.5871 10.3932C13.0652 10.2076 13.609 10.082 14.4078 10.0445C14.6078 10.0356 14.7737 10.0283 14.9419 10.0224L15.0874 10.0177C15.457 10.0067 15.8848 10.0017 16.7289 10.0001L18.2706 10ZM17.4997 13.7496C15.4275 13.7496 13.7496 15.4293 13.7496 17.4997C13.7496 19.572 15.4293 21.2499 17.4997 21.2499C19.572 21.2499 21.2499 19.5701 21.2499 17.4997C21.2499 15.4275 19.5701 13.7496 17.4997 13.7496ZM17.4997 15.2497C18.7425 15.2497 19.7498 16.2567 19.7498 17.4997C19.7498 18.7425 18.7428 19.7498 17.4997 19.7498C16.257 19.7498 15.2497 18.7428 15.2497 17.4997C15.2497 16.257 16.2567 15.2497 17.4997 15.2497ZM21.4374 12.6246C20.9204 12.6246 20.4998 13.0445 20.4998 13.5615C20.4998 14.0784 20.9198 14.499 21.4374 14.499C21.9543 14.499 22.3749 14.0791 22.3749 13.5615C22.3749 13.0445 21.9536 12.6239 21.4374 12.6246Z" fill="white"/>
</g>
<defs>
<clipPath id="clip0_2_13765">
<rect width="15" height="15" fill="white" transform="translate(10 10)"/>
</clipPath>
</defs>
</svg>
