<svg aria-hidden="true" style="position: absolute; width: 0; height: 0; overflow: hidden;" version="1.1" xmlns="http://www.w3.org/2000/svg" xmlns:xlink="http://www.w3.org/1999/xlink">
<defs>
<symbol id="icon-cross" viewBox="0 0 32 32">
<path d="M31.708 25.708c-0-0-0-0-0-0l-9.708-9.708 9.708-9.708c0-0 0-0 0-0 0.105-0.105 0.18-0.227 0.229-0.357 0.133-0.356 0.057-0.771-0.229-1.057l-4.586-4.586c-0.286-0.286-0.702-0.361-1.057-0.229-0.13 0.048-0.252 0.124-0.357 0.228 0 0-0 0-0 0l-9.708 9.708-9.708-9.708c-0-0-0-0-0-0-0.105-0.104-0.227-0.18-0.357-0.228-0.356-0.133-0.771-0.057-1.057 0.229l-4.586 4.586c-0.286 0.286-0.361 0.702-0.229 1.057 0.049 0.13 0.124 0.252 0.229 0.357 0 0 0 0 0 0l9.708 9.708-9.708 9.708c-0 0-0 0-0 0-0.104 0.105-0.18 0.227-0.229 0.357-0.133 0.355-0.057 0.771 0.229 1.057l4.586 4.586c0.286 0.286 0.702 0.361 1.057 0.229 0.13-0.049 0.252-0.124 0.357-0.229 0-0 0-0 0-0l9.708-9.708 9.708 9.708c0 0 0 0 0 0 0.105 0.105 0.227 0.18 0.357 0.229 0.356 0.133 0.771 0.057 1.057-0.229l4.586-4.586c0.286-0.286 0.362-0.702 0.229-1.057-0.049-0.13-0.124-0.252-0.229-0.357z"></path>
</symbol>
<symbol id="icon-eye" viewBox="0 0 32 32">
<path d="M16 6c-6.979 0-13.028 4.064-16 10 2.972 5.936 9.021 10 16 10s13.027-4.064 16-10c-2.972-5.936-9.021-10-16-10zM23.889 11.303c1.88 1.199 3.473 2.805 4.67 4.697-1.197 1.891-2.79 3.498-4.67 4.697-2.362 1.507-5.090 2.303-7.889 2.303s-5.527-0.796-7.889-2.303c-1.88-1.199-3.473-2.805-4.67-4.697 1.197-1.891 2.79-3.498 4.67-4.697 0.122-0.078 0.246-0.154 0.371-0.228-0.311 0.854-0.482 1.776-0.482 2.737 0 4.418 3.582 8 8 8s8-3.582 8-8c0-0.962-0.17-1.883-0.482-2.737 0.124 0.074 0.248 0.15 0.371 0.228v0zM16 13c0 1.657-1.343 3-3 3s-3-1.343-3-3 1.343-3 3-3 3 1.343 3 3z"></path>
</symbol>
<symbol id="icon-eye-blocked" viewBox="0 0 32 32">
<path d="M29.561 0.439c-0.586-0.586-1.535-0.586-2.121 0l-6.318 6.318c-1.623-0.492-3.342-0.757-5.122-0.757-6.979 0-13.028 4.064-16 10 1.285 2.566 3.145 4.782 5.407 6.472l-4.968 4.968c-0.586 0.586-0.586 1.535 0 2.121 0.293 0.293 0.677 0.439 1.061 0.439s0.768-0.146 1.061-0.439l27-27c0.586-0.586 0.586-1.536 0-2.121zM13 10c1.32 0 2.44 0.853 2.841 2.037l-3.804 3.804c-1.184-0.401-2.037-1.521-2.037-2.841 0-1.657 1.343-3 3-3zM3.441 16c1.197-1.891 2.79-3.498 4.67-4.697 0.122-0.078 0.246-0.154 0.371-0.228-0.311 0.854-0.482 1.776-0.482 2.737 0 1.715 0.54 3.304 1.459 4.607l-1.904 1.904c-1.639-1.151-3.038-2.621-4.114-4.323z"></path>
<path d="M24 13.813c0-0.849-0.133-1.667-0.378-2.434l-10.056 10.056c0.768 0.245 1.586 0.378 2.435 0.378 4.418 0 8-3.582 8-8z"></path>
<path d="M25.938 9.062l-2.168 2.168c0.040 0.025 0.079 0.049 0.118 0.074 1.88 1.199 3.473 2.805 4.67 4.697-1.197 1.891-2.79 3.498-4.67 4.697-2.362 1.507-5.090 2.303-7.889 2.303-1.208 0-2.403-0.149-3.561-0.439l-2.403 2.403c1.866 0.671 3.873 1.036 5.964 1.036 6.978 0 13.027-4.064 16-10-1.407-2.81-3.504-5.2-6.062-6.938z"></path>
</symbol>

<symbol id="icon-checkmark" viewBox="0 0 32 32">
<path d="M27 4l-15 15-7-7-5 5 12 12 20-20z"></path>
</symbol>
<symbol id="icon-plus" viewBox="0 0 32 32">
<path d="M31 12h-11v-11c0-0.552-0.448-1-1-1h-6c-0.552 0-1 0.448-1 1v11h-11c-0.552 0-1 0.448-1 1v6c0 0.552 0.448 1 1 1h11v11c0 0.552 0.448 1 1 1h6c0.552 0 1-0.448 1-1v-11h11c0.552 0 1-0.448 1-1v-6c0-0.552-0.448-1-1-1z"></path>
</symbol>
<symbol id="icon-monetization_on" viewBox="0 0 32 32">
<path   d="M14.665 26.37h2.593v-1.852c1.235-0.222 2.296-0.704 3.185-1.444s1.333-1.84 1.333-3.296c0-1.037-0.296-1.988-0.889-2.852s-1.778-1.617-3.555-2.259c-1.481-0.494-2.506-0.926-3.074-1.296s-0.852-0.877-0.852-1.519c0-0.642 0.228-1.148 0.685-1.518s1.117-0.556 1.981-0.556c0.79 0 1.407 0.191 1.852 0.574s0.765 0.858 0.963 1.426l2.37-0.963c-0.272-0.864-0.772-1.617-1.5-2.259s-1.537-1-2.426-1.074v-1.852h-2.593v1.852c-1.235 0.272-2.198 0.815-2.889 1.63s-1.037 1.728-1.037 2.741c0 1.161 0.339 2.099 1.019 2.815s1.747 1.333 3.204 1.852c1.556 0.568 2.636 1.074 3.241 1.518s0.907 1.025 0.907 1.741c0 0.815-0.29 1.413-0.87 1.796s-1.278 0.574-2.093 0.574-1.537-0.253-2.167-0.759c-0.63-0.506-1.093-1.265-1.389-2.278l-2.444 0.963c0.346 1.185 0.883 2.142 1.611 2.87s1.673 1.228 2.833 1.5v1.926zM15.999 30.815c-2.049 0-3.975-0.389-5.778-1.167s-3.37-1.833-4.704-3.167c-1.333-1.333-2.389-2.901-3.167-4.704s-1.167-3.728-1.167-5.778c0-2.049 0.389-3.975 1.167-5.778s1.833-3.37 3.167-4.704c1.333-1.333 2.901-2.389 4.704-3.167s3.728-1.167 5.778-1.167c2.049 0 3.975 0.389 5.778 1.167s3.37 1.833 4.704 3.167 2.389 2.901 3.167 4.704c0.778 1.802 1.167 3.728 1.167 5.778s-0.389 3.975-1.167 5.778-1.833 3.37-3.167 4.704c-1.333 1.333-2.901 2.389-4.704 3.167s-3.728 1.167-5.778 1.167z"></path>
</symbol>
<symbol id="icon-notification" viewBox="0 0 32 32">
<path fill="#e8e9eb" style="fill: var(--color2, #e8e9eb)" d="M32 16c0 8.837-7.163 16-16 16s-16-7.163-16-16c0-8.837 7.163-16 16-16s16 7.163 16 16z"></path>
<path fill="#8e94a1" style="fill: var(--color1, #8e94a1)" d="M11.13 20.383v-1.252h1.304v-4.383c0-0.866 0.272-1.636 0.815-2.309s1.25-1.114 2.12-1.323v-0.438c0-0.261 0.095-0.483 0.285-0.665s0.421-0.274 0.693-0.274c0.272 0 0.503 0.091 0.693 0.274s0.285 0.404 0.285 0.665v0.438c0.87 0.209 1.576 0.65 2.12 1.323s0.815 1.443 0.815 2.309v4.383h1.304v1.252h-10.435zM16.348 22.261c-0.359 0-0.666-0.123-0.921-0.368s-0.383-0.54-0.383-0.884h2.609c0 0.344-0.128 0.639-0.383 0.884s-0.563 0.368-0.921 0.368z"></path>
</symbol>
<symbol id="icon-number-group-three" viewBox="0 0 22 32">
<path fill="#1d2238" style="fill: var(--color3, #1d2238)" d="M2.344 3.154h2.731v14.933h-2.731v-14.933zM9.302 3.154h2.731v14.933h-2.731v-14.933zM16.261 3.154h2.731v14.933h-2.731v-14.933z"></path>
<path fill="#1d2238" style="fill: var(--color3, #1d2238)" opacity="0.5" d="M3.72 26.314h-2.253l0.006 3.831h-0.831v-4.545h3.084l-0.006 0.714zM6.058 26.639c0.359 0 0.673 0.074 0.941 0.221 0.273 0.147 0.483 0.355 0.63 0.623 0.151 0.268 0.227 0.58 0.227 0.935 0 0.351-0.071 0.66-0.214 0.928s-0.344 0.476-0.604 0.623c-0.255 0.147-0.552 0.221-0.889 0.221-0.48 0-0.857-0.154-1.13-0.461v1.675h-0.818v-2.98c0-0.351 0.078-0.66 0.234-0.928 0.156-0.273 0.372-0.483 0.649-0.63 0.281-0.151 0.606-0.227 0.974-0.227zM6.025 29.502c0.303 0 0.55-0.1 0.74-0.299 0.19-0.203 0.286-0.465 0.286-0.786s-0.095-0.582-0.286-0.786c-0.19-0.203-0.437-0.305-0.74-0.305-0.307 0-0.554 0.1-0.74 0.299s-0.279 0.461-0.279 0.786 0.093 0.589 0.279 0.792c0.19 0.199 0.437 0.299 0.74 0.299zM12.011 26.678v2.941c0 1.221-0.6 1.831-1.799 1.831-0.316 0-0.619-0.043-0.909-0.13-0.286-0.082-0.522-0.203-0.708-0.364l0.364-0.61c0.147 0.126 0.327 0.225 0.539 0.299s0.435 0.11 0.669 0.11c0.355 0 0.615-0.087 0.779-0.26 0.169-0.169 0.253-0.431 0.253-0.786v-0.162c-0.13 0.143-0.288 0.253-0.474 0.331-0.186 0.074-0.387 0.11-0.604 0.11-0.463 0-0.829-0.128-1.097-0.383-0.264-0.255-0.396-0.638-0.396-1.149v-1.779h0.812v1.675c0 0.307 0.069 0.539 0.208 0.695 0.143 0.151 0.344 0.227 0.604 0.227 0.29 0 0.519-0.089 0.688-0.266 0.173-0.177 0.26-0.435 0.26-0.773v-1.558h0.812zM16.411 26.678v3.467h-0.805v-2.779h-1.708v2.779h-0.812v-3.467h3.324zM20.883 26.678v3.467h-0.773v-0.448c-0.134 0.165-0.301 0.288-0.5 0.37-0.195 0.082-0.411 0.123-0.649 0.123-0.338 0-0.641-0.074-0.909-0.221-0.264-0.147-0.472-0.355-0.623-0.623-0.147-0.268-0.221-0.58-0.221-0.935s0.074-0.664 0.221-0.928c0.151-0.268 0.359-0.476 0.623-0.623 0.268-0.147 0.571-0.221 0.909-0.221 0.225 0 0.431 0.039 0.617 0.117 0.19 0.078 0.355 0.193 0.493 0.344v-0.422h0.812zM19.052 29.496c0.299 0 0.545-0.1 0.74-0.299s0.292-0.461 0.292-0.786c0-0.325-0.097-0.587-0.292-0.786s-0.442-0.299-0.74-0.299c-0.299 0-0.545 0.1-0.74 0.299-0.19 0.199-0.286 0.461-0.286 0.786s0.095 0.587 0.286 0.786c0.195 0.199 0.442 0.299 0.74 0.299z"></path>
</symbol>
<symbol id="icon-payments" viewBox="0 0 45 32">
<path d="M4.799 31.645c-1.076 0-1.996-0.383-2.762-1.149s-1.149-1.687-1.149-2.762v-21.511h3.911v21.511h33.244v3.911h-33.244zM12.621 23.822c-1.076 0-1.996-0.383-2.762-1.149s-1.149-1.687-1.149-2.762v-15.644c0-1.076 0.383-1.996 1.149-2.762s1.687-1.149 2.762-1.149h27.378c1.076 0 1.996 0.383 2.762 1.149s1.149 1.687 1.149 2.762v15.644c0 1.076-0.383 1.996-1.149 2.762s-1.687 1.149-2.762 1.149h-27.378zM16.532 19.911c0-1.076-0.383-1.996-1.149-2.762s-1.687-1.149-2.762-1.149v3.911h3.911zM36.087 19.911h3.911v-3.911c-1.076 0-1.996 0.383-2.762 1.149s-1.149 1.687-1.149 2.762zM26.31 17.956c1.63 0 3.015-0.57 4.156-1.711s1.711-2.526 1.711-4.156-0.57-3.015-1.711-4.156c-1.141-1.141-2.526-1.711-4.156-1.711s-3.015 0.57-4.156 1.711c-1.141 1.141-1.711 2.526-1.711 4.156s0.57 3.015 1.711 4.156c1.141 1.141 2.526 1.711 4.156 1.711zM12.621 8.178c1.076 0 1.996-0.383 2.762-1.149s1.149-1.687 1.149-2.762h-3.911v3.911zM39.999 8.178v-3.911h-3.911c0 1.076 0.383 1.996 1.149 2.762s1.687 1.149 2.762 1.149z"></path>
</symbol>
<symbol id="icon-person" viewBox="0 0 32 32">
<path fill="#8e94a1" style="fill: var(--color1, #8e94a1)" d="M15.998 16c-1.467 0-2.722-0.522-3.767-1.567s-1.567-2.3-1.567-3.767c0-1.467 0.522-2.722 1.567-3.767s2.3-1.567 3.767-1.567c1.467 0 2.722 0.522 3.767 1.567s1.567 2.3 1.567 3.767-0.522 2.722-1.567 3.767c-1.044 1.044-2.3 1.567-3.767 1.567zM5.331 26.667v-3.733c0-0.756 0.194-1.45 0.583-2.083s0.906-1.117 1.55-1.45c1.378-0.689 2.778-1.206 4.2-1.55s2.867-0.517 4.333-0.517c1.467 0 2.911 0.172 4.333 0.517s2.822 0.861 4.2 1.55c0.644 0.333 1.161 0.817 1.55 1.45s0.583 1.328 0.583 2.083v3.733h-21.333z"></path>
</symbol>
<symbol id="icon-present_to_all" viewBox="0 0 32 32">
<path d="M14.667 22.933h2.667v-5.533l2.133 2.1 1.9-1.9-5.367-5.333-5.333 5.333 1.9 1.867 2.1-2.1v5.567zM5.333 29.867c-0.733 0-1.361-0.261-1.883-0.783s-0.783-1.15-0.783-1.883v-19.2c0-0.733 0.261-1.361 0.783-1.883s1.15-0.783 1.883-0.783h21.333c0.733 0 1.361 0.261 1.883 0.783s0.783 1.15 0.783 1.883v19.2c0 0.733-0.261 1.361-0.783 1.883s-1.15 0.783-1.883 0.783h-21.333zM5.333 27.2h21.333v-19.2h-21.333v19.2z"></path>
</symbol>
<symbol id="icon-print" viewBox="0 0 32 32">
<path d="M21.333 10.667v-4h-10.667v4h-2.667v-6.667h16v6.667h-2.667zM24 16.667c0.378 0 0.694-0.128 0.95-0.383s0.383-0.572 0.383-0.95-0.128-0.694-0.383-0.95c-0.256-0.256-0.572-0.383-0.95-0.383s-0.694 0.128-0.95 0.383c-0.256 0.256-0.383 0.572-0.383 0.95s0.128 0.694 0.383 0.95c0.256 0.256 0.572 0.383 0.95 0.383zM21.333 25.333v-5.333h-10.667v5.333h10.667zM24 28h-16v-5.333h-5.333v-8c0-1.133 0.389-2.083 1.167-2.85s1.722-1.15 2.833-1.15h18.667c1.133 0 2.083 0.383 2.85 1.15s1.15 1.717 1.15 2.85v8h-5.333v5.333zM26.667 20v-5.333c0-0.378-0.128-0.694-0.383-0.95s-0.572-0.383-0.95-0.383h-18.667c-0.378 0-0.694 0.128-0.95 0.383s-0.383 0.572-0.383 0.95v5.333h2.667v-2.667h16v2.667h2.667z"></path>
</symbol>
<symbol id="icon-profile-logo" viewBox="0 0 32 32">
<path fill="#e8e9eb" style="fill: var(--color2, #e8e9eb)" d="M32 16c0 8.837-7.163 16-16 16s-16-7.163-16-16c0-8.837 7.163-16 16-16s16 7.163 16 16z"></path>
<path fill="#8e94a1" style="fill: var(--color1, #8e94a1)" d="M16 16c-0.638 0-1.184-0.227-1.638-0.681s-0.681-1-0.681-1.638c0-0.638 0.227-1.184 0.681-1.638s1-0.681 1.638-0.681c0.638 0 1.183 0.227 1.638 0.681s0.681 1 0.681 1.638c0 0.638-0.227 1.184-0.681 1.638s-1 0.681-1.638 0.681zM11.363 20.638v-1.623c0-0.329 0.085-0.63 0.254-0.906s0.394-0.486 0.674-0.63c0.599-0.299 1.208-0.524 1.826-0.674s1.246-0.225 1.884-0.225c0.638 0 1.266 0.075 1.884 0.225s1.227 0.374 1.826 0.674c0.28 0.145 0.505 0.355 0.674 0.63s0.254 0.577 0.254 0.906v1.623h-9.275z"></path>
</symbol>
<symbol id="icon-search" viewBox="0 0 32 32">
<path d="M26.133 28l-8.4-8.4c-0.667 0.533-1.433 0.956-2.3 1.267s-1.789 0.467-2.767 0.467c-2.422 0-4.472-0.839-6.15-2.517s-2.517-3.728-2.517-6.15c0-2.422 0.839-4.472 2.517-6.15s3.728-2.517 6.15-2.517c2.422 0 4.472 0.839 6.15 2.517s2.517 3.728 2.517 6.15c0 0.978-0.156 1.9-0.467 2.767s-0.733 1.633-1.267 2.3l8.4 8.4-1.867 1.867zM12.667 18.667c1.667 0 3.083-0.583 4.25-1.75s1.75-2.583 1.75-4.25-0.583-3.083-1.75-4.25c-1.167-1.167-2.583-1.75-4.25-1.75s-3.083 0.583-4.25 1.75c-1.167 1.167-1.75 2.583-1.75 4.25s0.583 3.083 1.75 4.25c1.167 1.167 2.583 1.75 4.25 1.75z"></path>
</symbol>
<symbol id="icon-settings" viewBox="0 0 32 32">
<path   d="M11.926 30.815l-0.593-4.741c-0.321-0.124-0.623-0.272-0.907-0.444s-0.562-0.358-0.833-0.556l-4.407 1.852-4.074-7.037 3.815-2.889c-0.025-0.173-0.037-0.34-0.037-0.5v-1c0-0.161 0.012-0.327 0.037-0.5l-3.815-2.889 4.074-7.037 4.407 1.852c0.272-0.198 0.556-0.383 0.852-0.556s0.593-0.321 0.889-0.444l0.593-4.741h8.148l0.593 4.741c0.321 0.123 0.623 0.272 0.907 0.444s0.562 0.358 0.833 0.556l4.407-1.852 4.074 7.037-3.815 2.889c0.025 0.173 0.037 0.339 0.037 0.5v1c0 0.16-0.025 0.327-0.074 0.5l3.815 2.889-4.074 7.037-4.37-1.852c-0.272 0.198-0.556 0.383-0.852 0.556s-0.593 0.321-0.889 0.444l-0.593 4.741h-8.148zM16.074 21.185c1.432 0 2.654-0.506 3.667-1.519s1.518-2.235 1.518-3.667-0.506-2.654-1.518-3.667c-1.012-1.012-2.235-1.519-3.667-1.519-1.457 0-2.685 0.506-3.685 1.519s-1.5 2.235-1.5 3.667c0 1.432 0.5 2.654 1.5 3.667s2.228 1.519 3.685 1.519z"></path>
</symbol>
<symbol id="icon-account_balance" viewBox="0 0 32 32">
<path   d="M5.628 25.185v-10.37h2.963v10.37h-2.963zM14.517 25.185v-10.37h2.963v10.37h-2.963zM1.184 31.111v-2.963h29.63v2.963h-29.63zM23.406 25.185v-10.37h2.963v10.37h-2.963zM1.184 11.852v-2.963l14.815-7.407 14.815 7.407v2.963h-29.63z"></path>
</symbol>
<symbol id="icon-arrow_more" viewBox="0 0 22 32">
<path d="M2.656 16.009l16.009-16.009 3.735 3.735-12.273 12.273 12.273 12.273-3.735 3.735-16.009-16.009z"></path>
</symbol>
<symbol id="icon-arrow_right" viewBox="0 0 32 32">
<path d="M23.198 16l-6.133-6.133 1.867-1.867 8 8-8 8-1.867-1.867 6.133-6.133z"></path>
</symbol>
<symbol id="icon-arrow-bottom_more" viewBox="0 0 50 32">
<path d="M25.143 31.009l-25.143-25.143 5.867-5.867 19.276 19.276 19.276-19.276 5.867 5.867-25.143 25.143z"></path>
</symbol>
<symbol id="icon-article" viewBox="0 0 32 32">
<path  d="M4.333 31c-0.917 0-1.701-0.326-2.354-0.979s-0.979-1.437-0.979-2.354v-23.333c0-0.917 0.326-1.701 0.979-2.354s1.438-0.979 2.354-0.979h23.333c0.917 0 1.701 0.326 2.354 0.979s0.979 1.438 0.979 2.354v23.333c0 0.917-0.326 1.701-0.979 2.354s-1.437 0.979-2.354 0.979h-23.333zM7.667 24.333h11.667v-3.333h-11.667v3.333zM7.667 17.667h16.667v-3.333h-16.667v3.333zM7.667 11h16.667v-3.333h-16.667v3.333z"></path>
</symbol>
<symbol id="icon-attach_file" viewBox="0 0 30 32">
<path fill="#fff" style="fill: var(--color4, #fff)" d="M22.669 20.727c0 2.183-0.766 4.040-2.298 5.572s-3.39 2.298-5.572 2.298c-2.183 0-4.040-0.766-5.572-2.298s-2.298-3.39-2.298-5.572v-11.648c0-1.574 0.551-2.912 1.653-4.014s2.44-1.653 4.014-1.653c1.574 0 2.912 0.551 4.014 1.653s1.653 2.44 1.653 4.014v11.018c0 0.965-0.336 1.784-1.007 2.456s-1.49 1.007-2.456 1.007-1.784-0.336-2.456-1.007c-0.672-0.672-1.007-1.49-1.007-2.456v-11.648h2.519v11.648c0 0.273 0.089 0.498 0.268 0.677s0.404 0.268 0.677 0.268 0.498-0.089 0.677-0.268c0.178-0.178 0.268-0.404 0.268-0.677v-11.018c-0.021-0.881-0.331-1.627-0.929-2.235s-1.338-0.913-2.219-0.913c-0.881 0-1.627 0.304-2.235 0.913s-0.913 1.354-0.913 2.235v11.648c-0.021 1.49 0.493 2.755 1.543 3.794s2.319 1.558 3.809 1.558c1.469 0 2.718-0.519 3.746-1.558s1.564-2.303 1.605-3.794v-12.278h2.519v12.278z"></path>
</symbol>
<symbol id="icon-chat_info" viewBox="0 0 32 32">
<path fill="#8e94a1" style="fill: var(--color1, #8e94a1)" d="M15.999 8.593c0.42 0 0.772-0.142 1.056-0.426s0.426-0.636 0.426-1.056c0-0.42-0.142-0.772-0.426-1.056s-0.636-0.426-1.056-0.426c-0.42 0-0.772 0.142-1.056 0.426s-0.426 0.636-0.426 1.056c0 0.42 0.142 0.772 0.426 1.056s0.636 0.426 1.056 0.426zM14.517 20.444h2.963v-8.889h-2.963v8.889zM1.184 30.815v-26.667c0-0.815 0.29-1.512 0.87-2.093s1.278-0.87 2.093-0.87h23.704c0.815 0 1.512 0.29 2.093 0.87s0.87 1.278 0.87 2.093v17.778c0 0.815-0.29 1.512-0.87 2.093s-1.278 0.87-2.093 0.87h-20.741l-5.926 5.926z"></path>
</symbol>
<symbol id="icon-delete" viewBox="0 0 32 32">
<path d="M9.333 28c-0.733 0-1.361-0.261-1.883-0.783s-0.783-1.15-0.783-1.883v-17.333h-1.333v-2.667h6.667v-1.333h8v1.333h6.667v2.667h-1.333v17.333c0 0.733-0.261 1.361-0.783 1.883s-1.15 0.783-1.883 0.783h-13.333zM22.666 8h-13.333v17.333h13.333v-17.333zM11.999 22.667h2.667v-12h-2.667v12zM17.333 22.667h2.667v-12h-2.667v12z"></path>
</symbol>
<symbol id="icon-delete-invoice" viewBox="0 0 32 32">
<path d="M9.333 28c-0.733 0-1.361-0.261-1.883-0.783s-0.783-1.15-0.783-1.883v-17.333h-1.333v-2.667h6.667v-1.333h8v1.333h6.667v2.667h-1.333v17.333c0 0.733-0.261 1.361-0.783 1.883s-1.15 0.783-1.883 0.783h-13.333zM22.666 8h-13.333v17.333h13.333v-17.333zM11.999 22.667h2.667v-12h-2.667v12zM17.333 22.667h2.667v-12h-2.667v12z"></path>
</symbol>
<symbol id="icon-docment" viewBox="0 0 32 32">
<path fill="#fff" style="fill: var(--color4, #fff)" d="M6.667 28c-0.733 0-1.361-0.261-1.883-0.783s-0.783-1.15-0.783-1.883v-18.667c0-0.733 0.261-1.361 0.783-1.883s1.15-0.783 1.883-0.783h18.667c0.733 0 1.361 0.261 1.883 0.783s0.783 1.15 0.783 1.883v18.667c0 0.733-0.261 1.361-0.783 1.883s-1.15 0.783-1.883 0.783h-18.667zM9.333 22.667h9.333v-2.667h-9.333v2.667zM9.333 17.333h13.333v-2.667h-13.333v2.667zM9.333 12h13.333v-2.667h-13.333v2.667z"></path>
</symbol>
<symbol id="icon-document-popup" viewBox="0 0 27 32">
<path fill="#e3e5e9" style="fill: var(--color5, #e3e5e9)" d="M3.051 32c-0.839 0-1.558-0.348-2.155-1.045s-0.896-1.533-0.896-2.511v-24.889c0-0.978 0.299-1.815 0.896-2.511s1.316-1.044 2.155-1.044h21.36c0.839 0 1.558 0.348 2.155 1.044s0.896 1.533 0.896 2.511v24.889c0 0.978-0.299 1.815-0.896 2.511s-1.316 1.045-2.155 1.045h-21.36zM6.103 24.172h10.68v-2.839h-10.68v2.839zM6.103 17.061h15.257v-2.839h-15.257v2.839zM6.103 9.95h15.257v-2.839h-15.257v2.839z"></path>
</symbol>
<symbol id="icon-edit" viewBox="0 0 32 32">
<path d="M6.667 25.333h1.9l13.033-13.033-1.9-1.9-13.033 13.033v1.9zM4 28v-5.667l17.6-17.567c0.267-0.244 0.561-0.433 0.883-0.567s0.661-0.2 1.017-0.2c0.356 0 0.7 0.067 1.033 0.2s0.622 0.333 0.867 0.6l1.833 1.867c0.267 0.244 0.461 0.533 0.583 0.867s0.183 0.667 0.183 1c0 0.356-0.061 0.694-0.183 1.017s-0.317 0.617-0.583 0.883l-17.567 17.567h-5.667zM20.633 11.367l-0.933-0.967 1.9 1.9-0.967-0.933z"></path>
</symbol>
<symbol id="icon-error" viewBox="0 0 32 32">
<path d="M16 22.667c0.378 0 0.694-0.128 0.95-0.383s0.383-0.572 0.383-0.95c0-0.378-0.128-0.694-0.383-0.95s-0.572-0.383-0.95-0.383-0.694 0.128-0.95 0.383c-0.256 0.256-0.383 0.572-0.383 0.95s0.128 0.694 0.383 0.95c0.255 0.256 0.572 0.383 0.95 0.383zM14.667 17.333h2.667v-8h-2.667v8zM16 29.333c-1.844 0-3.578-0.35-5.2-1.050s-3.033-1.65-4.233-2.85c-1.2-1.2-2.15-2.611-2.85-4.233s-1.050-3.356-1.050-5.2c0-1.844 0.35-3.578 1.050-5.2s1.65-3.033 2.85-4.233 2.611-2.15 4.233-2.85c1.622-0.7 3.356-1.050 5.2-1.050s3.578 0.35 5.2 1.050c1.622 0.7 3.033 1.65 4.233 2.85s2.15 2.611 2.85 4.233c0.7 1.622 1.050 3.356 1.050 5.2s-0.35 3.578-1.050 5.2c-0.7 1.622-1.65 3.033-2.85 4.233s-2.611 2.15-4.233 2.85c-1.622 0.7-3.356 1.050-5.2 1.050zM16 26.667c2.978 0 5.5-1.033 7.567-3.1s3.1-4.589 3.1-7.567-1.033-5.5-3.1-7.567c-2.067-2.067-4.589-3.1-7.567-3.1s-5.5 1.033-7.567 3.1c-2.067 2.067-3.1 4.589-3.1 7.567s1.033 5.5 3.1 7.567c2.067 2.067 4.589 3.1 7.567 3.1z"></path>
</symbol>
<symbol id="icon-grid_view" viewBox="0 0 32 32">
<path d="M4 14.667v-9.067c0-0.884 0.716-1.6 1.6-1.6h9.067v10.667h-10.667zM5.6 28c-0.884 0-1.6-0.716-1.6-1.6v-9.067h10.667v10.667h-9.067zM17.333 14.667v-10.667h9.067c0.884 0 1.6 0.716 1.6 1.6v9.067h-10.667zM17.333 28v-10.667h10.667v9.067c0 0.884-0.716 1.6-1.6 1.6h-9.067z"></path>
</symbol>
<symbol id="icon-inventory_2" viewBox="0 0 32 32">
<path  d="M6.666 29.333c-0.733 0-1.361-0.261-1.883-0.783s-0.783-1.15-0.783-1.883v-15.033c-0.4-0.244-0.722-0.561-0.967-0.95s-0.367-0.839-0.367-1.35v-4c0-0.733 0.261-1.361 0.783-1.883s1.15-0.783 1.883-0.783h21.333c0.733 0 1.361 0.261 1.883 0.783s0.783 1.15 0.783 1.883v4c0 0.511-0.122 0.961-0.367 1.35s-0.567 0.706-0.967 0.95v15.033c0 0.733-0.261 1.361-0.783 1.883s-1.15 0.783-1.883 0.783h-18.667zM5.332 9.333h21.333v-4h-21.333v4zM11.999 18.667h8v-2.667h-8v2.667z"></path>
</symbol>
<symbol id="icon-files-empty" viewBox="0 0 32 32">
<path d="M28.681 11.159c-0.694-0.947-1.662-2.053-2.724-3.116s-2.169-2.030-3.116-2.724c-1.612-1.182-2.393-1.319-2.841-1.319h-11.5c-1.379 0-2.5 1.122-2.5 2.5v23c0 1.378 1.121 2.5 2.5 2.5h19c1.378 0 2.5-1.122 2.5-2.5v-15.5c0-0.448-0.137-1.23-1.319-2.841zM24.543 9.457c0.959 0.959 1.712 1.825 2.268 2.543h-4.811v-4.811c0.718 0.556 1.584 1.309 2.543 2.268v0zM28 29.5c0 0.271-0.229 0.5-0.5 0.5h-19c-0.271 0-0.5-0.229-0.5-0.5v-23c0-0.271 0.229-0.5 0.5-0.5 0 0 11.499-0 11.5 0v7c0 0.552 0.448 1 1 1h7v15.5z"></path>
<path d="M18.841 1.319c-1.612-1.182-2.393-1.319-2.841-1.319h-11.5c-1.378 0-2.5 1.121-2.5 2.5v23c0 1.207 0.86 2.217 2 2.45v-25.45c0-0.271 0.229-0.5 0.5-0.5h15.215c-0.301-0.248-0.595-0.477-0.873-0.681z"></path>
</symbol>
<symbol id="icon-login" viewBox="0 0 32 32">
<path fill="#8e94a1" style="fill: var(--color1, #8e94a1)" d="M16 31v-3.333h11.667v-23.333h-11.667v-3.333h11.667c0.917 0 1.701 0.326 2.354 0.979s0.979 1.438 0.979 2.354v23.333c0 0.917-0.326 1.701-0.979 2.354s-1.437 0.979-2.354 0.979h-11.667zM12.667 24.333l-2.292-2.417 4.25-4.25h-13.625v-3.333h13.625l-4.25-4.25 2.292-2.417 8.333 8.333-8.333 8.333z"></path>
</symbol>
<symbol id="icon-next" viewBox="0 0 32 32">
<path d="M16 0c8.837 0 16 7.163 16 16s-7.163 16-16 16-16-7.163-16-16 7.163-16 16-16zM16 29c7.18 0 13-5.82 13-13s-5.82-13-13-13-13 5.82-13 13 5.82 13 13 13z"></path>
<path d="M18 16l-8-6v12z"></path>
<path d="M22 10h-4v12h4v-12z"></path>
</symbol>
<symbol id="icon-cloud-upload" viewBox="0 0 32 32">
<path d="M27.883 12.078c0.076-0.347 0.117-0.708 0.117-1.078 0-2.761-2.239-5-5-5-0.444 0-0.875 0.058-1.285 0.167-0.775-2.417-3.040-4.167-5.715-4.167-2.73 0-5.033 1.823-5.76 4.318-0.711-0.207-1.462-0.318-2.24-0.318-4.418 0-8 3.582-8 8s3.582 8 8 8h4v6h8v-6h7c2.761 0 5-2.239 5-5 0-2.46-1.777-4.505-4.117-4.922zM18 20v6h-4v-6h-5l7-7 7 7h-5z"></path>
</symbol>
<symbol id="icon-document" viewBox="0 0 26 26">
<path d="M5.41667 22.75C4.82083 22.75 4.31076 22.5378 3.88646 22.1135C3.46215 21.6892 3.25 21.1792 3.25 20.5833V5.41667C3.25 4.82083 3.46215 4.31076 3.88646 3.88646C4.31076 3.46215 4.82083 3.25 5.41667 3.25H20.5833C21.1792 3.25 21.6892 3.46215 22.1135 3.88646C22.5378 4.31076 22.75 4.82083 22.75 5.41667V20.5833C22.75 21.1792 22.5378 21.6892 22.1135 22.1135C21.6892 22.5378 21.1792 22.75 20.5833 22.75H5.41667ZM7.58333 18.4167H15.1667V16.25H7.58333V18.4167ZM7.58333 14.0833H18.4167V11.9167H7.58333V14.0833ZM7.58333 9.75H18.4167V7.58333H7.58333V9.75Z" fill="white"/>
</symbol>
<symbol id="icon-logout" viewBox="0 0 16 16">
<path d="M8 15.5V13.8333H13.8333V2.16667H8V0.5H13.8333C14.2917 0.5 14.684 0.663194 15.0104 0.989583C15.3368 1.31597 15.5 1.70833 15.5 2.16667V13.8333C15.5 14.2917 15.3368 14.684 15.0104 15.0104C14.684 15.3368 14.2917 15.5 13.8333 15.5H8ZM6.33333 12.1667L5.1875 10.9583L7.3125 8.83333H0.5V7.16667H7.3125L5.1875 5.04167L6.33333 3.83333L10.5 8L6.33333 12.1667Z"></path>
</symbol>
<!--  -->
//fix
<symbol id="fi-rs-sign-out-alt" width="18" height="19" viewBox="0 0 18 19">
<g clip-path="url(#clip0_2_7221)">
<path d="M17.0704 8.17344L13.3579 4.46094L12.2982 5.52444L15.5232 8.74944H4.96094V10.2494H15.5232L12.2982 13.4744L13.3587 14.5349L17.0712 10.8224C17.2454 10.6483 17.3835 10.4416 17.4778 10.2141C17.572 9.98657 17.6205 9.74271 17.6205 9.49644C17.6205 9.25017 17.572 9.00631 17.4778 8.77879C17.3835 8.55127 17.2454 8.34455 17.0712 8.17044L17.0704 8.17344Z" />
<path d="M7.857 16.25C7.857 16.4489 7.77798 16.6397 7.63733 16.7803C7.49668 16.921 7.30591 17 7.107 17H2.25C2.05109 17 1.86032 16.921 1.71967 16.7803C1.57902 16.6397 1.5 16.4489 1.5 16.25V2.75C1.5 2.55109 1.57902 2.36032 1.71967 2.21967C1.86032 2.07902 2.05109 2 2.25 2H7.107C7.30591 2 7.49668 2.07902 7.63733 2.21967C7.77798 2.36032 7.857 2.55109 7.857 2.75V6.74975H9.357V2.75C9.357 2.15326 9.11995 1.58097 8.69799 1.15901C8.27603 0.737053 7.70374 0.5 7.107 0.5L2.25 0.5C1.65326 0.5 1.08097 0.737053 0.65901 1.15901C0.237053 1.58097 0 2.15326 0 2.75L0 16.25C0 16.8467 0.237053 17.419 0.65901 17.841C1.08097 18.2629 1.65326 18.5 2.25 18.5H7.107C7.70374 18.5 8.27603 18.2629 8.69799 17.841C9.11995 17.419 9.357 16.8467 9.357 16.25V12.2502H7.857V16.25Z" />
</g>
<defs>
<clipPath>
<rect width="18" height="18"  transform="translate(0 0.5)"/>
</clipPath>
</defs>
</symbol>

<symbol id="comment-info" width="18" height="19" viewBox="0 0 18 19" >
<g clip-path="url(#clip0_2_7202)">
<path d="M10.1261 5.37497C10.1261 5.67334 10.0076 5.95949 9.79664 6.17047C9.58566 6.38145 9.29951 6.49997 9.00114 6.49997C8.70277 6.49997 8.41662 6.38145 8.20564 6.17047C7.99467 5.95949 7.87614 5.67334 7.87614 5.37497C7.87614 5.0766 7.99467 4.79045 8.20564 4.57948C8.41662 4.3685 8.70277 4.24997 9.00114 4.24997C9.29951 4.24997 9.58566 4.3685 9.79664 4.57948C10.0076 4.79045 10.1261 5.0766 10.1261 5.37497ZM18.0011 14.75V9.75497C18.0291 7.44306 17.1815 5.20614 15.6284 3.49335C14.0753 1.78056 11.9318 0.718699 9.62814 0.520971C8.34238 0.431014 7.05229 0.618276 5.84517 1.07009C4.63804 1.5219 3.54204 2.22771 2.63133 3.13978C1.72061 4.05185 1.01641 5.1489 0.566395 6.35669C0.116375 7.56448 -0.0689742 8.85484 0.0228886 10.1405C0.354389 14.906 4.56264 18.5 9.81339 18.5H14.2511C15.2453 18.4988 16.1985 18.1033 16.9015 17.4003C17.6045 16.6973 18 15.7442 18.0011 14.75ZM9.52614 2.01797C11.451 2.18825 13.2401 3.08065 14.534 4.51589C15.8278 5.95112 16.5306 7.82284 16.5011 9.75497V14.75C16.5011 15.3467 16.2641 15.919 15.8421 16.341C15.4202 16.7629 14.8479 17 14.2511 17H9.81339C5.28789 17 1.80114 14.075 1.51989 10.037C1.44605 9.00841 1.58512 7.97567 1.9284 7.00327C2.27168 6.03088 2.8118 5.13972 3.51502 4.38547C4.21823 3.63123 5.06943 3.03011 6.01544 2.61966C6.96145 2.20921 7.98193 1.99825 9.01314 1.99997C9.18339 1.99997 9.35514 2.00672 9.52614 2.01797ZM10.5011 14V9.49997C10.5011 9.10215 10.3431 8.72062 10.0618 8.43931C9.7805 8.15801 9.39896 7.99997 9.00114 7.99997H8.25114C8.05223 7.99997 7.86146 8.07899 7.72081 8.21964C7.58016 8.36029 7.50114 8.55106 7.50114 8.74997C7.50114 8.94888 7.58016 9.13965 7.72081 9.2803C7.86146 9.42095 8.05223 9.49997 8.25114 9.49997H9.00114V14C9.00114 14.1989 9.08016 14.3897 9.22081 14.5303C9.36146 14.671 9.55223 14.75 9.75114 14.75C9.95005 14.75 10.1408 14.671 10.2815 14.5303C10.4221 14.3897 10.5011 14.1989 10.5011 14Z" />
</g>
<defs>
<clipPath>
<rect width="18" height="18"  transform="translate(0 0.5)"/>
</clipPath>
</defs>
</symbol>

<symbol id="log-out" width="18" height="19" viewBox="0 0 18 19" >
<g clip-path="url(#clip0_2_7221)">
<path d="M17.0704 8.17344L13.3579 4.46094L12.2982 5.52444L15.5232 8.74944H4.96094V10.2494H15.5232L12.2982 13.4744L13.3587 14.5349L17.0712 10.8224C17.2454 10.6483 17.3835 10.4416 17.4778 10.2141C17.572 9.98657 17.6205 9.74271 17.6205 9.49644C17.6205 9.25017 17.572 9.00631 17.4778 8.77879C17.3835 8.55127 17.2454 8.34455 17.0712 8.17044L17.0704 8.17344Z" />
<path d="M7.857 16.25C7.857 16.4489 7.77798 16.6397 7.63733 16.7803C7.49668 16.921 7.30591 17 7.107 17H2.25C2.05109 17 1.86032 16.921 1.71967 16.7803C1.57902 16.6397 1.5 16.4489 1.5 16.25V2.75C1.5 2.55109 1.57902 2.36032 1.71967 2.21967C1.86032 2.07902 2.05109 2 2.25 2H7.107C7.30591 2 7.49668 2.07902 7.63733 2.21967C7.77798 2.36032 7.857 2.55109 7.857 2.75V6.74975H9.357V2.75C9.357 2.15326 9.11995 1.58097 8.69799 1.15901C8.27603 0.737053 7.70374 0.5 7.107 0.5L2.25 0.5C1.65326 0.5 1.08097 0.737053 0.65901 1.15901C0.237053 1.58097 0 2.15326 0 2.75L0 16.25C0 16.8467 0.237053 17.419 0.65901 17.841C1.08097 18.2629 1.65326 18.5 2.25 18.5H7.107C7.70374 18.5 8.27603 18.2629 8.69799 17.841C9.11995 17.419 9.357 16.8467 9.357 16.25V12.2502H7.857V16.25Z" />
</g>
<defs>
<clipPath>
<rect width="18" height="18"  transform="translate(0 0.5)"/>
</clipPath>
</defs>
</symbol>

<symbol id="arrow-bootom" width="19" height="19" viewBox="0 0 19 19" >
<mask style="mask-type:alpha" maskUnits="userSpaceOnUse" x="0" y="0" width="19" height="19">
<rect width="19" height="19" transform="matrix(-1 0 0 1 19 0)" />
</mask>
<g mask="url(#mask0_2_7226)">
<path d="M9.56109 12.7093L4.12109 7.26933L5.39043 6L9.56109 10.1707L13.7318 6L15.0011 7.26933L9.56109 12.7093Z" />
</g>
</symbol>

<symbol id="arrow-left" width="19" height="19" viewBox="0 0 19 19" >
<mask style="mask-type:alpha" maskUnits="userSpaceOnUse" x="0" y="0" width="19" height="20">
<rect x="19" y="0.000976562" width="19" height="19" transform="rotate(90 19 0.000976562)"/>
</mask>
<g mask="url(#mask0_2_7216)">
<path d="M6.29067 9.44098L11.7307 4.00098L13 5.27031L8.82933 9.44098L13 13.6116L11.7307 14.881L6.29067 9.44098Z"  fill-opacity="0.6"/>
</g>
</symbol>

<symbol id="fi-rr-settings" width="18" height="19" viewBox="0 0 18 19">
<g clip-path="url(#clip0_2_7199)">
<path id="Vector" d="M9 6.50049C8.40666 6.50049 7.82664 6.67644 7.33329 7.00608C6.83994 7.33572 6.45543 7.80426 6.22836 8.35244C6.0013 8.90062 5.94189 9.50382 6.05765 10.0858C6.1734 10.6677 6.45912 11.2023 6.87868 11.6218C7.29824 12.0414 7.83279 12.3271 8.41473 12.4428C8.99667 12.5586 9.59987 12.4992 10.1481 12.2721C10.6962 12.0451 11.1648 11.6605 11.4944 11.1672C11.8241 10.6739 12 10.0938 12 9.50049C12 8.70484 11.6839 7.94178 11.1213 7.37917C10.5587 6.81656 9.79565 6.50049 9 6.50049ZM9 11.0005C8.70333 11.0005 8.41332 10.9125 8.16665 10.7477C7.91997 10.5829 7.72771 10.3486 7.61418 10.0745C7.50065 9.80042 7.47095 9.49882 7.52882 9.20785C7.5867 8.91688 7.72956 8.64961 7.93934 8.43983C8.14912 8.23005 8.41639 8.08719 8.70737 8.02931C8.99834 7.97143 9.29994 8.00114 9.57403 8.11467C9.84812 8.2282 10.0824 8.42046 10.2472 8.66713C10.412 8.91381 10.5 9.20382 10.5 9.50049C10.5 9.89831 10.342 10.2798 10.0607 10.5611C9.77936 10.8425 9.39783 11.0005 9 11.0005Z" />
<path id="Vector_2" d="M15.9704 10.925L15.6374 10.733C15.7873 9.91733 15.7873 9.08117 15.6374 8.2655L15.9704 8.0735C16.2264 7.92576 16.4509 7.72903 16.6309 7.49455C16.811 7.26006 16.9431 6.9924 17.0197 6.70686C17.0963 6.42132 17.1159 6.12349 17.0774 5.83037C17.0389 5.53725 16.9431 5.25458 16.7954 4.9985C16.6476 4.74242 16.4509 4.51795 16.2164 4.3379C15.9819 4.15785 15.7143 4.02575 15.4287 3.94915C15.1432 3.87254 14.8453 3.85292 14.5522 3.89142C14.2591 3.92991 13.9764 4.02576 13.7204 4.1735L13.3866 4.36625C12.7563 3.82769 12.0318 3.41019 11.2498 3.13475V2.75C11.2498 2.15326 11.0128 1.58097 10.5908 1.15901C10.1689 0.737053 9.59659 0.5 8.99985 0.5C8.40311 0.5 7.83082 0.737053 7.40886 1.15901C6.9869 1.58097 6.74985 2.15326 6.74985 2.75V3.13475C5.96789 3.41118 5.24374 3.8297 4.61385 4.36925L4.2786 4.175C3.76143 3.87663 3.14691 3.79593 2.57024 3.95065C1.99356 4.10536 1.50197 4.48283 1.2036 5C0.905231 5.51717 0.824528 6.13169 0.979246 6.70836C1.13396 7.28504 1.51143 7.77663 2.0286 8.075L2.3616 8.267C2.21168 9.08267 2.21168 9.91883 2.3616 10.7345L2.0286 10.9265C1.51143 11.2249 1.13396 11.7165 0.979246 12.2931C0.824528 12.8698 0.905231 13.4843 1.2036 14.0015C1.50197 14.5187 1.99356 14.8961 2.57024 15.0509C3.14691 15.2056 3.76143 15.1249 4.2786 14.8265L4.61235 14.6337C5.24292 15.1724 5.96758 15.5899 6.74985 15.8652V16.25C6.74985 16.8467 6.9869 17.419 7.40886 17.841C7.83082 18.2629 8.40311 18.5 8.99985 18.5C9.59659 18.5 10.1689 18.2629 10.5908 17.841C11.0128 17.419 11.2498 16.8467 11.2498 16.25V15.8652C12.0318 15.5888 12.756 15.1703 13.3858 14.6307L13.7211 14.8243C14.2383 15.1226 14.8528 15.2033 15.4295 15.0486C16.0061 14.8939 16.4977 14.5164 16.7961 13.9993C17.0945 13.4821 17.1752 12.8676 17.0205 12.2909C16.8657 11.7142 16.4883 11.2226 15.9711 10.9242L15.9704 10.925ZM14.0594 8.093C14.3133 9.0133 14.3133 9.9852 14.0594 10.9055C14.015 11.0657 14.0251 11.2361 14.0881 11.3899C14.1511 11.5437 14.2634 11.6722 14.4073 11.7552L15.2204 12.2248C15.3927 12.3242 15.5185 12.4881 15.57 12.6803C15.6216 12.8725 15.5947 13.0773 15.4952 13.2496C15.3958 13.422 15.2319 13.5478 15.0397 13.5993C14.8475 13.6509 14.6427 13.624 14.4704 13.5245L13.6558 13.0535C13.5118 12.9701 13.344 12.9369 13.179 12.9593C13.014 12.9817 12.8612 13.0584 12.7446 13.1772C12.077 13.8587 11.236 14.345 10.3123 14.5835C10.1511 14.625 10.0083 14.7189 9.90629 14.8504C9.80432 14.982 9.74902 15.1438 9.7491 15.3102V16.25C9.7491 16.4489 9.67008 16.6397 9.52943 16.7803C9.38878 16.921 9.19801 17 8.9991 17C8.80019 17 8.60942 16.921 8.46877 16.7803C8.32812 16.6397 8.2491 16.4489 8.2491 16.25V15.311C8.24918 15.1445 8.19388 14.9828 8.0919 14.8512C7.98993 14.7196 7.84707 14.6257 7.68585 14.5842C6.76211 14.3448 5.92135 13.8575 5.25435 13.175C5.13774 13.0561 4.9849 12.9795 4.81992 12.9571C4.65493 12.9347 4.48718 12.9678 4.3431 13.0513L3.5301 13.5215C3.44477 13.5715 3.35039 13.6042 3.25239 13.6176C3.15439 13.631 3.05471 13.6249 2.95909 13.5996C2.86346 13.5743 2.77379 13.5303 2.69521 13.4703C2.61664 13.4102 2.55073 13.3352 2.50128 13.2495C2.45182 13.1638 2.4198 13.0692 2.40705 12.9712C2.3943 12.8731 2.40108 12.7734 2.42699 12.678C2.45291 12.5825 2.49745 12.4931 2.55805 12.415C2.61865 12.3368 2.69411 12.2714 2.7801 12.2225L3.5931 11.753C3.73706 11.6699 3.84936 11.5414 3.91234 11.3876C3.97533 11.2338 3.98545 11.0634 3.9411 10.9032C3.68712 9.98295 3.68712 9.01105 3.9411 8.09075C3.98465 7.93091 3.97405 7.76115 3.91096 7.60797C3.84787 7.45479 3.73584 7.3268 3.59235 7.244L2.77935 6.7745C2.60699 6.67504 2.4812 6.51119 2.42965 6.31899C2.3781 6.12679 2.40502 5.92198 2.50447 5.74962C2.60393 5.57727 2.76778 5.45148 2.95998 5.39993C3.15218 5.34838 3.35699 5.37529 3.52935 5.47475L4.34385 5.94575C4.48753 6.02939 4.65493 6.06291 4.81974 6.04105C4.98455 6.01919 5.13743 5.9432 5.25435 5.825C5.92191 5.14351 6.76292 4.65727 7.6866 4.41875C7.84832 4.37717 7.99155 4.28281 8.09358 4.15063C8.1956 4.01844 8.2506 3.85598 8.24985 3.689V2.75C8.24985 2.55109 8.32887 2.36032 8.46952 2.21967C8.61017 2.07902 8.80094 2 8.99985 2C9.19876 2 9.38953 2.07902 9.53018 2.21967C9.67083 2.36032 9.74985 2.55109 9.74985 2.75V3.689C9.74977 3.85547 9.80507 4.01723 9.90705 4.14881C10.009 4.28039 10.1519 4.3743 10.3131 4.41575C11.2371 4.65511 12.0781 5.14241 12.7453 5.825C12.862 5.94385 13.0148 6.02052 13.1798 6.04292C13.3448 6.06533 13.5125 6.0322 13.6566 5.94875L14.4696 5.4785C14.5549 5.42848 14.6493 5.39583 14.7473 5.38243C14.8453 5.36903 14.945 5.37514 15.0406 5.40043C15.1362 5.42571 15.2259 5.46965 15.3045 5.52974C15.3831 5.58982 15.449 5.66485 15.4984 5.7505C15.5479 5.83616 15.5799 5.93076 15.5927 6.02884C15.6054 6.12693 15.5986 6.22656 15.5727 6.32202C15.5468 6.41747 15.5023 6.50686 15.4417 6.58503C15.381 6.6632 15.3056 6.72861 15.2196 6.7775L14.4066 7.247C14.2634 7.33003 14.1517 7.45811 14.0889 7.61127C14.026 7.76443 14.0157 7.93407 14.0594 8.09375V8.093Z" />
</g>
<defs>
<clipPath id="clip0_2_7199">
<rect width="18" height="18"  transform="translate(0 0.5)"/>
</clipPath>
</defs>
</symbol>

<symbol id="fi-rr-bank" width="18" height="19" viewBox="0 0 18 19" >
<g clip-path="url(#clip0_2_7195)">
<path id="Vector" d="M17.2516 17.7502C17.2516 17.9491 17.1726 18.1398 17.0319 18.2805C16.8913 18.4211 16.7005 18.5002 16.5016 18.5002H1.50121C1.3023 18.5002 1.11153 18.4211 0.970879 18.2805C0.830226 18.1398 0.751209 17.9491 0.751209 17.7502C0.751209 17.5513 0.830226 17.3605 0.970879 17.2198C1.11153 17.0792 1.3023 17.0002 1.50121 17.0002H16.5016C16.7005 17.0002 16.8913 17.0792 17.0319 17.2198C17.1726 17.3605 17.2516 17.5513 17.2516 17.7502ZM0.219459 6.91416C0.0578504 6.61441 -0.0170204 6.27554 0.00324897 5.9356C0.0235183 5.59566 0.138126 5.26809 0.334209 4.98966C0.654652 4.5195 1.08379 4.13358 1.58521 3.86466L7.21096 0.936664C7.76391 0.649137 8.37797 0.499023 9.00121 0.499023C9.62444 0.499023 10.2385 0.649137 10.7915 0.936664L16.4165 3.86691C16.9179 4.13583 17.347 4.52175 17.6675 4.99191C17.8635 5.27034 17.9781 5.59791 17.9984 5.93785C18.0187 6.27779 17.9438 6.61666 17.7822 6.91641C17.6082 7.24554 17.3473 7.52062 17.0278 7.71171C16.7083 7.9028 16.3425 8.00257 15.9702 8.00016H15.7512V14.0002H16.5012C16.7001 14.0002 16.8909 14.0792 17.0315 14.2198C17.1722 14.3605 17.2512 14.5513 17.2512 14.7502C17.2512 14.9491 17.1722 15.1398 17.0315 15.2805C16.8909 15.4211 16.7001 15.5002 16.5012 15.5002H1.50121C1.3023 15.5002 1.11153 15.4211 0.970879 15.2805C0.830226 15.1398 0.751209 14.9491 0.751209 14.7502C0.751209 14.5513 0.830226 14.3605 0.970879 14.2198C1.11153 14.0792 1.3023 14.0002 1.50121 14.0002H2.25121V8.00016H2.03221C1.65958 8.00249 1.29346 7.90245 0.9738 7.71094C0.654137 7.51943 0.393203 7.24382 0.219459 6.91416ZM3.75121 14.0002H6.00121V8.00016H3.75121V14.0002ZM7.50121 8.00016V14.0002H10.5012V8.00016H7.50121ZM14.2512 8.00016H12.0012V14.0002H14.2512V8.00016ZM1.54846 6.21891C1.59552 6.30567 1.66554 6.37781 1.75087 6.42742C1.8362 6.47703 1.93353 6.50219 2.03221 6.50016H15.9702C16.0689 6.50219 16.1662 6.47703 16.2515 6.42742C16.3369 6.37781 16.4069 6.30567 16.454 6.21891C16.4882 6.16159 16.5048 6.09541 16.5016 6.0287C16.4984 5.96198 16.4756 5.8977 16.436 5.84391C16.2542 5.57385 16.0101 5.35157 15.7242 5.19591L10.0992 2.26566C9.76021 2.08973 9.38389 1.99789 9.00196 1.99789C8.62003 1.99789 8.2437 2.08973 7.90471 2.26566L2.27971 5.19591C1.99395 5.35207 1.74986 5.57456 1.56796 5.84466C1.52828 5.89822 1.50526 5.96229 1.50179 6.02885C1.49832 6.09542 1.51456 6.16153 1.54846 6.21891Z" />
</g>
<defs>
<clipPath id="clip0_2_7195">
<rect width="18" height="18"  transform="translate(0 0.5)"/>
</clipPath>
</defs>
</symbol>

<symbol id="fi-rr-briefcase" width="18" height="19" viewBox="0 0 18 19" >
<g clip-path="url(#clip0_2_7189)">
<path id="Vector" d="M14.25 3.5H13.425C13.2509 2.65356 12.7904 1.89301 12.1209 1.34654C11.4515 0.800068 10.6142 0.501091 9.75 0.5L8.25 0.5C7.38585 0.501091 6.54849 0.800068 5.87906 1.34654C5.20964 1.89301 4.74907 2.65356 4.575 3.5H3.75C2.7558 3.50119 1.80267 3.89666 1.09966 4.59966C0.396661 5.30267 0.00119089 6.2558 0 7.25L0 14.75C0.00119089 15.7442 0.396661 16.6973 1.09966 17.4003C1.80267 18.1033 2.7558 18.4988 3.75 18.5H14.25C15.2442 18.4988 16.1973 18.1033 16.9003 17.4003C17.6033 16.6973 17.9988 15.7442 18 14.75V7.25C17.9988 6.2558 17.6033 5.30267 16.9003 4.59966C16.1973 3.89666 15.2442 3.50119 14.25 3.5ZM8.25 2H9.75C10.2137 2.00192 10.6655 2.14706 11.0435 2.41557C11.4216 2.68407 11.7074 3.06282 11.862 3.5H6.138C6.29256 3.06282 6.57842 2.68407 6.95648 2.41557C7.33453 2.14706 7.7863 2.00192 8.25 2ZM3.75 5H14.25C14.8467 5 15.419 5.23705 15.841 5.65901C16.2629 6.08097 16.5 6.65326 16.5 7.25V9.5H1.5V7.25C1.5 6.65326 1.73705 6.08097 2.15901 5.65901C2.58097 5.23705 3.15326 5 3.75 5ZM14.25 17H3.75C3.15326 17 2.58097 16.7629 2.15901 16.341C1.73705 15.919 1.5 15.3467 1.5 14.75V11H8.25V11.75C8.25 11.9489 8.32902 12.1397 8.46967 12.2803C8.61032 12.421 8.80109 12.5 9 12.5C9.19891 12.5 9.38968 12.421 9.53033 12.2803C9.67098 12.1397 9.75 11.9489 9.75 11.75V11H16.5V14.75C16.5 15.3467 16.2629 15.919 15.841 16.341C15.419 16.7629 14.8467 17 14.25 17Z" />
</g>
<defs>
<clipPath id="clip0_2_7189">
<rect width="18" height="18" transform="translate(0 0.5)"/>
</clipPath>
</defs>
</symbol>

<symbol id="fi-rr-credit-card" width="18" height="19" viewBox="0 0 18 19" >
<g clip-path="url(#clip0_2_7186)">
<path id="Vector" d="M4.125 13.25C4.74632 13.25 5.25 12.7463 5.25 12.125C5.25 11.5037 4.74632 11 4.125 11C3.50368 11 3 11.5037 3 12.125C3 12.7463 3.50368 13.25 4.125 13.25Z" />
<path id="Vector_2" d="M14.25 2.75H3.75C2.7558 2.75119 1.80267 3.14666 1.09966 3.84966C0.396661 4.55267 0.00119089 5.5058 0 6.5L0 12.5C0.00119089 13.4942 0.396661 14.4473 1.09966 15.1503C1.80267 15.8533 2.7558 16.2488 3.75 16.25H14.25C15.2442 16.2488 16.1973 15.8533 16.9003 15.1503C17.6033 14.4473 17.9988 13.4942 18 12.5V6.5C17.9988 5.5058 17.6033 4.55267 16.9003 3.84966C16.1973 3.14666 15.2442 2.75119 14.25 2.75ZM3.75 4.25H14.25C14.8467 4.25 15.419 4.48705 15.841 4.90901C16.2629 5.33097 16.5 5.90326 16.5 6.5H1.5C1.5 5.90326 1.73705 5.33097 2.15901 4.90901C2.58097 4.48705 3.15326 4.25 3.75 4.25ZM14.25 14.75H3.75C3.15326 14.75 2.58097 14.5129 2.15901 14.091C1.73705 13.669 1.5 13.0967 1.5 12.5V8H16.5V12.5C16.5 13.0967 16.2629 13.669 15.841 14.091C15.419 14.5129 14.8467 14.75 14.25 14.75Z" />
</g>
<defs>
<clipPath id="clip0_2_7186">
<rect width="18" height="18" transform="translate(0 0.5)"/>
</clipPath>
</defs>
</symbol>

<symbol id="fi-rr-document" width="18" height="19" viewBox="0 0 18 19" >
<g clip-path="url(#clip0_2_7180)">
<path id="Vector" d="M12.75 11C12.75 11.1989 12.671 11.3897 12.5303 11.5303C12.3897 11.671 12.1989 11.75 12 11.75H6C5.80109 11.75 5.61032 11.671 5.46967 11.5303C5.32902 11.3897 5.25 11.1989 5.25 11C5.25 10.8011 5.32902 10.6103 5.46967 10.4697C5.61032 10.329 5.80109 10.25 6 10.25H12C12.1989 10.25 12.3897 10.329 12.5303 10.4697C12.671 10.6103 12.75 10.8011 12.75 11ZM9.75 13.25H6C5.80109 13.25 5.61032 13.329 5.46967 13.4697C5.32902 13.6103 5.25 13.8011 5.25 14C5.25 14.1989 5.32902 14.3897 5.46967 14.5303C5.61032 14.671 5.80109 14.75 6 14.75H9.75C9.94891 14.75 10.1397 14.671 10.2803 14.5303C10.421 14.3897 10.5 14.1989 10.5 14C10.5 13.8011 10.421 13.6103 10.2803 13.4697C10.1397 13.329 9.94891 13.25 9.75 13.25ZM16.5 8.36377V14.75C16.4988 15.7442 16.1033 16.6973 15.4003 17.4004C14.6973 18.1034 13.7442 18.4988 12.75 18.5H5.25C4.2558 18.4988 3.30267 18.1034 2.59966 17.4004C1.89666 16.6973 1.50119 15.7442 1.5 14.75V4.25002C1.50119 3.25582 1.89666 2.30269 2.59966 1.59968C3.30267 0.896679 4.2558 0.501208 5.25 0.500017H8.63625C9.32596 0.498242 10.0092 0.633208 10.6464 0.897112C11.2836 1.16102 11.8622 1.54862 12.3488 2.03752L14.9618 4.65202C15.4509 5.1382 15.8388 5.71661 16.1028 6.35375C16.3669 6.99089 16.5019 7.67408 16.5 8.36377ZM11.2882 3.09802C11.0522 2.86939 10.7872 2.67271 10.5 2.51302V5.75002C10.5 5.94893 10.579 6.13969 10.7197 6.28035C10.8603 6.421 11.0511 6.50002 11.25 6.50002H14.487C14.3272 6.21291 14.1303 5.94813 13.9012 5.71252L11.2882 3.09802ZM15 8.36377C15 8.24002 14.976 8.12152 14.9647 8.00002H11.25C10.6533 8.00002 10.081 7.76296 9.65901 7.34101C9.23705 6.91905 9 6.34675 9 5.75002V2.03527C8.8785 2.02402 8.75925 2.00002 8.63625 2.00002H5.25C4.65326 2.00002 4.08097 2.23707 3.65901 2.65903C3.23705 3.08098 3 3.65328 3 4.25002V14.75C3 15.3468 3.23705 15.9191 3.65901 16.341C4.08097 16.763 4.65326 17 5.25 17H12.75C13.3467 17 13.919 16.763 14.341 16.341C14.7629 15.9191 15 15.3468 15 14.75V8.36377Z" />
</g>
<defs>
<clipPath id="clip0_2_7180">
<rect width="18" height="18" transform="translate(0 0.5)"/>
</clipPath>
</defs>
</symbol>

<symbol id="fi-rr-apps" width="18" height="19" viewBox="0 0 18 19" >
<g clip-path="url(#clip0_2_7176)">
<path id="Vector" d="M5.25 0.5H3C2.20435 0.5 1.44129 0.816071 0.87868 1.37868C0.316071 1.94129 0 2.70435 0 3.5L0 5.75C0 6.54565 0.316071 7.30871 0.87868 7.87132C1.44129 8.43393 2.20435 8.75 3 8.75H5.25C6.04565 8.75 6.80871 8.43393 7.37132 7.87132C7.93393 7.30871 8.25 6.54565 8.25 5.75V3.5C8.25 2.70435 7.93393 1.94129 7.37132 1.37868C6.80871 0.816071 6.04565 0.5 5.25 0.5V0.5ZM6.75 5.75C6.75 6.14782 6.59196 6.52936 6.31066 6.81066C6.02936 7.09196 5.64782 7.25 5.25 7.25H3C2.60218 7.25 2.22064 7.09196 1.93934 6.81066C1.65804 6.52936 1.5 6.14782 1.5 5.75V3.5C1.5 3.10218 1.65804 2.72064 1.93934 2.43934C2.22064 2.15804 2.60218 2 3 2H5.25C5.64782 2 6.02936 2.15804 6.31066 2.43934C6.59196 2.72064 6.75 3.10218 6.75 3.5V5.75Z" />
<path id="Vector_2" d="M15 0.5H12.75C11.9543 0.5 11.1913 0.816071 10.6287 1.37868C10.0661 1.94129 9.75 2.70435 9.75 3.5V5.75C9.75 6.54565 10.0661 7.30872 10.6287 7.87133C11.1913 8.43394 11.9543 8.75001 12.75 8.75001H15C15.7956 8.75001 16.5587 8.43394 17.1213 7.87133C17.6839 7.30872 18 6.54565 18 5.75V3.5C18 2.70435 17.6839 1.94129 17.1213 1.37868C16.5587 0.816071 15.7956 0.5 15 0.5V0.5ZM16.5 5.75C16.5 6.14783 16.342 6.52936 16.0607 6.81066C15.7793 7.09197 15.3978 7.25 15 7.25H12.75C12.3522 7.25 11.9706 7.09197 11.6893 6.81066C11.408 6.52936 11.25 6.14783 11.25 5.75V3.5C11.25 3.10218 11.408 2.72065 11.6893 2.43934C11.9706 2.15804 12.3522 2 12.75 2H15C15.3978 2 15.7793 2.15804 16.0607 2.43934C16.342 2.72065 16.5 3.10218 16.5 3.5V5.75Z" />
<path id="Vector_3" d="M5.25 10.25H3C2.20435 10.25 1.44129 10.5661 0.87868 11.1287C0.316071 11.6913 0 12.4544 0 13.25L0 15.5C0 16.2957 0.316071 17.0587 0.87868 17.6213C1.44129 18.1839 2.20435 18.5 3 18.5H5.25C6.04565 18.5 6.80871 18.1839 7.37132 17.6213C7.93393 17.0587 8.25 16.2957 8.25 15.5V13.25C8.25 12.4544 7.93393 11.6913 7.37132 11.1287C6.80871 10.5661 6.04565 10.25 5.25 10.25ZM6.75 15.5C6.75 15.8978 6.59196 16.2794 6.31066 16.5607C6.02936 16.842 5.64782 17 5.25 17H3C2.60218 17 2.22064 16.842 1.93934 16.5607C1.65804 16.2794 1.5 15.8978 1.5 15.5V13.25C1.5 12.8522 1.65804 12.4706 1.93934 12.1893C2.22064 11.908 2.60218 11.75 3 11.75H5.25C5.64782 11.75 6.02936 11.908 6.31066 12.1893C6.59196 12.4706 6.75 12.8522 6.75 13.25V15.5Z" />
<path id="Vector_4" d="M15 10.25H12.75C11.9543 10.25 11.1913 10.5661 10.6287 11.1287C10.0661 11.6913 9.75 12.4544 9.75 13.25V15.5C9.75 16.2957 10.0661 17.0587 10.6287 17.6213C11.1913 18.1839 11.9543 18.5 12.75 18.5H15C15.7956 18.5 16.5587 18.1839 17.1213 17.6213C17.6839 17.0587 18 16.2957 18 15.5V13.25C18 12.4544 17.6839 11.6913 17.1213 11.1287C16.5587 10.5661 15.7956 10.25 15 10.25ZM16.5 15.5C16.5 15.8978 16.342 16.2794 16.0607 16.5607C15.7793 16.842 15.3978 17 15 17H12.75C12.3522 17 11.9706 16.842 11.6893 16.5607C11.408 16.2794 11.25 15.8978 11.25 15.5V13.25C11.25 12.8522 11.408 12.4706 11.6893 12.1893C11.9706 11.908 12.3522 11.75 12.75 11.75H15C15.3978 11.75 15.7793 11.908 16.0607 12.1893C16.342 12.4706 16.5 12.8522 16.5 13.25V15.5Z" />
</g>
<defs>
<clipPath id="clip0_2_7176">
<rect width="18" height="18"  transform="translate(0 0.5)"/>
</clipPath>
</defs>
</symbol>


<!--
    
-->

<symbol id="fi-rs-sign-out-alt" width="18" height="19" viewBox="0 0 18 19">
<g clip-path="url(#clip0_2_7221)">
<path d="M17.0704 8.17344L13.3579 4.46094L12.2982 5.52444L15.5232 8.74944H4.96094V10.2494H15.5232L12.2982 13.4744L13.3587 14.5349L17.0712 10.8224C17.2454 10.6483 17.3835 10.4416 17.4778 10.2141C17.572 9.98657 17.6205 9.74271 17.6205 9.49644C17.6205 9.25017 17.572 9.00631 17.4778 8.77879C17.3835 8.55127 17.2454 8.34455 17.0712 8.17044L17.0704 8.17344Z" />
<path d="M7.857 16.25C7.857 16.4489 7.77798 16.6397 7.63733 16.7803C7.49668 16.921 7.30591 17 7.107 17H2.25C2.05109 17 1.86032 16.921 1.71967 16.7803C1.57902 16.6397 1.5 16.4489 1.5 16.25V2.75C1.5 2.55109 1.57902 2.36032 1.71967 2.21967C1.86032 2.07902 2.05109 2 2.25 2H7.107C7.30591 2 7.49668 2.07902 7.63733 2.21967C7.77798 2.36032 7.857 2.55109 7.857 2.75V6.74975H9.357V2.75C9.357 2.15326 9.11995 1.58097 8.69799 1.15901C8.27603 0.737053 7.70374 0.5 7.107 0.5L2.25 0.5C1.65326 0.5 1.08097 0.737053 0.65901 1.15901C0.237053 1.58097 0 2.15326 0 2.75L0 16.25C0 16.8467 0.237053 17.419 0.65901 17.841C1.08097 18.2629 1.65326 18.5 2.25 18.5H7.107C7.70374 18.5 8.27603 18.2629 8.69799 17.841C9.11995 17.419 9.357 16.8467 9.357 16.25V12.2502H7.857V16.25Z" />
</g>
<defs>
<clipPath>
<rect width="18" height="18"  transform="translate(0 0.5)"/>
</clipPath>
</defs>
</symbol>

<symbol id="comment-info" width="18" height="19" viewBox="0 0 18 19" >
<g clip-path="url(#clip0_2_7202)">
<path d="M10.1261 5.37497C10.1261 5.67334 10.0076 5.95949 9.79664 6.17047C9.58566 6.38145 9.29951 6.49997 9.00114 6.49997C8.70277 6.49997 8.41662 6.38145 8.20564 6.17047C7.99467 5.95949 7.87614 5.67334 7.87614 5.37497C7.87614 5.0766 7.99467 4.79045 8.20564 4.57948C8.41662 4.3685 8.70277 4.24997 9.00114 4.24997C9.29951 4.24997 9.58566 4.3685 9.79664 4.57948C10.0076 4.79045 10.1261 5.0766 10.1261 5.37497ZM18.0011 14.75V9.75497C18.0291 7.44306 17.1815 5.20614 15.6284 3.49335C14.0753 1.78056 11.9318 0.718699 9.62814 0.520971C8.34238 0.431014 7.05229 0.618276 5.84517 1.07009C4.63804 1.5219 3.54204 2.22771 2.63133 3.13978C1.72061 4.05185 1.01641 5.1489 0.566395 6.35669C0.116375 7.56448 -0.0689742 8.85484 0.0228886 10.1405C0.354389 14.906 4.56264 18.5 9.81339 18.5H14.2511C15.2453 18.4988 16.1985 18.1033 16.9015 17.4003C17.6045 16.6973 18 15.7442 18.0011 14.75ZM9.52614 2.01797C11.451 2.18825 13.2401 3.08065 14.534 4.51589C15.8278 5.95112 16.5306 7.82284 16.5011 9.75497V14.75C16.5011 15.3467 16.2641 15.919 15.8421 16.341C15.4202 16.7629 14.8479 17 14.2511 17H9.81339C5.28789 17 1.80114 14.075 1.51989 10.037C1.44605 9.00841 1.58512 7.97567 1.9284 7.00327C2.27168 6.03088 2.8118 5.13972 3.51502 4.38547C4.21823 3.63123 5.06943 3.03011 6.01544 2.61966C6.96145 2.20921 7.98193 1.99825 9.01314 1.99997C9.18339 1.99997 9.35514 2.00672 9.52614 2.01797ZM10.5011 14V9.49997C10.5011 9.10215 10.3431 8.72062 10.0618 8.43931C9.7805 8.15801 9.39896 7.99997 9.00114 7.99997H8.25114C8.05223 7.99997 7.86146 8.07899 7.72081 8.21964C7.58016 8.36029 7.50114 8.55106 7.50114 8.74997C7.50114 8.94888 7.58016 9.13965 7.72081 9.2803C7.86146 9.42095 8.05223 9.49997 8.25114 9.49997H9.00114V14C9.00114 14.1989 9.08016 14.3897 9.22081 14.5303C9.36146 14.671 9.55223 14.75 9.75114 14.75C9.95005 14.75 10.1408 14.671 10.2815 14.5303C10.4221 14.3897 10.5011 14.1989 10.5011 14Z" />
</g>
<defs>
<clipPath>
<rect width="18" height="18"  transform="translate(0 0.5)"/>
</clipPath>
</defs>
</symbol>

<symbol id="log-out" width="18" height="19" viewBox="0 0 18 19" >
<g clip-path="url(#clip0_2_7221)">
<path d="M17.0704 8.17344L13.3579 4.46094L12.2982 5.52444L15.5232 8.74944H4.96094V10.2494H15.5232L12.2982 13.4744L13.3587 14.5349L17.0712 10.8224C17.2454 10.6483 17.3835 10.4416 17.4778 10.2141C17.572 9.98657 17.6205 9.74271 17.6205 9.49644C17.6205 9.25017 17.572 9.00631 17.4778 8.77879C17.3835 8.55127 17.2454 8.34455 17.0712 8.17044L17.0704 8.17344Z" />
<path d="M7.857 16.25C7.857 16.4489 7.77798 16.6397 7.63733 16.7803C7.49668 16.921 7.30591 17 7.107 17H2.25C2.05109 17 1.86032 16.921 1.71967 16.7803C1.57902 16.6397 1.5 16.4489 1.5 16.25V2.75C1.5 2.55109 1.57902 2.36032 1.71967 2.21967C1.86032 2.07902 2.05109 2 2.25 2H7.107C7.30591 2 7.49668 2.07902 7.63733 2.21967C7.77798 2.36032 7.857 2.55109 7.857 2.75V6.74975H9.357V2.75C9.357 2.15326 9.11995 1.58097 8.69799 1.15901C8.27603 0.737053 7.70374 0.5 7.107 0.5L2.25 0.5C1.65326 0.5 1.08097 0.737053 0.65901 1.15901C0.237053 1.58097 0 2.15326 0 2.75L0 16.25C0 16.8467 0.237053 17.419 0.65901 17.841C1.08097 18.2629 1.65326 18.5 2.25 18.5H7.107C7.70374 18.5 8.27603 18.2629 8.69799 17.841C9.11995 17.419 9.357 16.8467 9.357 16.25V12.2502H7.857V16.25Z" />
</g>
<defs>
<clipPath>
<rect width="18" height="18"  transform="translate(0 0.5)"/>
</clipPath>
</defs>
</symbol>

<symbol id="arrow-bootom" width="19" height="19" viewBox="0 0 19 19" >
<mask style="mask-type:alpha" maskUnits="userSpaceOnUse" x="0" y="0" width="19" height="19">
<rect width="19" height="19" transform="matrix(-1 0 0 1 19 0)" />
</mask>
<g mask="url(#mask0_2_7226)">
<path d="M9.56109 12.7093L4.12109 7.26933L5.39043 6L9.56109 10.1707L13.7318 6L15.0011 7.26933L9.56109 12.7093Z" />
</g>
</symbol>

<symbol id="arrow-left" width="19" height="19" viewBox="0 0 19 19" >
<mask style="mask-type:alpha" maskUnits="userSpaceOnUse" x="0" y="0" width="19" height="20">
<rect x="19" y="0.000976562" width="19" height="19" transform="rotate(90 19 0.000976562)"/>
</mask>
<g mask="url(#mask0_2_7216)">
<path d="M6.29067 9.44098L11.7307 4.00098L13 5.27031L8.82933 9.44098L13 13.6116L11.7307 14.881L6.29067 9.44098Z"  fill-opacity="0.6"/>
</g>
</symbol>

<symbol id="fi-rr-settings" width="18" height="19" viewBox="0 0 18 19">
<g clip-path="url(#clip0_2_7199)">
<path id="Vector" d="M9 6.50049C8.40666 6.50049 7.82664 6.67644 7.33329 7.00608C6.83994 7.33572 6.45543 7.80426 6.22836 8.35244C6.0013 8.90062 5.94189 9.50382 6.05765 10.0858C6.1734 10.6677 6.45912 11.2023 6.87868 11.6218C7.29824 12.0414 7.83279 12.3271 8.41473 12.4428C8.99667 12.5586 9.59987 12.4992 10.1481 12.2721C10.6962 12.0451 11.1648 11.6605 11.4944 11.1672C11.8241 10.6739 12 10.0938 12 9.50049C12 8.70484 11.6839 7.94178 11.1213 7.37917C10.5587 6.81656 9.79565 6.50049 9 6.50049ZM9 11.0005C8.70333 11.0005 8.41332 10.9125 8.16665 10.7477C7.91997 10.5829 7.72771 10.3486 7.61418 10.0745C7.50065 9.80042 7.47095 9.49882 7.52882 9.20785C7.5867 8.91688 7.72956 8.64961 7.93934 8.43983C8.14912 8.23005 8.41639 8.08719 8.70737 8.02931C8.99834 7.97143 9.29994 8.00114 9.57403 8.11467C9.84812 8.2282 10.0824 8.42046 10.2472 8.66713C10.412 8.91381 10.5 9.20382 10.5 9.50049C10.5 9.89831 10.342 10.2798 10.0607 10.5611C9.77936 10.8425 9.39783 11.0005 9 11.0005Z" />
<path id="Vector_2" d="M15.9704 10.925L15.6374 10.733C15.7873 9.91733 15.7873 9.08117 15.6374 8.2655L15.9704 8.0735C16.2264 7.92576 16.4509 7.72903 16.6309 7.49455C16.811 7.26006 16.9431 6.9924 17.0197 6.70686C17.0963 6.42132 17.1159 6.12349 17.0774 5.83037C17.0389 5.53725 16.9431 5.25458 16.7954 4.9985C16.6476 4.74242 16.4509 4.51795 16.2164 4.3379C15.9819 4.15785 15.7143 4.02575 15.4287 3.94915C15.1432 3.87254 14.8453 3.85292 14.5522 3.89142C14.2591 3.92991 13.9764 4.02576 13.7204 4.1735L13.3866 4.36625C12.7563 3.82769 12.0318 3.41019 11.2498 3.13475V2.75C11.2498 2.15326 11.0128 1.58097 10.5908 1.15901C10.1689 0.737053 9.59659 0.5 8.99985 0.5C8.40311 0.5 7.83082 0.737053 7.40886 1.15901C6.9869 1.58097 6.74985 2.15326 6.74985 2.75V3.13475C5.96789 3.41118 5.24374 3.8297 4.61385 4.36925L4.2786 4.175C3.76143 3.87663 3.14691 3.79593 2.57024 3.95065C1.99356 4.10536 1.50197 4.48283 1.2036 5C0.905231 5.51717 0.824528 6.13169 0.979246 6.70836C1.13396 7.28504 1.51143 7.77663 2.0286 8.075L2.3616 8.267C2.21168 9.08267 2.21168 9.91883 2.3616 10.7345L2.0286 10.9265C1.51143 11.2249 1.13396 11.7165 0.979246 12.2931C0.824528 12.8698 0.905231 13.4843 1.2036 14.0015C1.50197 14.5187 1.99356 14.8961 2.57024 15.0509C3.14691 15.2056 3.76143 15.1249 4.2786 14.8265L4.61235 14.6337C5.24292 15.1724 5.96758 15.5899 6.74985 15.8652V16.25C6.74985 16.8467 6.9869 17.419 7.40886 17.841C7.83082 18.2629 8.40311 18.5 8.99985 18.5C9.59659 18.5 10.1689 18.2629 10.5908 17.841C11.0128 17.419 11.2498 16.8467 11.2498 16.25V15.8652C12.0318 15.5888 12.756 15.1703 13.3858 14.6307L13.7211 14.8243C14.2383 15.1226 14.8528 15.2033 15.4295 15.0486C16.0061 14.8939 16.4977 14.5164 16.7961 13.9993C17.0945 13.4821 17.1752 12.8676 17.0205 12.2909C16.8657 11.7142 16.4883 11.2226 15.9711 10.9242L15.9704 10.925ZM14.0594 8.093C14.3133 9.0133 14.3133 9.9852 14.0594 10.9055C14.015 11.0657 14.0251 11.2361 14.0881 11.3899C14.1511 11.5437 14.2634 11.6722 14.4073 11.7552L15.2204 12.2248C15.3927 12.3242 15.5185 12.4881 15.57 12.6803C15.6216 12.8725 15.5947 13.0773 15.4952 13.2496C15.3958 13.422 15.2319 13.5478 15.0397 13.5993C14.8475 13.6509 14.6427 13.624 14.4704 13.5245L13.6558 13.0535C13.5118 12.9701 13.344 12.9369 13.179 12.9593C13.014 12.9817 12.8612 13.0584 12.7446 13.1772C12.077 13.8587 11.236 14.345 10.3123 14.5835C10.1511 14.625 10.0083 14.7189 9.90629 14.8504C9.80432 14.982 9.74902 15.1438 9.7491 15.3102V16.25C9.7491 16.4489 9.67008 16.6397 9.52943 16.7803C9.38878 16.921 9.19801 17 8.9991 17C8.80019 17 8.60942 16.921 8.46877 16.7803C8.32812 16.6397 8.2491 16.4489 8.2491 16.25V15.311C8.24918 15.1445 8.19388 14.9828 8.0919 14.8512C7.98993 14.7196 7.84707 14.6257 7.68585 14.5842C6.76211 14.3448 5.92135 13.8575 5.25435 13.175C5.13774 13.0561 4.9849 12.9795 4.81992 12.9571C4.65493 12.9347 4.48718 12.9678 4.3431 13.0513L3.5301 13.5215C3.44477 13.5715 3.35039 13.6042 3.25239 13.6176C3.15439 13.631 3.05471 13.6249 2.95909 13.5996C2.86346 13.5743 2.77379 13.5303 2.69521 13.4703C2.61664 13.4102 2.55073 13.3352 2.50128 13.2495C2.45182 13.1638 2.4198 13.0692 2.40705 12.9712C2.3943 12.8731 2.40108 12.7734 2.42699 12.678C2.45291 12.5825 2.49745 12.4931 2.55805 12.415C2.61865 12.3368 2.69411 12.2714 2.7801 12.2225L3.5931 11.753C3.73706 11.6699 3.84936 11.5414 3.91234 11.3876C3.97533 11.2338 3.98545 11.0634 3.9411 10.9032C3.68712 9.98295 3.68712 9.01105 3.9411 8.09075C3.98465 7.93091 3.97405 7.76115 3.91096 7.60797C3.84787 7.45479 3.73584 7.3268 3.59235 7.244L2.77935 6.7745C2.60699 6.67504 2.4812 6.51119 2.42965 6.31899C2.3781 6.12679 2.40502 5.92198 2.50447 5.74962C2.60393 5.57727 2.76778 5.45148 2.95998 5.39993C3.15218 5.34838 3.35699 5.37529 3.52935 5.47475L4.34385 5.94575C4.48753 6.02939 4.65493 6.06291 4.81974 6.04105C4.98455 6.01919 5.13743 5.9432 5.25435 5.825C5.92191 5.14351 6.76292 4.65727 7.6866 4.41875C7.84832 4.37717 7.99155 4.28281 8.09358 4.15063C8.1956 4.01844 8.2506 3.85598 8.24985 3.689V2.75C8.24985 2.55109 8.32887 2.36032 8.46952 2.21967C8.61017 2.07902 8.80094 2 8.99985 2C9.19876 2 9.38953 2.07902 9.53018 2.21967C9.67083 2.36032 9.74985 2.55109 9.74985 2.75V3.689C9.74977 3.85547 9.80507 4.01723 9.90705 4.14881C10.009 4.28039 10.1519 4.3743 10.3131 4.41575C11.2371 4.65511 12.0781 5.14241 12.7453 5.825C12.862 5.94385 13.0148 6.02052 13.1798 6.04292C13.3448 6.06533 13.5125 6.0322 13.6566 5.94875L14.4696 5.4785C14.5549 5.42848 14.6493 5.39583 14.7473 5.38243C14.8453 5.36903 14.945 5.37514 15.0406 5.40043C15.1362 5.42571 15.2259 5.46965 15.3045 5.52974C15.3831 5.58982 15.449 5.66485 15.4984 5.7505C15.5479 5.83616 15.5799 5.93076 15.5927 6.02884C15.6054 6.12693 15.5986 6.22656 15.5727 6.32202C15.5468 6.41747 15.5023 6.50686 15.4417 6.58503C15.381 6.6632 15.3056 6.72861 15.2196 6.7775L14.4066 7.247C14.2634 7.33003 14.1517 7.45811 14.0889 7.61127C14.026 7.76443 14.0157 7.93407 14.0594 8.09375V8.093Z" />
</g>
<defs>
<clipPath id="clip0_2_7199">
<rect width="18" height="18"  transform="translate(0 0.5)"/>
</clipPath>
</defs>
</symbol>

<symbol id="fi-rr-bank" width="18" height="19" viewBox="0 0 18 19" >
<g clip-path="url(#clip0_2_7195)">
<path id="Vector" d="M17.2516 17.7502C17.2516 17.9491 17.1726 18.1398 17.0319 18.2805C16.8913 18.4211 16.7005 18.5002 16.5016 18.5002H1.50121C1.3023 18.5002 1.11153 18.4211 0.970879 18.2805C0.830226 18.1398 0.751209 17.9491 0.751209 17.7502C0.751209 17.5513 0.830226 17.3605 0.970879 17.2198C1.11153 17.0792 1.3023 17.0002 1.50121 17.0002H16.5016C16.7005 17.0002 16.8913 17.0792 17.0319 17.2198C17.1726 17.3605 17.2516 17.5513 17.2516 17.7502ZM0.219459 6.91416C0.0578504 6.61441 -0.0170204 6.27554 0.00324897 5.9356C0.0235183 5.59566 0.138126 5.26809 0.334209 4.98966C0.654652 4.5195 1.08379 4.13358 1.58521 3.86466L7.21096 0.936664C7.76391 0.649137 8.37797 0.499023 9.00121 0.499023C9.62444 0.499023 10.2385 0.649137 10.7915 0.936664L16.4165 3.86691C16.9179 4.13583 17.347 4.52175 17.6675 4.99191C17.8635 5.27034 17.9781 5.59791 17.9984 5.93785C18.0187 6.27779 17.9438 6.61666 17.7822 6.91641C17.6082 7.24554 17.3473 7.52062 17.0278 7.71171C16.7083 7.9028 16.3425 8.00257 15.9702 8.00016H15.7512V14.0002H16.5012C16.7001 14.0002 16.8909 14.0792 17.0315 14.2198C17.1722 14.3605 17.2512 14.5513 17.2512 14.7502C17.2512 14.9491 17.1722 15.1398 17.0315 15.2805C16.8909 15.4211 16.7001 15.5002 16.5012 15.5002H1.50121C1.3023 15.5002 1.11153 15.4211 0.970879 15.2805C0.830226 15.1398 0.751209 14.9491 0.751209 14.7502C0.751209 14.5513 0.830226 14.3605 0.970879 14.2198C1.11153 14.0792 1.3023 14.0002 1.50121 14.0002H2.25121V8.00016H2.03221C1.65958 8.00249 1.29346 7.90245 0.9738 7.71094C0.654137 7.51943 0.393203 7.24382 0.219459 6.91416ZM3.75121 14.0002H6.00121V8.00016H3.75121V14.0002ZM7.50121 8.00016V14.0002H10.5012V8.00016H7.50121ZM14.2512 8.00016H12.0012V14.0002H14.2512V8.00016ZM1.54846 6.21891C1.59552 6.30567 1.66554 6.37781 1.75087 6.42742C1.8362 6.47703 1.93353 6.50219 2.03221 6.50016H15.9702C16.0689 6.50219 16.1662 6.47703 16.2515 6.42742C16.3369 6.37781 16.4069 6.30567 16.454 6.21891C16.4882 6.16159 16.5048 6.09541 16.5016 6.0287C16.4984 5.96198 16.4756 5.8977 16.436 5.84391C16.2542 5.57385 16.0101 5.35157 15.7242 5.19591L10.0992 2.26566C9.76021 2.08973 9.38389 1.99789 9.00196 1.99789C8.62003 1.99789 8.2437 2.08973 7.90471 2.26566L2.27971 5.19591C1.99395 5.35207 1.74986 5.57456 1.56796 5.84466C1.52828 5.89822 1.50526 5.96229 1.50179 6.02885C1.49832 6.09542 1.51456 6.16153 1.54846 6.21891Z" />
</g>
<defs>
<clipPath id="clip0_2_7195">
<rect width="18" height="18"  transform="translate(0 0.5)"/>
</clipPath>
</defs>
</symbol>

<symbol id="fi-rr-briefcase" width="18" height="19" viewBox="0 0 18 19" >
<g clip-path="url(#clip0_2_7189)">
<path id="Vector" d="M14.25 3.5H13.425C13.2509 2.65356 12.7904 1.89301 12.1209 1.34654C11.4515 0.800068 10.6142 0.501091 9.75 0.5L8.25 0.5C7.38585 0.501091 6.54849 0.800068 5.87906 1.34654C5.20964 1.89301 4.74907 2.65356 4.575 3.5H3.75C2.7558 3.50119 1.80267 3.89666 1.09966 4.59966C0.396661 5.30267 0.00119089 6.2558 0 7.25L0 14.75C0.00119089 15.7442 0.396661 16.6973 1.09966 17.4003C1.80267 18.1033 2.7558 18.4988 3.75 18.5H14.25C15.2442 18.4988 16.1973 18.1033 16.9003 17.4003C17.6033 16.6973 17.9988 15.7442 18 14.75V7.25C17.9988 6.2558 17.6033 5.30267 16.9003 4.59966C16.1973 3.89666 15.2442 3.50119 14.25 3.5ZM8.25 2H9.75C10.2137 2.00192 10.6655 2.14706 11.0435 2.41557C11.4216 2.68407 11.7074 3.06282 11.862 3.5H6.138C6.29256 3.06282 6.57842 2.68407 6.95648 2.41557C7.33453 2.14706 7.7863 2.00192 8.25 2ZM3.75 5H14.25C14.8467 5 15.419 5.23705 15.841 5.65901C16.2629 6.08097 16.5 6.65326 16.5 7.25V9.5H1.5V7.25C1.5 6.65326 1.73705 6.08097 2.15901 5.65901C2.58097 5.23705 3.15326 5 3.75 5ZM14.25 17H3.75C3.15326 17 2.58097 16.7629 2.15901 16.341C1.73705 15.919 1.5 15.3467 1.5 14.75V11H8.25V11.75C8.25 11.9489 8.32902 12.1397 8.46967 12.2803C8.61032 12.421 8.80109 12.5 9 12.5C9.19891 12.5 9.38968 12.421 9.53033 12.2803C9.67098 12.1397 9.75 11.9489 9.75 11.75V11H16.5V14.75C16.5 15.3467 16.2629 15.919 15.841 16.341C15.419 16.7629 14.8467 17 14.25 17Z" />
</g>
<defs>
<clipPath id="clip0_2_7189">
<rect width="18" height="18" transform="translate(0 0.5)"/>
</clipPath>
</defs>
</symbol>

<symbol id="fi-rr-credit-card" width="18" height="19" viewBox="0 0 18 19" >
<g clip-path="url(#clip0_2_7186)">
<path id="Vector" d="M4.125 13.25C4.74632 13.25 5.25 12.7463 5.25 12.125C5.25 11.5037 4.74632 11 4.125 11C3.50368 11 3 11.5037 3 12.125C3 12.7463 3.50368 13.25 4.125 13.25Z" />
<path id="Vector_2" d="M14.25 2.75H3.75C2.7558 2.75119 1.80267 3.14666 1.09966 3.84966C0.396661 4.55267 0.00119089 5.5058 0 6.5L0 12.5C0.00119089 13.4942 0.396661 14.4473 1.09966 15.1503C1.80267 15.8533 2.7558 16.2488 3.75 16.25H14.25C15.2442 16.2488 16.1973 15.8533 16.9003 15.1503C17.6033 14.4473 17.9988 13.4942 18 12.5V6.5C17.9988 5.5058 17.6033 4.55267 16.9003 3.84966C16.1973 3.14666 15.2442 2.75119 14.25 2.75ZM3.75 4.25H14.25C14.8467 4.25 15.419 4.48705 15.841 4.90901C16.2629 5.33097 16.5 5.90326 16.5 6.5H1.5C1.5 5.90326 1.73705 5.33097 2.15901 4.90901C2.58097 4.48705 3.15326 4.25 3.75 4.25ZM14.25 14.75H3.75C3.15326 14.75 2.58097 14.5129 2.15901 14.091C1.73705 13.669 1.5 13.0967 1.5 12.5V8H16.5V12.5C16.5 13.0967 16.2629 13.669 15.841 14.091C15.419 14.5129 14.8467 14.75 14.25 14.75Z" />
</g>
<defs>
<clipPath id="clip0_2_7186">
<rect width="18" height="18" transform="translate(0 0.5)"/>
</clipPath>
</defs>
</symbol>

<symbol id="fi-rr-document" width="18" height="19" viewBox="0 0 18 19" >
<g clip-path="url(#clip0_2_7180)">
<path id="Vector" d="M12.75 11C12.75 11.1989 12.671 11.3897 12.5303 11.5303C12.3897 11.671 12.1989 11.75 12 11.75H6C5.80109 11.75 5.61032 11.671 5.46967 11.5303C5.32902 11.3897 5.25 11.1989 5.25 11C5.25 10.8011 5.32902 10.6103 5.46967 10.4697C5.61032 10.329 5.80109 10.25 6 10.25H12C12.1989 10.25 12.3897 10.329 12.5303 10.4697C12.671 10.6103 12.75 10.8011 12.75 11ZM9.75 13.25H6C5.80109 13.25 5.61032 13.329 5.46967 13.4697C5.32902 13.6103 5.25 13.8011 5.25 14C5.25 14.1989 5.32902 14.3897 5.46967 14.5303C5.61032 14.671 5.80109 14.75 6 14.75H9.75C9.94891 14.75 10.1397 14.671 10.2803 14.5303C10.421 14.3897 10.5 14.1989 10.5 14C10.5 13.8011 10.421 13.6103 10.2803 13.4697C10.1397 13.329 9.94891 13.25 9.75 13.25ZM16.5 8.36377V14.75C16.4988 15.7442 16.1033 16.6973 15.4003 17.4004C14.6973 18.1034 13.7442 18.4988 12.75 18.5H5.25C4.2558 18.4988 3.30267 18.1034 2.59966 17.4004C1.89666 16.6973 1.50119 15.7442 1.5 14.75V4.25002C1.50119 3.25582 1.89666 2.30269 2.59966 1.59968C3.30267 0.896679 4.2558 0.501208 5.25 0.500017H8.63625C9.32596 0.498242 10.0092 0.633208 10.6464 0.897112C11.2836 1.16102 11.8622 1.54862 12.3488 2.03752L14.9618 4.65202C15.4509 5.1382 15.8388 5.71661 16.1028 6.35375C16.3669 6.99089 16.5019 7.67408 16.5 8.36377ZM11.2882 3.09802C11.0522 2.86939 10.7872 2.67271 10.5 2.51302V5.75002C10.5 5.94893 10.579 6.13969 10.7197 6.28035C10.8603 6.421 11.0511 6.50002 11.25 6.50002H14.487C14.3272 6.21291 14.1303 5.94813 13.9012 5.71252L11.2882 3.09802ZM15 8.36377C15 8.24002 14.976 8.12152 14.9647 8.00002H11.25C10.6533 8.00002 10.081 7.76296 9.65901 7.34101C9.23705 6.91905 9 6.34675 9 5.75002V2.03527C8.8785 2.02402 8.75925 2.00002 8.63625 2.00002H5.25C4.65326 2.00002 4.08097 2.23707 3.65901 2.65903C3.23705 3.08098 3 3.65328 3 4.25002V14.75C3 15.3468 3.23705 15.9191 3.65901 16.341C4.08097 16.763 4.65326 17 5.25 17H12.75C13.3467 17 13.919 16.763 14.341 16.341C14.7629 15.9191 15 15.3468 15 14.75V8.36377Z" />
</g>
<defs>
<clipPath id="clip0_2_7180">
<rect width="18" height="18" transform="translate(0 0.5)"/>
</clipPath>
</defs>
</symbol>

<symbol id="fi-rr-apps" width="18" height="19" viewBox="0 0 18 19" >
<g clip-path="url(#clip0_2_7176)">
<path id="Vector" d="M5.25 0.5H3C2.20435 0.5 1.44129 0.816071 0.87868 1.37868C0.316071 1.94129 0 2.70435 0 3.5L0 5.75C0 6.54565 0.316071 7.30871 0.87868 7.87132C1.44129 8.43393 2.20435 8.75 3 8.75H5.25C6.04565 8.75 6.80871 8.43393 7.37132 7.87132C7.93393 7.30871 8.25 6.54565 8.25 5.75V3.5C8.25 2.70435 7.93393 1.94129 7.37132 1.37868C6.80871 0.816071 6.04565 0.5 5.25 0.5V0.5ZM6.75 5.75C6.75 6.14782 6.59196 6.52936 6.31066 6.81066C6.02936 7.09196 5.64782 7.25 5.25 7.25H3C2.60218 7.25 2.22064 7.09196 1.93934 6.81066C1.65804 6.52936 1.5 6.14782 1.5 5.75V3.5C1.5 3.10218 1.65804 2.72064 1.93934 2.43934C2.22064 2.15804 2.60218 2 3 2H5.25C5.64782 2 6.02936 2.15804 6.31066 2.43934C6.59196 2.72064 6.75 3.10218 6.75 3.5V5.75Z" />
<path id="Vector_2" d="M15 0.5H12.75C11.9543 0.5 11.1913 0.816071 10.6287 1.37868C10.0661 1.94129 9.75 2.70435 9.75 3.5V5.75C9.75 6.54565 10.0661 7.30872 10.6287 7.87133C11.1913 8.43394 11.9543 8.75001 12.75 8.75001H15C15.7956 8.75001 16.5587 8.43394 17.1213 7.87133C17.6839 7.30872 18 6.54565 18 5.75V3.5C18 2.70435 17.6839 1.94129 17.1213 1.37868C16.5587 0.816071 15.7956 0.5 15 0.5V0.5ZM16.5 5.75C16.5 6.14783 16.342 6.52936 16.0607 6.81066C15.7793 7.09197 15.3978 7.25 15 7.25H12.75C12.3522 7.25 11.9706 7.09197 11.6893 6.81066C11.408 6.52936 11.25 6.14783 11.25 5.75V3.5C11.25 3.10218 11.408 2.72065 11.6893 2.43934C11.9706 2.15804 12.3522 2 12.75 2H15C15.3978 2 15.7793 2.15804 16.0607 2.43934C16.342 2.72065 16.5 3.10218 16.5 3.5V5.75Z" />
<path id="Vector_3" d="M5.25 10.25H3C2.20435 10.25 1.44129 10.5661 0.87868 11.1287C0.316071 11.6913 0 12.4544 0 13.25L0 15.5C0 16.2957 0.316071 17.0587 0.87868 17.6213C1.44129 18.1839 2.20435 18.5 3 18.5H5.25C6.04565 18.5 6.80871 18.1839 7.37132 17.6213C7.93393 17.0587 8.25 16.2957 8.25 15.5V13.25C8.25 12.4544 7.93393 11.6913 7.37132 11.1287C6.80871 10.5661 6.04565 10.25 5.25 10.25ZM6.75 15.5C6.75 15.8978 6.59196 16.2794 6.31066 16.5607C6.02936 16.842 5.64782 17 5.25 17H3C2.60218 17 2.22064 16.842 1.93934 16.5607C1.65804 16.2794 1.5 15.8978 1.5 15.5V13.25C1.5 12.8522 1.65804 12.4706 1.93934 12.1893C2.22064 11.908 2.60218 11.75 3 11.75H5.25C5.64782 11.75 6.02936 11.908 6.31066 12.1893C6.59196 12.4706 6.75 12.8522 6.75 13.25V15.5Z" />
<path id="Vector_4" d="M15 10.25H12.75C11.9543 10.25 11.1913 10.5661 10.6287 11.1287C10.0661 11.6913 9.75 12.4544 9.75 13.25V15.5C9.75 16.2957 10.0661 17.0587 10.6287 17.6213C11.1913 18.1839 11.9543 18.5 12.75 18.5H15C15.7956 18.5 16.5587 18.1839 17.1213 17.6213C17.6839 17.0587 18 16.2957 18 15.5V13.25C18 12.4544 17.6839 11.6913 17.1213 11.1287C16.5587 10.5661 15.7956 10.25 15 10.25ZM16.5 15.5C16.5 15.8978 16.342 16.2794 16.0607 16.5607C15.7793 16.842 15.3978 17 15 17H12.75C12.3522 17 11.9706 16.842 11.6893 16.5607C11.408 16.2794 11.25 15.8978 11.25 15.5V13.25C11.25 12.8522 11.408 12.4706 11.6893 12.1893C11.9706 11.908 12.3522 11.75 12.75 11.75H15C15.3978 11.75 15.7793 11.908 16.0607 12.1893C16.342 12.4706 16.5 12.8522 16.5 13.25V15.5Z" />
</g>
<defs>
<clipPath id="clip0_2_7176">
<rect width="18" height="18"  transform="translate(0 0.5)"/>
</clipPath>
</defs>
</symbol>
<symbol id="notifications" width="25" height="25" viewBox="0 0 25 25" fill="none">
<mask style="mask-type:alpha" maskUnits="userSpaceOnUse" x="0" y="0" width="25" height="25">
<rect width="25" height="25" fill="#D9D9D9"/>
</mask>
<g mask="url(#mask0_2_7165)">
<path d="M4.16797 19.7909V17.7075H6.2513V10.4159C6.2513 8.97488 6.68533 7.6945 7.55339 6.57471C8.42144 5.45492 9.54991 4.72141 10.9388 4.37419V3.64502C10.9388 3.21099 11.0907 2.84207 11.3945 2.53825C11.6984 2.23443 12.0673 2.08252 12.5013 2.08252C12.9353 2.08252 13.3043 2.23443 13.6081 2.53825C13.9119 2.84207 14.0638 3.21099 14.0638 3.64502V4.37419C15.4527 4.72141 16.5812 5.45492 17.4492 6.57471C18.3173 7.6945 18.7513 8.97488 18.7513 10.4159V17.7075H20.8346V19.7909H4.16797ZM12.5013 22.9159C11.9284 22.9159 11.4379 22.7119 11.0299 22.3039C10.622 21.8959 10.418 21.4054 10.418 20.8325H14.5846C14.5846 21.4054 14.3806 21.8959 13.9727 22.3039C13.5647 22.7119 13.0742 22.9159 12.5013 22.9159ZM8.33464 17.7075H16.668V10.4159C16.668 9.27002 16.26 8.28912 15.444 7.47315C14.628 6.65717 13.6471 6.24919 12.5013 6.24919C11.3555 6.24919 10.3746 6.65717 9.55859 7.47315C8.74262 8.28912 8.33464 9.27002 8.33464 10.4159V17.7075Z" fill="#1C1B1F"/>
</g>
</symbol>

<symbol id="II" width="20" height="35" viewBox="0 0 15 21" >
<path d="M0.794922 21V0.960938H4.85547V21H0.794922ZM10.4453 21V0.960938H14.5059V21H10.4453Z" fill="#1C1B20"/>
</symbol>

<symbol id="corporate_fare" width="29" height="26" viewBox="0 0 29 26" fill="none">
<path d="M0.449219 26.0052V0.484375H14.3033V6.31771H28.5501V26.0052H0.449219ZM2.63665 23.8177H12.1159V20.1718H2.63665V23.8177ZM2.63665 17.9844H12.1159V14.3385H2.63665V17.9844ZM2.63665 12.151H12.1159V8.50517H2.63665V12.151ZM2.63665 6.31771H12.1159V2.67184H2.63665V6.31771ZM14.3033 23.8177H26.3626V8.50517H14.3033V23.8177ZM17.5005 14.3385V12.151H22.885V14.3385H17.5005ZM17.5005 20.1718V17.9844H22.885V20.1718H17.5005Z" fill="white"/>
</symbol>

<symbol id="manage_search" width="30" height="19" viewBox="0 0 30 19" fill="none">
<path d="M0 18.7341V16.3886H15.2911V18.7341H0ZM0 11.081V8.73559H7.39742V11.081H0ZM0 3.428V1.08254H7.39742V3.428H0ZM28.0621 18.7642L22.0118 12.759C21.4164 13.192 20.7674 13.5218 20.0648 13.7483C19.3621 13.9749 18.6479 14.0881 17.9222 14.0881C15.963 14.0881 14.2929 13.4035 12.912 12.0343C11.531 10.6651 10.8406 9.00167 10.8406 7.04407C10.8406 5.08648 11.5314 3.42307 12.913 2.05383C14.2946 0.68461 15.9655 0 17.9258 0C19.886 0 21.5558 0.68461 22.935 2.05383C24.3143 3.42307 25.0039 5.08398 25.0039 7.03656C25.0039 7.76227 24.8906 8.47644 24.6641 9.17909C24.4375 9.88176 24.1027 10.5258 23.6597 11.1111L29.71 17.1163L28.0621 18.7642ZM17.9222 11.7427C19.2378 11.7427 20.3561 11.2866 21.277 10.3744C22.1979 9.4623 22.6584 8.35217 22.6584 7.04407C22.6584 5.73599 22.1979 4.62587 21.277 3.71372C20.3561 2.80157 19.2378 2.34549 17.9222 2.34549C16.6066 2.34549 15.4884 2.80157 14.5674 3.71372C13.6465 4.62587 13.186 5.73599 13.186 7.04407C13.186 8.35217 13.6465 9.4623 14.5674 10.3744C15.4884 11.2866 16.6066 11.7427 17.9222 11.7427Z" fill="white"/>
</symbol>

<symbol id="store" width="35" height="37" viewBox="0 0 35 37" fill="none">
<g filter="url(#filter0_d_2_7057)">
<mask style="mask-type:alpha" maskUnits="userSpaceOnUse" x="0" y="0" width="35" height="35">
<rect width="35" height="35" fill="#D9D9D9"/>
</mask>
<g mask="url(#mask0_2_7057)">
<path d="M6.14083 8.27581V6.08838H28.8571V8.27581H6.14083ZM6.19694 28.6925V19.9425H4.57031V17.755L6.14083 10.4634H28.8571L30.4277 17.755V19.9425H28.801V28.6925H26.6136V19.9425H20.051V28.6925H6.19694ZM8.38436 26.505H17.8636V19.9425H8.38436V26.505ZM6.80262 17.755H28.1953L27.0819 12.6508H7.91602L6.80262 17.755Z" fill="white"/>
</g>
</g>
<defs>
<filter id="filter0_d_2_7057" x="0.570312" y="6.08838" width="33.8555" height="30.604" filterUnits="userSpaceOnUse" color-interpolation-filters="sRGB">
<feFlood flood-opacity="0" result="BackgroundImageFix"/>
<feColorMatrix in="SourceAlpha" type="matrix" values="0 0 0 0 0 0 0 0 0 0 0 0 0 0 0 0 0 0 127 0" result="hardAlpha"/>
<feOffset dy="4"/>
<feGaussianBlur stdDeviation="2"/>
<feComposite in2="hardAlpha" operator="out"/>
<feColorMatrix type="matrix" values="0 0 0 0 0 0 0 0 0 0 0 0 0 0 0 0 0 0 0.25 0"/>
<feBlend mode="normal" in2="BackgroundImageFix" result="effect1_dropShadow_2_7057"/>
<feBlend mode="normal" in="SourceGraphic" in2="effect1_dropShadow_2_7057" result="shape"/>
</filter>
</defs>
</symbol>

<symbol id="red-green-arrow-incircle" width="24" height="24" viewBox="0 0 24 24" >
<mask style="mask-type:alpha" maskUnits="userSpaceOnUse" x="0" y="0" width="24" height="24">
<rect width="24" height="24"/>
</mask>
<g mask="url(#mask0_2_7023)">
<path d="M8.9 16.5L14 11.4L14 13.65L16 13.65L16 8L10.35 8L10.35 10L12.575 10L7.5 15.075L8.9 16.5ZM12 22C10.6167 22 9.31666 21.7375 8.1 21.2125C6.88333 20.6875 5.825 19.975 4.925 19.075C4.025 18.175 3.3125 17.1167 2.7875 15.9C2.2625 14.6833 2 13.3833 2 12C2 10.6167 2.2625 9.31667 2.7875 8.1C3.3125 6.88333 4.025 5.825 4.925 4.925C5.825 4.025 6.88333 3.3125 8.1 2.7875C9.31667 2.2625 10.6167 2 12 2C13.3833 2 14.6833 2.2625 15.9 2.7875C17.1167 3.3125 18.175 4.025 19.075 4.925C19.975 5.825 20.6875 6.88333 21.2125 8.1C21.7375 9.31667 22 10.6167 22 12C22 13.3833 21.7375 14.6833 21.2125 15.9C20.6875 17.1167 19.975 18.175 19.075 19.075C18.175 19.975 17.1167 20.6875 15.9 21.2125C14.6833 21.7375 13.3833 22 12 22Z" fill="#738392B2"  fill-opacity="0.7"/>
</g>
</symbol>

<symbol id="green-red-arrow-incircle" width="24" height="24" viewBox="0 0 24 24" >
<mask style="mask-type:alpha" maskUnits="userSpaceOnUse" x="0" y="0" width="24" height="24">
<rect x="24" y="24" width="24" height="24" transform="rotate(-180 24 24)" />
</mask>
<g mask="url(#mask0_2_7015)">
<path d="M15.1 7.5L10 12.6L10 10.35L8 10.35L8 16L13.65 16L13.65 14L11.425 14L16.5 8.925L15.1 7.5ZM12 2C13.3833 2 14.6833 2.2625 15.9 2.7875C17.1167 3.3125 18.175 4.025 19.075 4.925C19.975 5.825 20.6875 6.88333 21.2125 8.1C21.7375 9.31667 22 10.6167 22 12C22 13.3833 21.7375 14.6833 21.2125 15.9C20.6875 17.1167 19.975 18.175 19.075 19.075C18.175 19.975 17.1167 20.6875 15.9 21.2125C14.6833 21.7375 13.3833 22 12 22C10.6167 22 9.31667 21.7375 8.1 21.2125C6.88333 20.6875 5.825 19.975 4.925 19.075C4.025 18.175 3.3125 17.1167 2.7875 15.9C2.2625 14.6833 2 13.3833 2 12C2 10.6167 2.2625 9.31666 2.7875 8.1C3.3125 6.88333 4.025 5.825 4.925 4.925C5.825 4.025 6.88333 3.3125 8.1 2.7875C9.31667 2.2625 10.6167 2 12 2Z" fill="#17B573" />
</g>
</symbol>

<symbol id="close" width="24" height="24" viewBox="0 0 24 24" >
<mask style="mask-type:alpha" maskUnits="userSpaceOnUse" x="0" y="0" width="24" height="24">
<rect width="24" height="24" rx="12"/>
</mask>
<g mask="url(#mask0_2_5727)">
<path d="M6.4 19L5 17.6L10.6 12L5 6.4L6.4 5L12 10.6L17.6 5L19 6.4L13.4 12L19 17.6L17.6 19L12 13.4L6.4 19Z" fill-opacity="0.45"/>
</g>
</symbol>

<symbol id="cloud" width="60" height="41" viewBox="0 0 60 41" >
<path opacity="0.3" d="M52.7616 17.9218C52.7856 17.5794 52.8 17.2321 52.8 16.8824C52.8 7.57292 45.2616 0 36 0C29.316 0 23.292 4.00838 20.6329 10.0956C19.7713 9.79662 18.8905 9.64706 18 9.64706C13.7112 9.64706 10.1616 12.8933 9.66961 17.1645C4.09195 18.2668 0 23.1626 0 28.9412C0 35.5904 5.38324 41 12 41H28.8V25.8227L21.2496 33.4126C20.7792 33.8829 20.0208 33.8829 19.5504 33.4126C19.0823 32.9399 19.0823 32.1777 19.5504 31.705L29.1504 22.0603C29.2608 21.9494 29.3952 21.8601 29.5416 21.7999C29.8368 21.6769 30.1631 21.6769 30.4583 21.7999C30.6047 21.8601 30.7391 21.9494 30.8495 22.0603L40.4495 31.705C40.9175 32.1777 40.9175 32.9399 40.4495 33.4126C40.2143 33.6466 39.9072 33.7647 39.5999 33.7647C39.2926 33.7647 38.9855 33.6466 38.7503 33.4126L31.1999 25.8227V41H48C54.6168 41 60 35.5904 60 28.9412C60 24.137 57.1296 19.8199 52.7616 17.9218Z" />
</symbol>

<symbol id="button" width="45" height="45" viewBox="0 0 45 45" >
<circle cx="22.5" cy="22.5" r="22.5" fill="white"/>
<path d="M29.6071 21.7901C30.131 22.1056 30.131 22.8944 29.6071 23.2099L20.1786 28.889C19.6548 29.2045 19 28.8101 19 28.1791L19 16.8209C19 16.1899 19.6548 15.7955 20.1786 16.111L29.6071 21.7901Z" />
</symbol>


<symbol id="icon-mail" viewBox="0 0 32 32">
<path d="M28 5h-24c-2.209 0-4 1.792-4 4v13c0 2.209 1.791 4 4 4h24c2.209 0 4-1.791 4-4v-13c0-2.208-1.791-4-4-4zM2 10.25l6.999 5.25-6.999 5.25v-10.5zM30 22c0 1.104-0.898 2-2 2h-24c-1.103 0-2-0.896-2-2l7.832-5.875 4.368 3.277c0.533 0.398 1.166 0.6 1.8 0.6 0.633 0 1.266-0.201 1.799-0.6l4.369-3.277 7.832 5.875zM30 20.75l-7-5.25 7-5.25v10.5zM17.199 18.602c-0.349 0.262-0.763 0.4-1.199 0.4s-0.851-0.139-1.2-0.4l-12.8-9.602c0-1.103 0.897-2 2-2h24c1.102 0 2 0.897 2 2l-12.801 9.602z"></path>
</symbol>



</svg>
